G04 #@! TF.GenerationSoftware,KiCad,Pcbnew,(5.1.5)-3*
G04 #@! TF.CreationDate,2019-12-09T10:08:32+08:00*
G04 #@! TF.ProjectId,LED__,4c454495-7f2e-46b6-9963-61645f706362,rev?*
G04 #@! TF.SameCoordinates,Original*
G04 #@! TF.FileFunction,Paste,Top*
G04 #@! TF.FilePolarity,Positive*
%FSLAX46Y46*%
G04 Gerber Fmt 4.6, Leading zero omitted, Abs format (unit mm)*
G04 Created by KiCad (PCBNEW (5.1.5)-3) date 2019-12-09 10:08:32*
%MOMM*%
%LPD*%
G04 APERTURE LIST*
%ADD10C,0.100000*%
%ADD11R,1.500000X1.000000*%
G04 APERTURE END LIST*
D10*
G36*
X160885142Y-51741174D02*
G01*
X160908803Y-51744684D01*
X160932007Y-51750496D01*
X160954529Y-51758554D01*
X160976153Y-51768782D01*
X160996670Y-51781079D01*
X161015883Y-51795329D01*
X161033607Y-51811393D01*
X161049671Y-51829117D01*
X161063921Y-51848330D01*
X161076218Y-51868847D01*
X161086446Y-51890471D01*
X161094504Y-51912993D01*
X161100316Y-51936197D01*
X161103826Y-51959858D01*
X161105000Y-51983750D01*
X161105000Y-52896250D01*
X161103826Y-52920142D01*
X161100316Y-52943803D01*
X161094504Y-52967007D01*
X161086446Y-52989529D01*
X161076218Y-53011153D01*
X161063921Y-53031670D01*
X161049671Y-53050883D01*
X161033607Y-53068607D01*
X161015883Y-53084671D01*
X160996670Y-53098921D01*
X160976153Y-53111218D01*
X160954529Y-53121446D01*
X160932007Y-53129504D01*
X160908803Y-53135316D01*
X160885142Y-53138826D01*
X160861250Y-53140000D01*
X160373750Y-53140000D01*
X160349858Y-53138826D01*
X160326197Y-53135316D01*
X160302993Y-53129504D01*
X160280471Y-53121446D01*
X160258847Y-53111218D01*
X160238330Y-53098921D01*
X160219117Y-53084671D01*
X160201393Y-53068607D01*
X160185329Y-53050883D01*
X160171079Y-53031670D01*
X160158782Y-53011153D01*
X160148554Y-52989529D01*
X160140496Y-52967007D01*
X160134684Y-52943803D01*
X160131174Y-52920142D01*
X160130000Y-52896250D01*
X160130000Y-51983750D01*
X160131174Y-51959858D01*
X160134684Y-51936197D01*
X160140496Y-51912993D01*
X160148554Y-51890471D01*
X160158782Y-51868847D01*
X160171079Y-51848330D01*
X160185329Y-51829117D01*
X160201393Y-51811393D01*
X160219117Y-51795329D01*
X160238330Y-51781079D01*
X160258847Y-51768782D01*
X160280471Y-51758554D01*
X160302993Y-51750496D01*
X160326197Y-51744684D01*
X160349858Y-51741174D01*
X160373750Y-51740000D01*
X160861250Y-51740000D01*
X160885142Y-51741174D01*
G37*
G36*
X159010142Y-51741174D02*
G01*
X159033803Y-51744684D01*
X159057007Y-51750496D01*
X159079529Y-51758554D01*
X159101153Y-51768782D01*
X159121670Y-51781079D01*
X159140883Y-51795329D01*
X159158607Y-51811393D01*
X159174671Y-51829117D01*
X159188921Y-51848330D01*
X159201218Y-51868847D01*
X159211446Y-51890471D01*
X159219504Y-51912993D01*
X159225316Y-51936197D01*
X159228826Y-51959858D01*
X159230000Y-51983750D01*
X159230000Y-52896250D01*
X159228826Y-52920142D01*
X159225316Y-52943803D01*
X159219504Y-52967007D01*
X159211446Y-52989529D01*
X159201218Y-53011153D01*
X159188921Y-53031670D01*
X159174671Y-53050883D01*
X159158607Y-53068607D01*
X159140883Y-53084671D01*
X159121670Y-53098921D01*
X159101153Y-53111218D01*
X159079529Y-53121446D01*
X159057007Y-53129504D01*
X159033803Y-53135316D01*
X159010142Y-53138826D01*
X158986250Y-53140000D01*
X158498750Y-53140000D01*
X158474858Y-53138826D01*
X158451197Y-53135316D01*
X158427993Y-53129504D01*
X158405471Y-53121446D01*
X158383847Y-53111218D01*
X158363330Y-53098921D01*
X158344117Y-53084671D01*
X158326393Y-53068607D01*
X158310329Y-53050883D01*
X158296079Y-53031670D01*
X158283782Y-53011153D01*
X158273554Y-52989529D01*
X158265496Y-52967007D01*
X158259684Y-52943803D01*
X158256174Y-52920142D01*
X158255000Y-52896250D01*
X158255000Y-51983750D01*
X158256174Y-51959858D01*
X158259684Y-51936197D01*
X158265496Y-51912993D01*
X158273554Y-51890471D01*
X158283782Y-51868847D01*
X158296079Y-51848330D01*
X158310329Y-51829117D01*
X158326393Y-51811393D01*
X158344117Y-51795329D01*
X158363330Y-51781079D01*
X158383847Y-51768782D01*
X158405471Y-51758554D01*
X158427993Y-51750496D01*
X158451197Y-51744684D01*
X158474858Y-51741174D01*
X158498750Y-51740000D01*
X158986250Y-51740000D01*
X159010142Y-51741174D01*
G37*
G36*
X153367642Y-89711174D02*
G01*
X153391303Y-89714684D01*
X153414507Y-89720496D01*
X153437029Y-89728554D01*
X153458653Y-89738782D01*
X153479170Y-89751079D01*
X153498383Y-89765329D01*
X153516107Y-89781393D01*
X153532171Y-89799117D01*
X153546421Y-89818330D01*
X153558718Y-89838847D01*
X153568946Y-89860471D01*
X153577004Y-89882993D01*
X153582816Y-89906197D01*
X153586326Y-89929858D01*
X153587500Y-89953750D01*
X153587500Y-90866250D01*
X153586326Y-90890142D01*
X153582816Y-90913803D01*
X153577004Y-90937007D01*
X153568946Y-90959529D01*
X153558718Y-90981153D01*
X153546421Y-91001670D01*
X153532171Y-91020883D01*
X153516107Y-91038607D01*
X153498383Y-91054671D01*
X153479170Y-91068921D01*
X153458653Y-91081218D01*
X153437029Y-91091446D01*
X153414507Y-91099504D01*
X153391303Y-91105316D01*
X153367642Y-91108826D01*
X153343750Y-91110000D01*
X152856250Y-91110000D01*
X152832358Y-91108826D01*
X152808697Y-91105316D01*
X152785493Y-91099504D01*
X152762971Y-91091446D01*
X152741347Y-91081218D01*
X152720830Y-91068921D01*
X152701617Y-91054671D01*
X152683893Y-91038607D01*
X152667829Y-91020883D01*
X152653579Y-91001670D01*
X152641282Y-90981153D01*
X152631054Y-90959529D01*
X152622996Y-90937007D01*
X152617184Y-90913803D01*
X152613674Y-90890142D01*
X152612500Y-90866250D01*
X152612500Y-89953750D01*
X152613674Y-89929858D01*
X152617184Y-89906197D01*
X152622996Y-89882993D01*
X152631054Y-89860471D01*
X152641282Y-89838847D01*
X152653579Y-89818330D01*
X152667829Y-89799117D01*
X152683893Y-89781393D01*
X152701617Y-89765329D01*
X152720830Y-89751079D01*
X152741347Y-89738782D01*
X152762971Y-89728554D01*
X152785493Y-89720496D01*
X152808697Y-89714684D01*
X152832358Y-89711174D01*
X152856250Y-89710000D01*
X153343750Y-89710000D01*
X153367642Y-89711174D01*
G37*
G36*
X151492642Y-89711174D02*
G01*
X151516303Y-89714684D01*
X151539507Y-89720496D01*
X151562029Y-89728554D01*
X151583653Y-89738782D01*
X151604170Y-89751079D01*
X151623383Y-89765329D01*
X151641107Y-89781393D01*
X151657171Y-89799117D01*
X151671421Y-89818330D01*
X151683718Y-89838847D01*
X151693946Y-89860471D01*
X151702004Y-89882993D01*
X151707816Y-89906197D01*
X151711326Y-89929858D01*
X151712500Y-89953750D01*
X151712500Y-90866250D01*
X151711326Y-90890142D01*
X151707816Y-90913803D01*
X151702004Y-90937007D01*
X151693946Y-90959529D01*
X151683718Y-90981153D01*
X151671421Y-91001670D01*
X151657171Y-91020883D01*
X151641107Y-91038607D01*
X151623383Y-91054671D01*
X151604170Y-91068921D01*
X151583653Y-91081218D01*
X151562029Y-91091446D01*
X151539507Y-91099504D01*
X151516303Y-91105316D01*
X151492642Y-91108826D01*
X151468750Y-91110000D01*
X150981250Y-91110000D01*
X150957358Y-91108826D01*
X150933697Y-91105316D01*
X150910493Y-91099504D01*
X150887971Y-91091446D01*
X150866347Y-91081218D01*
X150845830Y-91068921D01*
X150826617Y-91054671D01*
X150808893Y-91038607D01*
X150792829Y-91020883D01*
X150778579Y-91001670D01*
X150766282Y-90981153D01*
X150756054Y-90959529D01*
X150747996Y-90937007D01*
X150742184Y-90913803D01*
X150738674Y-90890142D01*
X150737500Y-90866250D01*
X150737500Y-89953750D01*
X150738674Y-89929858D01*
X150742184Y-89906197D01*
X150747996Y-89882993D01*
X150756054Y-89860471D01*
X150766282Y-89838847D01*
X150778579Y-89818330D01*
X150792829Y-89799117D01*
X150808893Y-89781393D01*
X150826617Y-89765329D01*
X150845830Y-89751079D01*
X150866347Y-89738782D01*
X150887971Y-89728554D01*
X150910493Y-89720496D01*
X150933697Y-89714684D01*
X150957358Y-89711174D01*
X150981250Y-89710000D01*
X151468750Y-89710000D01*
X151492642Y-89711174D01*
G37*
G36*
X185635142Y-77861174D02*
G01*
X185658803Y-77864684D01*
X185682007Y-77870496D01*
X185704529Y-77878554D01*
X185726153Y-77888782D01*
X185746670Y-77901079D01*
X185765883Y-77915329D01*
X185783607Y-77931393D01*
X185799671Y-77949117D01*
X185813921Y-77968330D01*
X185826218Y-77988847D01*
X185836446Y-78010471D01*
X185844504Y-78032993D01*
X185850316Y-78056197D01*
X185853826Y-78079858D01*
X185855000Y-78103750D01*
X185855000Y-79016250D01*
X185853826Y-79040142D01*
X185850316Y-79063803D01*
X185844504Y-79087007D01*
X185836446Y-79109529D01*
X185826218Y-79131153D01*
X185813921Y-79151670D01*
X185799671Y-79170883D01*
X185783607Y-79188607D01*
X185765883Y-79204671D01*
X185746670Y-79218921D01*
X185726153Y-79231218D01*
X185704529Y-79241446D01*
X185682007Y-79249504D01*
X185658803Y-79255316D01*
X185635142Y-79258826D01*
X185611250Y-79260000D01*
X185123750Y-79260000D01*
X185099858Y-79258826D01*
X185076197Y-79255316D01*
X185052993Y-79249504D01*
X185030471Y-79241446D01*
X185008847Y-79231218D01*
X184988330Y-79218921D01*
X184969117Y-79204671D01*
X184951393Y-79188607D01*
X184935329Y-79170883D01*
X184921079Y-79151670D01*
X184908782Y-79131153D01*
X184898554Y-79109529D01*
X184890496Y-79087007D01*
X184884684Y-79063803D01*
X184881174Y-79040142D01*
X184880000Y-79016250D01*
X184880000Y-78103750D01*
X184881174Y-78079858D01*
X184884684Y-78056197D01*
X184890496Y-78032993D01*
X184898554Y-78010471D01*
X184908782Y-77988847D01*
X184921079Y-77968330D01*
X184935329Y-77949117D01*
X184951393Y-77931393D01*
X184969117Y-77915329D01*
X184988330Y-77901079D01*
X185008847Y-77888782D01*
X185030471Y-77878554D01*
X185052993Y-77870496D01*
X185076197Y-77864684D01*
X185099858Y-77861174D01*
X185123750Y-77860000D01*
X185611250Y-77860000D01*
X185635142Y-77861174D01*
G37*
G36*
X183760142Y-77861174D02*
G01*
X183783803Y-77864684D01*
X183807007Y-77870496D01*
X183829529Y-77878554D01*
X183851153Y-77888782D01*
X183871670Y-77901079D01*
X183890883Y-77915329D01*
X183908607Y-77931393D01*
X183924671Y-77949117D01*
X183938921Y-77968330D01*
X183951218Y-77988847D01*
X183961446Y-78010471D01*
X183969504Y-78032993D01*
X183975316Y-78056197D01*
X183978826Y-78079858D01*
X183980000Y-78103750D01*
X183980000Y-79016250D01*
X183978826Y-79040142D01*
X183975316Y-79063803D01*
X183969504Y-79087007D01*
X183961446Y-79109529D01*
X183951218Y-79131153D01*
X183938921Y-79151670D01*
X183924671Y-79170883D01*
X183908607Y-79188607D01*
X183890883Y-79204671D01*
X183871670Y-79218921D01*
X183851153Y-79231218D01*
X183829529Y-79241446D01*
X183807007Y-79249504D01*
X183783803Y-79255316D01*
X183760142Y-79258826D01*
X183736250Y-79260000D01*
X183248750Y-79260000D01*
X183224858Y-79258826D01*
X183201197Y-79255316D01*
X183177993Y-79249504D01*
X183155471Y-79241446D01*
X183133847Y-79231218D01*
X183113330Y-79218921D01*
X183094117Y-79204671D01*
X183076393Y-79188607D01*
X183060329Y-79170883D01*
X183046079Y-79151670D01*
X183033782Y-79131153D01*
X183023554Y-79109529D01*
X183015496Y-79087007D01*
X183009684Y-79063803D01*
X183006174Y-79040142D01*
X183005000Y-79016250D01*
X183005000Y-78103750D01*
X183006174Y-78079858D01*
X183009684Y-78056197D01*
X183015496Y-78032993D01*
X183023554Y-78010471D01*
X183033782Y-77988847D01*
X183046079Y-77968330D01*
X183060329Y-77949117D01*
X183076393Y-77931393D01*
X183094117Y-77915329D01*
X183113330Y-77901079D01*
X183133847Y-77888782D01*
X183155471Y-77878554D01*
X183177993Y-77870496D01*
X183201197Y-77864684D01*
X183224858Y-77861174D01*
X183248750Y-77860000D01*
X183736250Y-77860000D01*
X183760142Y-77861174D01*
G37*
G36*
X183750142Y-64551174D02*
G01*
X183773803Y-64554684D01*
X183797007Y-64560496D01*
X183819529Y-64568554D01*
X183841153Y-64578782D01*
X183861670Y-64591079D01*
X183880883Y-64605329D01*
X183898607Y-64621393D01*
X183914671Y-64639117D01*
X183928921Y-64658330D01*
X183941218Y-64678847D01*
X183951446Y-64700471D01*
X183959504Y-64722993D01*
X183965316Y-64746197D01*
X183968826Y-64769858D01*
X183970000Y-64793750D01*
X183970000Y-65706250D01*
X183968826Y-65730142D01*
X183965316Y-65753803D01*
X183959504Y-65777007D01*
X183951446Y-65799529D01*
X183941218Y-65821153D01*
X183928921Y-65841670D01*
X183914671Y-65860883D01*
X183898607Y-65878607D01*
X183880883Y-65894671D01*
X183861670Y-65908921D01*
X183841153Y-65921218D01*
X183819529Y-65931446D01*
X183797007Y-65939504D01*
X183773803Y-65945316D01*
X183750142Y-65948826D01*
X183726250Y-65950000D01*
X183238750Y-65950000D01*
X183214858Y-65948826D01*
X183191197Y-65945316D01*
X183167993Y-65939504D01*
X183145471Y-65931446D01*
X183123847Y-65921218D01*
X183103330Y-65908921D01*
X183084117Y-65894671D01*
X183066393Y-65878607D01*
X183050329Y-65860883D01*
X183036079Y-65841670D01*
X183023782Y-65821153D01*
X183013554Y-65799529D01*
X183005496Y-65777007D01*
X182999684Y-65753803D01*
X182996174Y-65730142D01*
X182995000Y-65706250D01*
X182995000Y-64793750D01*
X182996174Y-64769858D01*
X182999684Y-64746197D01*
X183005496Y-64722993D01*
X183013554Y-64700471D01*
X183023782Y-64678847D01*
X183036079Y-64658330D01*
X183050329Y-64639117D01*
X183066393Y-64621393D01*
X183084117Y-64605329D01*
X183103330Y-64591079D01*
X183123847Y-64578782D01*
X183145471Y-64568554D01*
X183167993Y-64560496D01*
X183191197Y-64554684D01*
X183214858Y-64551174D01*
X183238750Y-64550000D01*
X183726250Y-64550000D01*
X183750142Y-64551174D01*
G37*
G36*
X185625142Y-64551174D02*
G01*
X185648803Y-64554684D01*
X185672007Y-64560496D01*
X185694529Y-64568554D01*
X185716153Y-64578782D01*
X185736670Y-64591079D01*
X185755883Y-64605329D01*
X185773607Y-64621393D01*
X185789671Y-64639117D01*
X185803921Y-64658330D01*
X185816218Y-64678847D01*
X185826446Y-64700471D01*
X185834504Y-64722993D01*
X185840316Y-64746197D01*
X185843826Y-64769858D01*
X185845000Y-64793750D01*
X185845000Y-65706250D01*
X185843826Y-65730142D01*
X185840316Y-65753803D01*
X185834504Y-65777007D01*
X185826446Y-65799529D01*
X185816218Y-65821153D01*
X185803921Y-65841670D01*
X185789671Y-65860883D01*
X185773607Y-65878607D01*
X185755883Y-65894671D01*
X185736670Y-65908921D01*
X185716153Y-65921218D01*
X185694529Y-65931446D01*
X185672007Y-65939504D01*
X185648803Y-65945316D01*
X185625142Y-65948826D01*
X185601250Y-65950000D01*
X185113750Y-65950000D01*
X185089858Y-65948826D01*
X185066197Y-65945316D01*
X185042993Y-65939504D01*
X185020471Y-65931446D01*
X184998847Y-65921218D01*
X184978330Y-65908921D01*
X184959117Y-65894671D01*
X184941393Y-65878607D01*
X184925329Y-65860883D01*
X184911079Y-65841670D01*
X184898782Y-65821153D01*
X184888554Y-65799529D01*
X184880496Y-65777007D01*
X184874684Y-65753803D01*
X184871174Y-65730142D01*
X184870000Y-65706250D01*
X184870000Y-64793750D01*
X184871174Y-64769858D01*
X184874684Y-64746197D01*
X184880496Y-64722993D01*
X184888554Y-64700471D01*
X184898782Y-64678847D01*
X184911079Y-64658330D01*
X184925329Y-64639117D01*
X184941393Y-64621393D01*
X184959117Y-64605329D01*
X184978330Y-64591079D01*
X184998847Y-64578782D01*
X185020471Y-64568554D01*
X185042993Y-64560496D01*
X185066197Y-64554684D01*
X185089858Y-64551174D01*
X185113750Y-64550000D01*
X185601250Y-64550000D01*
X185625142Y-64551174D01*
G37*
D11*
X149610000Y-52000000D03*
X149610000Y-55200000D03*
X154510000Y-52000000D03*
X154510000Y-55200000D03*
D10*
G36*
X177245142Y-51721174D02*
G01*
X177268803Y-51724684D01*
X177292007Y-51730496D01*
X177314529Y-51738554D01*
X177336153Y-51748782D01*
X177356670Y-51761079D01*
X177375883Y-51775329D01*
X177393607Y-51791393D01*
X177409671Y-51809117D01*
X177423921Y-51828330D01*
X177436218Y-51848847D01*
X177446446Y-51870471D01*
X177454504Y-51892993D01*
X177460316Y-51916197D01*
X177463826Y-51939858D01*
X177465000Y-51963750D01*
X177465000Y-52876250D01*
X177463826Y-52900142D01*
X177460316Y-52923803D01*
X177454504Y-52947007D01*
X177446446Y-52969529D01*
X177436218Y-52991153D01*
X177423921Y-53011670D01*
X177409671Y-53030883D01*
X177393607Y-53048607D01*
X177375883Y-53064671D01*
X177356670Y-53078921D01*
X177336153Y-53091218D01*
X177314529Y-53101446D01*
X177292007Y-53109504D01*
X177268803Y-53115316D01*
X177245142Y-53118826D01*
X177221250Y-53120000D01*
X176733750Y-53120000D01*
X176709858Y-53118826D01*
X176686197Y-53115316D01*
X176662993Y-53109504D01*
X176640471Y-53101446D01*
X176618847Y-53091218D01*
X176598330Y-53078921D01*
X176579117Y-53064671D01*
X176561393Y-53048607D01*
X176545329Y-53030883D01*
X176531079Y-53011670D01*
X176518782Y-52991153D01*
X176508554Y-52969529D01*
X176500496Y-52947007D01*
X176494684Y-52923803D01*
X176491174Y-52900142D01*
X176490000Y-52876250D01*
X176490000Y-51963750D01*
X176491174Y-51939858D01*
X176494684Y-51916197D01*
X176500496Y-51892993D01*
X176508554Y-51870471D01*
X176518782Y-51848847D01*
X176531079Y-51828330D01*
X176545329Y-51809117D01*
X176561393Y-51791393D01*
X176579117Y-51775329D01*
X176598330Y-51761079D01*
X176618847Y-51748782D01*
X176640471Y-51738554D01*
X176662993Y-51730496D01*
X176686197Y-51724684D01*
X176709858Y-51721174D01*
X176733750Y-51720000D01*
X177221250Y-51720000D01*
X177245142Y-51721174D01*
G37*
G36*
X175370142Y-51721174D02*
G01*
X175393803Y-51724684D01*
X175417007Y-51730496D01*
X175439529Y-51738554D01*
X175461153Y-51748782D01*
X175481670Y-51761079D01*
X175500883Y-51775329D01*
X175518607Y-51791393D01*
X175534671Y-51809117D01*
X175548921Y-51828330D01*
X175561218Y-51848847D01*
X175571446Y-51870471D01*
X175579504Y-51892993D01*
X175585316Y-51916197D01*
X175588826Y-51939858D01*
X175590000Y-51963750D01*
X175590000Y-52876250D01*
X175588826Y-52900142D01*
X175585316Y-52923803D01*
X175579504Y-52947007D01*
X175571446Y-52969529D01*
X175561218Y-52991153D01*
X175548921Y-53011670D01*
X175534671Y-53030883D01*
X175518607Y-53048607D01*
X175500883Y-53064671D01*
X175481670Y-53078921D01*
X175461153Y-53091218D01*
X175439529Y-53101446D01*
X175417007Y-53109504D01*
X175393803Y-53115316D01*
X175370142Y-53118826D01*
X175346250Y-53120000D01*
X174858750Y-53120000D01*
X174834858Y-53118826D01*
X174811197Y-53115316D01*
X174787993Y-53109504D01*
X174765471Y-53101446D01*
X174743847Y-53091218D01*
X174723330Y-53078921D01*
X174704117Y-53064671D01*
X174686393Y-53048607D01*
X174670329Y-53030883D01*
X174656079Y-53011670D01*
X174643782Y-52991153D01*
X174633554Y-52969529D01*
X174625496Y-52947007D01*
X174619684Y-52923803D01*
X174616174Y-52900142D01*
X174615000Y-52876250D01*
X174615000Y-51963750D01*
X174616174Y-51939858D01*
X174619684Y-51916197D01*
X174625496Y-51892993D01*
X174633554Y-51870471D01*
X174643782Y-51848847D01*
X174656079Y-51828330D01*
X174670329Y-51809117D01*
X174686393Y-51791393D01*
X174704117Y-51775329D01*
X174723330Y-51761079D01*
X174743847Y-51748782D01*
X174765471Y-51738554D01*
X174787993Y-51730496D01*
X174811197Y-51724684D01*
X174834858Y-51721174D01*
X174858750Y-51720000D01*
X175346250Y-51720000D01*
X175370142Y-51721174D01*
G37*
D11*
X173590000Y-56000000D03*
X173590000Y-59200000D03*
X178490000Y-56000000D03*
X178490000Y-59200000D03*
D10*
G36*
X169745142Y-89751174D02*
G01*
X169768803Y-89754684D01*
X169792007Y-89760496D01*
X169814529Y-89768554D01*
X169836153Y-89778782D01*
X169856670Y-89791079D01*
X169875883Y-89805329D01*
X169893607Y-89821393D01*
X169909671Y-89839117D01*
X169923921Y-89858330D01*
X169936218Y-89878847D01*
X169946446Y-89900471D01*
X169954504Y-89922993D01*
X169960316Y-89946197D01*
X169963826Y-89969858D01*
X169965000Y-89993750D01*
X169965000Y-90906250D01*
X169963826Y-90930142D01*
X169960316Y-90953803D01*
X169954504Y-90977007D01*
X169946446Y-90999529D01*
X169936218Y-91021153D01*
X169923921Y-91041670D01*
X169909671Y-91060883D01*
X169893607Y-91078607D01*
X169875883Y-91094671D01*
X169856670Y-91108921D01*
X169836153Y-91121218D01*
X169814529Y-91131446D01*
X169792007Y-91139504D01*
X169768803Y-91145316D01*
X169745142Y-91148826D01*
X169721250Y-91150000D01*
X169233750Y-91150000D01*
X169209858Y-91148826D01*
X169186197Y-91145316D01*
X169162993Y-91139504D01*
X169140471Y-91131446D01*
X169118847Y-91121218D01*
X169098330Y-91108921D01*
X169079117Y-91094671D01*
X169061393Y-91078607D01*
X169045329Y-91060883D01*
X169031079Y-91041670D01*
X169018782Y-91021153D01*
X169008554Y-90999529D01*
X169000496Y-90977007D01*
X168994684Y-90953803D01*
X168991174Y-90930142D01*
X168990000Y-90906250D01*
X168990000Y-89993750D01*
X168991174Y-89969858D01*
X168994684Y-89946197D01*
X169000496Y-89922993D01*
X169008554Y-89900471D01*
X169018782Y-89878847D01*
X169031079Y-89858330D01*
X169045329Y-89839117D01*
X169061393Y-89821393D01*
X169079117Y-89805329D01*
X169098330Y-89791079D01*
X169118847Y-89778782D01*
X169140471Y-89768554D01*
X169162993Y-89760496D01*
X169186197Y-89754684D01*
X169209858Y-89751174D01*
X169233750Y-89750000D01*
X169721250Y-89750000D01*
X169745142Y-89751174D01*
G37*
G36*
X167870142Y-89751174D02*
G01*
X167893803Y-89754684D01*
X167917007Y-89760496D01*
X167939529Y-89768554D01*
X167961153Y-89778782D01*
X167981670Y-89791079D01*
X168000883Y-89805329D01*
X168018607Y-89821393D01*
X168034671Y-89839117D01*
X168048921Y-89858330D01*
X168061218Y-89878847D01*
X168071446Y-89900471D01*
X168079504Y-89922993D01*
X168085316Y-89946197D01*
X168088826Y-89969858D01*
X168090000Y-89993750D01*
X168090000Y-90906250D01*
X168088826Y-90930142D01*
X168085316Y-90953803D01*
X168079504Y-90977007D01*
X168071446Y-90999529D01*
X168061218Y-91021153D01*
X168048921Y-91041670D01*
X168034671Y-91060883D01*
X168018607Y-91078607D01*
X168000883Y-91094671D01*
X167981670Y-91108921D01*
X167961153Y-91121218D01*
X167939529Y-91131446D01*
X167917007Y-91139504D01*
X167893803Y-91145316D01*
X167870142Y-91148826D01*
X167846250Y-91150000D01*
X167358750Y-91150000D01*
X167334858Y-91148826D01*
X167311197Y-91145316D01*
X167287993Y-91139504D01*
X167265471Y-91131446D01*
X167243847Y-91121218D01*
X167223330Y-91108921D01*
X167204117Y-91094671D01*
X167186393Y-91078607D01*
X167170329Y-91060883D01*
X167156079Y-91041670D01*
X167143782Y-91021153D01*
X167133554Y-90999529D01*
X167125496Y-90977007D01*
X167119684Y-90953803D01*
X167116174Y-90930142D01*
X167115000Y-90906250D01*
X167115000Y-89993750D01*
X167116174Y-89969858D01*
X167119684Y-89946197D01*
X167125496Y-89922993D01*
X167133554Y-89900471D01*
X167143782Y-89878847D01*
X167156079Y-89858330D01*
X167170329Y-89839117D01*
X167186393Y-89821393D01*
X167204117Y-89805329D01*
X167223330Y-89791079D01*
X167243847Y-89778782D01*
X167265471Y-89768554D01*
X167287993Y-89760496D01*
X167311197Y-89754684D01*
X167334858Y-89751174D01*
X167358750Y-89750000D01*
X167846250Y-89750000D01*
X167870142Y-89751174D01*
G37*
G36*
X144030142Y-77248674D02*
G01*
X144053803Y-77252184D01*
X144077007Y-77257996D01*
X144099529Y-77266054D01*
X144121153Y-77276282D01*
X144141670Y-77288579D01*
X144160883Y-77302829D01*
X144178607Y-77318893D01*
X144194671Y-77336617D01*
X144208921Y-77355830D01*
X144221218Y-77376347D01*
X144231446Y-77397971D01*
X144239504Y-77420493D01*
X144245316Y-77443697D01*
X144248826Y-77467358D01*
X144250000Y-77491250D01*
X144250000Y-77978750D01*
X144248826Y-78002642D01*
X144245316Y-78026303D01*
X144239504Y-78049507D01*
X144231446Y-78072029D01*
X144221218Y-78093653D01*
X144208921Y-78114170D01*
X144194671Y-78133383D01*
X144178607Y-78151107D01*
X144160883Y-78167171D01*
X144141670Y-78181421D01*
X144121153Y-78193718D01*
X144099529Y-78203946D01*
X144077007Y-78212004D01*
X144053803Y-78217816D01*
X144030142Y-78221326D01*
X144006250Y-78222500D01*
X143093750Y-78222500D01*
X143069858Y-78221326D01*
X143046197Y-78217816D01*
X143022993Y-78212004D01*
X143000471Y-78203946D01*
X142978847Y-78193718D01*
X142958330Y-78181421D01*
X142939117Y-78167171D01*
X142921393Y-78151107D01*
X142905329Y-78133383D01*
X142891079Y-78114170D01*
X142878782Y-78093653D01*
X142868554Y-78072029D01*
X142860496Y-78049507D01*
X142854684Y-78026303D01*
X142851174Y-78002642D01*
X142850000Y-77978750D01*
X142850000Y-77491250D01*
X142851174Y-77467358D01*
X142854684Y-77443697D01*
X142860496Y-77420493D01*
X142868554Y-77397971D01*
X142878782Y-77376347D01*
X142891079Y-77355830D01*
X142905329Y-77336617D01*
X142921393Y-77318893D01*
X142939117Y-77302829D01*
X142958330Y-77288579D01*
X142978847Y-77276282D01*
X143000471Y-77266054D01*
X143022993Y-77257996D01*
X143046197Y-77252184D01*
X143069858Y-77248674D01*
X143093750Y-77247500D01*
X144006250Y-77247500D01*
X144030142Y-77248674D01*
G37*
G36*
X144030142Y-79123674D02*
G01*
X144053803Y-79127184D01*
X144077007Y-79132996D01*
X144099529Y-79141054D01*
X144121153Y-79151282D01*
X144141670Y-79163579D01*
X144160883Y-79177829D01*
X144178607Y-79193893D01*
X144194671Y-79211617D01*
X144208921Y-79230830D01*
X144221218Y-79251347D01*
X144231446Y-79272971D01*
X144239504Y-79295493D01*
X144245316Y-79318697D01*
X144248826Y-79342358D01*
X144250000Y-79366250D01*
X144250000Y-79853750D01*
X144248826Y-79877642D01*
X144245316Y-79901303D01*
X144239504Y-79924507D01*
X144231446Y-79947029D01*
X144221218Y-79968653D01*
X144208921Y-79989170D01*
X144194671Y-80008383D01*
X144178607Y-80026107D01*
X144160883Y-80042171D01*
X144141670Y-80056421D01*
X144121153Y-80068718D01*
X144099529Y-80078946D01*
X144077007Y-80087004D01*
X144053803Y-80092816D01*
X144030142Y-80096326D01*
X144006250Y-80097500D01*
X143093750Y-80097500D01*
X143069858Y-80096326D01*
X143046197Y-80092816D01*
X143022993Y-80087004D01*
X143000471Y-80078946D01*
X142978847Y-80068718D01*
X142958330Y-80056421D01*
X142939117Y-80042171D01*
X142921393Y-80026107D01*
X142905329Y-80008383D01*
X142891079Y-79989170D01*
X142878782Y-79968653D01*
X142868554Y-79947029D01*
X142860496Y-79924507D01*
X142854684Y-79901303D01*
X142851174Y-79877642D01*
X142850000Y-79853750D01*
X142850000Y-79366250D01*
X142851174Y-79342358D01*
X142854684Y-79318697D01*
X142860496Y-79295493D01*
X142868554Y-79272971D01*
X142878782Y-79251347D01*
X142891079Y-79230830D01*
X142905329Y-79211617D01*
X142921393Y-79193893D01*
X142939117Y-79177829D01*
X142958330Y-79163579D01*
X142978847Y-79151282D01*
X143000471Y-79141054D01*
X143022993Y-79132996D01*
X143046197Y-79127184D01*
X143069858Y-79123674D01*
X143093750Y-79122500D01*
X144006250Y-79122500D01*
X144030142Y-79123674D01*
G37*
D11*
X165610000Y-51990000D03*
X165610000Y-55190000D03*
X170510000Y-51990000D03*
X170510000Y-55190000D03*
X149610000Y-68000000D03*
X149610000Y-71200000D03*
X154510000Y-68000000D03*
X154510000Y-71200000D03*
X173620000Y-87990000D03*
X173620000Y-91190000D03*
X178520000Y-87990000D03*
X178520000Y-91190000D03*
X173620000Y-64000000D03*
X173620000Y-67200000D03*
X178520000Y-64000000D03*
X178520000Y-67200000D03*
X149610000Y-75990000D03*
X149610000Y-79190000D03*
X154510000Y-75990000D03*
X154510000Y-79190000D03*
X157600000Y-55980000D03*
X157600000Y-59180000D03*
X162500000Y-55980000D03*
X162500000Y-59180000D03*
X157600000Y-80000000D03*
X157600000Y-83200000D03*
X162500000Y-80000000D03*
X162500000Y-83200000D03*
X157600000Y-64000000D03*
X157600000Y-67200000D03*
X162500000Y-64000000D03*
X162500000Y-67200000D03*
X165610000Y-59980000D03*
X165610000Y-63180000D03*
X170510000Y-59980000D03*
X170510000Y-63180000D03*
X173620000Y-71990000D03*
X173620000Y-75190000D03*
X178520000Y-71990000D03*
X178520000Y-75190000D03*
X157620000Y-87990000D03*
X157620000Y-91190000D03*
X162520000Y-87990000D03*
X162520000Y-91190000D03*
X165610000Y-84000000D03*
X165610000Y-87200000D03*
X170510000Y-84000000D03*
X170510000Y-87200000D03*
X149610000Y-60000000D03*
X149610000Y-63200000D03*
X154510000Y-60000000D03*
X154510000Y-63200000D03*
X157610000Y-72000000D03*
X157610000Y-75200000D03*
X162510000Y-72000000D03*
X162510000Y-75200000D03*
D10*
G36*
X144040142Y-62976174D02*
G01*
X144063803Y-62979684D01*
X144087007Y-62985496D01*
X144109529Y-62993554D01*
X144131153Y-63003782D01*
X144151670Y-63016079D01*
X144170883Y-63030329D01*
X144188607Y-63046393D01*
X144204671Y-63064117D01*
X144218921Y-63083330D01*
X144231218Y-63103847D01*
X144241446Y-63125471D01*
X144249504Y-63147993D01*
X144255316Y-63171197D01*
X144258826Y-63194858D01*
X144260000Y-63218750D01*
X144260000Y-63706250D01*
X144258826Y-63730142D01*
X144255316Y-63753803D01*
X144249504Y-63777007D01*
X144241446Y-63799529D01*
X144231218Y-63821153D01*
X144218921Y-63841670D01*
X144204671Y-63860883D01*
X144188607Y-63878607D01*
X144170883Y-63894671D01*
X144151670Y-63908921D01*
X144131153Y-63921218D01*
X144109529Y-63931446D01*
X144087007Y-63939504D01*
X144063803Y-63945316D01*
X144040142Y-63948826D01*
X144016250Y-63950000D01*
X143103750Y-63950000D01*
X143079858Y-63948826D01*
X143056197Y-63945316D01*
X143032993Y-63939504D01*
X143010471Y-63931446D01*
X142988847Y-63921218D01*
X142968330Y-63908921D01*
X142949117Y-63894671D01*
X142931393Y-63878607D01*
X142915329Y-63860883D01*
X142901079Y-63841670D01*
X142888782Y-63821153D01*
X142878554Y-63799529D01*
X142870496Y-63777007D01*
X142864684Y-63753803D01*
X142861174Y-63730142D01*
X142860000Y-63706250D01*
X142860000Y-63218750D01*
X142861174Y-63194858D01*
X142864684Y-63171197D01*
X142870496Y-63147993D01*
X142878554Y-63125471D01*
X142888782Y-63103847D01*
X142901079Y-63083330D01*
X142915329Y-63064117D01*
X142931393Y-63046393D01*
X142949117Y-63030329D01*
X142968330Y-63016079D01*
X142988847Y-63003782D01*
X143010471Y-62993554D01*
X143032993Y-62985496D01*
X143056197Y-62979684D01*
X143079858Y-62976174D01*
X143103750Y-62975000D01*
X144016250Y-62975000D01*
X144040142Y-62976174D01*
G37*
G36*
X144040142Y-64851174D02*
G01*
X144063803Y-64854684D01*
X144087007Y-64860496D01*
X144109529Y-64868554D01*
X144131153Y-64878782D01*
X144151670Y-64891079D01*
X144170883Y-64905329D01*
X144188607Y-64921393D01*
X144204671Y-64939117D01*
X144218921Y-64958330D01*
X144231218Y-64978847D01*
X144241446Y-65000471D01*
X144249504Y-65022993D01*
X144255316Y-65046197D01*
X144258826Y-65069858D01*
X144260000Y-65093750D01*
X144260000Y-65581250D01*
X144258826Y-65605142D01*
X144255316Y-65628803D01*
X144249504Y-65652007D01*
X144241446Y-65674529D01*
X144231218Y-65696153D01*
X144218921Y-65716670D01*
X144204671Y-65735883D01*
X144188607Y-65753607D01*
X144170883Y-65769671D01*
X144151670Y-65783921D01*
X144131153Y-65796218D01*
X144109529Y-65806446D01*
X144087007Y-65814504D01*
X144063803Y-65820316D01*
X144040142Y-65823826D01*
X144016250Y-65825000D01*
X143103750Y-65825000D01*
X143079858Y-65823826D01*
X143056197Y-65820316D01*
X143032993Y-65814504D01*
X143010471Y-65806446D01*
X142988847Y-65796218D01*
X142968330Y-65783921D01*
X142949117Y-65769671D01*
X142931393Y-65753607D01*
X142915329Y-65735883D01*
X142901079Y-65716670D01*
X142888782Y-65696153D01*
X142878554Y-65674529D01*
X142870496Y-65652007D01*
X142864684Y-65628803D01*
X142861174Y-65605142D01*
X142860000Y-65581250D01*
X142860000Y-65093750D01*
X142861174Y-65069858D01*
X142864684Y-65046197D01*
X142870496Y-65022993D01*
X142878554Y-65000471D01*
X142888782Y-64978847D01*
X142901079Y-64958330D01*
X142915329Y-64939117D01*
X142931393Y-64921393D01*
X142949117Y-64905329D01*
X142968330Y-64891079D01*
X142988847Y-64878782D01*
X143010471Y-64868554D01*
X143032993Y-64860496D01*
X143056197Y-64854684D01*
X143079858Y-64851174D01*
X143103750Y-64850000D01*
X144016250Y-64850000D01*
X144040142Y-64851174D01*
G37*
D11*
X173610000Y-79990000D03*
X173610000Y-83190000D03*
X178510000Y-79990000D03*
X178510000Y-83190000D03*
X149590000Y-83980000D03*
X149590000Y-87180000D03*
X154490000Y-83980000D03*
X154490000Y-87180000D03*
X165610000Y-76000000D03*
X165610000Y-79200000D03*
X170510000Y-76000000D03*
X170510000Y-79200000D03*
X165600000Y-67990000D03*
X165600000Y-71190000D03*
X170500000Y-67990000D03*
X170500000Y-71190000D03*
D10*
G36*
X108790142Y-51741174D02*
G01*
X108813803Y-51744684D01*
X108837007Y-51750496D01*
X108859529Y-51758554D01*
X108881153Y-51768782D01*
X108901670Y-51781079D01*
X108920883Y-51795329D01*
X108938607Y-51811393D01*
X108954671Y-51829117D01*
X108968921Y-51848330D01*
X108981218Y-51868847D01*
X108991446Y-51890471D01*
X108999504Y-51912993D01*
X109005316Y-51936197D01*
X109008826Y-51959858D01*
X109010000Y-51983750D01*
X109010000Y-52896250D01*
X109008826Y-52920142D01*
X109005316Y-52943803D01*
X108999504Y-52967007D01*
X108991446Y-52989529D01*
X108981218Y-53011153D01*
X108968921Y-53031670D01*
X108954671Y-53050883D01*
X108938607Y-53068607D01*
X108920883Y-53084671D01*
X108901670Y-53098921D01*
X108881153Y-53111218D01*
X108859529Y-53121446D01*
X108837007Y-53129504D01*
X108813803Y-53135316D01*
X108790142Y-53138826D01*
X108766250Y-53140000D01*
X108278750Y-53140000D01*
X108254858Y-53138826D01*
X108231197Y-53135316D01*
X108207993Y-53129504D01*
X108185471Y-53121446D01*
X108163847Y-53111218D01*
X108143330Y-53098921D01*
X108124117Y-53084671D01*
X108106393Y-53068607D01*
X108090329Y-53050883D01*
X108076079Y-53031670D01*
X108063782Y-53011153D01*
X108053554Y-52989529D01*
X108045496Y-52967007D01*
X108039684Y-52943803D01*
X108036174Y-52920142D01*
X108035000Y-52896250D01*
X108035000Y-51983750D01*
X108036174Y-51959858D01*
X108039684Y-51936197D01*
X108045496Y-51912993D01*
X108053554Y-51890471D01*
X108063782Y-51868847D01*
X108076079Y-51848330D01*
X108090329Y-51829117D01*
X108106393Y-51811393D01*
X108124117Y-51795329D01*
X108143330Y-51781079D01*
X108163847Y-51768782D01*
X108185471Y-51758554D01*
X108207993Y-51750496D01*
X108231197Y-51744684D01*
X108254858Y-51741174D01*
X108278750Y-51740000D01*
X108766250Y-51740000D01*
X108790142Y-51741174D01*
G37*
G36*
X110665142Y-51741174D02*
G01*
X110688803Y-51744684D01*
X110712007Y-51750496D01*
X110734529Y-51758554D01*
X110756153Y-51768782D01*
X110776670Y-51781079D01*
X110795883Y-51795329D01*
X110813607Y-51811393D01*
X110829671Y-51829117D01*
X110843921Y-51848330D01*
X110856218Y-51868847D01*
X110866446Y-51890471D01*
X110874504Y-51912993D01*
X110880316Y-51936197D01*
X110883826Y-51959858D01*
X110885000Y-51983750D01*
X110885000Y-52896250D01*
X110883826Y-52920142D01*
X110880316Y-52943803D01*
X110874504Y-52967007D01*
X110866446Y-52989529D01*
X110856218Y-53011153D01*
X110843921Y-53031670D01*
X110829671Y-53050883D01*
X110813607Y-53068607D01*
X110795883Y-53084671D01*
X110776670Y-53098921D01*
X110756153Y-53111218D01*
X110734529Y-53121446D01*
X110712007Y-53129504D01*
X110688803Y-53135316D01*
X110665142Y-53138826D01*
X110641250Y-53140000D01*
X110153750Y-53140000D01*
X110129858Y-53138826D01*
X110106197Y-53135316D01*
X110082993Y-53129504D01*
X110060471Y-53121446D01*
X110038847Y-53111218D01*
X110018330Y-53098921D01*
X109999117Y-53084671D01*
X109981393Y-53068607D01*
X109965329Y-53050883D01*
X109951079Y-53031670D01*
X109938782Y-53011153D01*
X109928554Y-52989529D01*
X109920496Y-52967007D01*
X109914684Y-52943803D01*
X109911174Y-52920142D01*
X109910000Y-52896250D01*
X109910000Y-51983750D01*
X109911174Y-51959858D01*
X109914684Y-51936197D01*
X109920496Y-51912993D01*
X109928554Y-51890471D01*
X109938782Y-51868847D01*
X109951079Y-51848330D01*
X109965329Y-51829117D01*
X109981393Y-51811393D01*
X109999117Y-51795329D01*
X110018330Y-51781079D01*
X110038847Y-51768782D01*
X110060471Y-51758554D01*
X110082993Y-51750496D01*
X110106197Y-51744684D01*
X110129858Y-51741174D01*
X110153750Y-51740000D01*
X110641250Y-51740000D01*
X110665142Y-51741174D01*
G37*
G36*
X117650142Y-89751174D02*
G01*
X117673803Y-89754684D01*
X117697007Y-89760496D01*
X117719529Y-89768554D01*
X117741153Y-89778782D01*
X117761670Y-89791079D01*
X117780883Y-89805329D01*
X117798607Y-89821393D01*
X117814671Y-89839117D01*
X117828921Y-89858330D01*
X117841218Y-89878847D01*
X117851446Y-89900471D01*
X117859504Y-89922993D01*
X117865316Y-89946197D01*
X117868826Y-89969858D01*
X117870000Y-89993750D01*
X117870000Y-90906250D01*
X117868826Y-90930142D01*
X117865316Y-90953803D01*
X117859504Y-90977007D01*
X117851446Y-90999529D01*
X117841218Y-91021153D01*
X117828921Y-91041670D01*
X117814671Y-91060883D01*
X117798607Y-91078607D01*
X117780883Y-91094671D01*
X117761670Y-91108921D01*
X117741153Y-91121218D01*
X117719529Y-91131446D01*
X117697007Y-91139504D01*
X117673803Y-91145316D01*
X117650142Y-91148826D01*
X117626250Y-91150000D01*
X117138750Y-91150000D01*
X117114858Y-91148826D01*
X117091197Y-91145316D01*
X117067993Y-91139504D01*
X117045471Y-91131446D01*
X117023847Y-91121218D01*
X117003330Y-91108921D01*
X116984117Y-91094671D01*
X116966393Y-91078607D01*
X116950329Y-91060883D01*
X116936079Y-91041670D01*
X116923782Y-91021153D01*
X116913554Y-90999529D01*
X116905496Y-90977007D01*
X116899684Y-90953803D01*
X116896174Y-90930142D01*
X116895000Y-90906250D01*
X116895000Y-89993750D01*
X116896174Y-89969858D01*
X116899684Y-89946197D01*
X116905496Y-89922993D01*
X116913554Y-89900471D01*
X116923782Y-89878847D01*
X116936079Y-89858330D01*
X116950329Y-89839117D01*
X116966393Y-89821393D01*
X116984117Y-89805329D01*
X117003330Y-89791079D01*
X117023847Y-89778782D01*
X117045471Y-89768554D01*
X117067993Y-89760496D01*
X117091197Y-89754684D01*
X117114858Y-89751174D01*
X117138750Y-89750000D01*
X117626250Y-89750000D01*
X117650142Y-89751174D01*
G37*
G36*
X119525142Y-89751174D02*
G01*
X119548803Y-89754684D01*
X119572007Y-89760496D01*
X119594529Y-89768554D01*
X119616153Y-89778782D01*
X119636670Y-89791079D01*
X119655883Y-89805329D01*
X119673607Y-89821393D01*
X119689671Y-89839117D01*
X119703921Y-89858330D01*
X119716218Y-89878847D01*
X119726446Y-89900471D01*
X119734504Y-89922993D01*
X119740316Y-89946197D01*
X119743826Y-89969858D01*
X119745000Y-89993750D01*
X119745000Y-90906250D01*
X119743826Y-90930142D01*
X119740316Y-90953803D01*
X119734504Y-90977007D01*
X119726446Y-90999529D01*
X119716218Y-91021153D01*
X119703921Y-91041670D01*
X119689671Y-91060883D01*
X119673607Y-91078607D01*
X119655883Y-91094671D01*
X119636670Y-91108921D01*
X119616153Y-91121218D01*
X119594529Y-91131446D01*
X119572007Y-91139504D01*
X119548803Y-91145316D01*
X119525142Y-91148826D01*
X119501250Y-91150000D01*
X119013750Y-91150000D01*
X118989858Y-91148826D01*
X118966197Y-91145316D01*
X118942993Y-91139504D01*
X118920471Y-91131446D01*
X118898847Y-91121218D01*
X118878330Y-91108921D01*
X118859117Y-91094671D01*
X118841393Y-91078607D01*
X118825329Y-91060883D01*
X118811079Y-91041670D01*
X118798782Y-91021153D01*
X118788554Y-90999529D01*
X118780496Y-90977007D01*
X118774684Y-90953803D01*
X118771174Y-90930142D01*
X118770000Y-90906250D01*
X118770000Y-89993750D01*
X118771174Y-89969858D01*
X118774684Y-89946197D01*
X118780496Y-89922993D01*
X118788554Y-89900471D01*
X118798782Y-89878847D01*
X118811079Y-89858330D01*
X118825329Y-89839117D01*
X118841393Y-89821393D01*
X118859117Y-89805329D01*
X118878330Y-89791079D01*
X118898847Y-89778782D01*
X118920471Y-89768554D01*
X118942993Y-89760496D01*
X118966197Y-89754684D01*
X118989858Y-89751174D01*
X119013750Y-89750000D01*
X119501250Y-89750000D01*
X119525142Y-89751174D01*
G37*
G36*
X93810142Y-79123674D02*
G01*
X93833803Y-79127184D01*
X93857007Y-79132996D01*
X93879529Y-79141054D01*
X93901153Y-79151282D01*
X93921670Y-79163579D01*
X93940883Y-79177829D01*
X93958607Y-79193893D01*
X93974671Y-79211617D01*
X93988921Y-79230830D01*
X94001218Y-79251347D01*
X94011446Y-79272971D01*
X94019504Y-79295493D01*
X94025316Y-79318697D01*
X94028826Y-79342358D01*
X94030000Y-79366250D01*
X94030000Y-79853750D01*
X94028826Y-79877642D01*
X94025316Y-79901303D01*
X94019504Y-79924507D01*
X94011446Y-79947029D01*
X94001218Y-79968653D01*
X93988921Y-79989170D01*
X93974671Y-80008383D01*
X93958607Y-80026107D01*
X93940883Y-80042171D01*
X93921670Y-80056421D01*
X93901153Y-80068718D01*
X93879529Y-80078946D01*
X93857007Y-80087004D01*
X93833803Y-80092816D01*
X93810142Y-80096326D01*
X93786250Y-80097500D01*
X92873750Y-80097500D01*
X92849858Y-80096326D01*
X92826197Y-80092816D01*
X92802993Y-80087004D01*
X92780471Y-80078946D01*
X92758847Y-80068718D01*
X92738330Y-80056421D01*
X92719117Y-80042171D01*
X92701393Y-80026107D01*
X92685329Y-80008383D01*
X92671079Y-79989170D01*
X92658782Y-79968653D01*
X92648554Y-79947029D01*
X92640496Y-79924507D01*
X92634684Y-79901303D01*
X92631174Y-79877642D01*
X92630000Y-79853750D01*
X92630000Y-79366250D01*
X92631174Y-79342358D01*
X92634684Y-79318697D01*
X92640496Y-79295493D01*
X92648554Y-79272971D01*
X92658782Y-79251347D01*
X92671079Y-79230830D01*
X92685329Y-79211617D01*
X92701393Y-79193893D01*
X92719117Y-79177829D01*
X92738330Y-79163579D01*
X92758847Y-79151282D01*
X92780471Y-79141054D01*
X92802993Y-79132996D01*
X92826197Y-79127184D01*
X92849858Y-79123674D01*
X92873750Y-79122500D01*
X93786250Y-79122500D01*
X93810142Y-79123674D01*
G37*
G36*
X93810142Y-77248674D02*
G01*
X93833803Y-77252184D01*
X93857007Y-77257996D01*
X93879529Y-77266054D01*
X93901153Y-77276282D01*
X93921670Y-77288579D01*
X93940883Y-77302829D01*
X93958607Y-77318893D01*
X93974671Y-77336617D01*
X93988921Y-77355830D01*
X94001218Y-77376347D01*
X94011446Y-77397971D01*
X94019504Y-77420493D01*
X94025316Y-77443697D01*
X94028826Y-77467358D01*
X94030000Y-77491250D01*
X94030000Y-77978750D01*
X94028826Y-78002642D01*
X94025316Y-78026303D01*
X94019504Y-78049507D01*
X94011446Y-78072029D01*
X94001218Y-78093653D01*
X93988921Y-78114170D01*
X93974671Y-78133383D01*
X93958607Y-78151107D01*
X93940883Y-78167171D01*
X93921670Y-78181421D01*
X93901153Y-78193718D01*
X93879529Y-78203946D01*
X93857007Y-78212004D01*
X93833803Y-78217816D01*
X93810142Y-78221326D01*
X93786250Y-78222500D01*
X92873750Y-78222500D01*
X92849858Y-78221326D01*
X92826197Y-78217816D01*
X92802993Y-78212004D01*
X92780471Y-78203946D01*
X92758847Y-78193718D01*
X92738330Y-78181421D01*
X92719117Y-78167171D01*
X92701393Y-78151107D01*
X92685329Y-78133383D01*
X92671079Y-78114170D01*
X92658782Y-78093653D01*
X92648554Y-78072029D01*
X92640496Y-78049507D01*
X92634684Y-78026303D01*
X92631174Y-78002642D01*
X92630000Y-77978750D01*
X92630000Y-77491250D01*
X92631174Y-77467358D01*
X92634684Y-77443697D01*
X92640496Y-77420493D01*
X92648554Y-77397971D01*
X92658782Y-77376347D01*
X92671079Y-77355830D01*
X92685329Y-77336617D01*
X92701393Y-77318893D01*
X92719117Y-77302829D01*
X92738330Y-77288579D01*
X92758847Y-77276282D01*
X92780471Y-77266054D01*
X92802993Y-77257996D01*
X92826197Y-77252184D01*
X92849858Y-77248674D01*
X92873750Y-77247500D01*
X93786250Y-77247500D01*
X93810142Y-77248674D01*
G37*
G36*
X133540142Y-77861174D02*
G01*
X133563803Y-77864684D01*
X133587007Y-77870496D01*
X133609529Y-77878554D01*
X133631153Y-77888782D01*
X133651670Y-77901079D01*
X133670883Y-77915329D01*
X133688607Y-77931393D01*
X133704671Y-77949117D01*
X133718921Y-77968330D01*
X133731218Y-77988847D01*
X133741446Y-78010471D01*
X133749504Y-78032993D01*
X133755316Y-78056197D01*
X133758826Y-78079858D01*
X133760000Y-78103750D01*
X133760000Y-79016250D01*
X133758826Y-79040142D01*
X133755316Y-79063803D01*
X133749504Y-79087007D01*
X133741446Y-79109529D01*
X133731218Y-79131153D01*
X133718921Y-79151670D01*
X133704671Y-79170883D01*
X133688607Y-79188607D01*
X133670883Y-79204671D01*
X133651670Y-79218921D01*
X133631153Y-79231218D01*
X133609529Y-79241446D01*
X133587007Y-79249504D01*
X133563803Y-79255316D01*
X133540142Y-79258826D01*
X133516250Y-79260000D01*
X133028750Y-79260000D01*
X133004858Y-79258826D01*
X132981197Y-79255316D01*
X132957993Y-79249504D01*
X132935471Y-79241446D01*
X132913847Y-79231218D01*
X132893330Y-79218921D01*
X132874117Y-79204671D01*
X132856393Y-79188607D01*
X132840329Y-79170883D01*
X132826079Y-79151670D01*
X132813782Y-79131153D01*
X132803554Y-79109529D01*
X132795496Y-79087007D01*
X132789684Y-79063803D01*
X132786174Y-79040142D01*
X132785000Y-79016250D01*
X132785000Y-78103750D01*
X132786174Y-78079858D01*
X132789684Y-78056197D01*
X132795496Y-78032993D01*
X132803554Y-78010471D01*
X132813782Y-77988847D01*
X132826079Y-77968330D01*
X132840329Y-77949117D01*
X132856393Y-77931393D01*
X132874117Y-77915329D01*
X132893330Y-77901079D01*
X132913847Y-77888782D01*
X132935471Y-77878554D01*
X132957993Y-77870496D01*
X132981197Y-77864684D01*
X133004858Y-77861174D01*
X133028750Y-77860000D01*
X133516250Y-77860000D01*
X133540142Y-77861174D01*
G37*
G36*
X135415142Y-77861174D02*
G01*
X135438803Y-77864684D01*
X135462007Y-77870496D01*
X135484529Y-77878554D01*
X135506153Y-77888782D01*
X135526670Y-77901079D01*
X135545883Y-77915329D01*
X135563607Y-77931393D01*
X135579671Y-77949117D01*
X135593921Y-77968330D01*
X135606218Y-77988847D01*
X135616446Y-78010471D01*
X135624504Y-78032993D01*
X135630316Y-78056197D01*
X135633826Y-78079858D01*
X135635000Y-78103750D01*
X135635000Y-79016250D01*
X135633826Y-79040142D01*
X135630316Y-79063803D01*
X135624504Y-79087007D01*
X135616446Y-79109529D01*
X135606218Y-79131153D01*
X135593921Y-79151670D01*
X135579671Y-79170883D01*
X135563607Y-79188607D01*
X135545883Y-79204671D01*
X135526670Y-79218921D01*
X135506153Y-79231218D01*
X135484529Y-79241446D01*
X135462007Y-79249504D01*
X135438803Y-79255316D01*
X135415142Y-79258826D01*
X135391250Y-79260000D01*
X134903750Y-79260000D01*
X134879858Y-79258826D01*
X134856197Y-79255316D01*
X134832993Y-79249504D01*
X134810471Y-79241446D01*
X134788847Y-79231218D01*
X134768330Y-79218921D01*
X134749117Y-79204671D01*
X134731393Y-79188607D01*
X134715329Y-79170883D01*
X134701079Y-79151670D01*
X134688782Y-79131153D01*
X134678554Y-79109529D01*
X134670496Y-79087007D01*
X134664684Y-79063803D01*
X134661174Y-79040142D01*
X134660000Y-79016250D01*
X134660000Y-78103750D01*
X134661174Y-78079858D01*
X134664684Y-78056197D01*
X134670496Y-78032993D01*
X134678554Y-78010471D01*
X134688782Y-77988847D01*
X134701079Y-77968330D01*
X134715329Y-77949117D01*
X134731393Y-77931393D01*
X134749117Y-77915329D01*
X134768330Y-77901079D01*
X134788847Y-77888782D01*
X134810471Y-77878554D01*
X134832993Y-77870496D01*
X134856197Y-77864684D01*
X134879858Y-77861174D01*
X134903750Y-77860000D01*
X135391250Y-77860000D01*
X135415142Y-77861174D01*
G37*
G36*
X101272642Y-89711174D02*
G01*
X101296303Y-89714684D01*
X101319507Y-89720496D01*
X101342029Y-89728554D01*
X101363653Y-89738782D01*
X101384170Y-89751079D01*
X101403383Y-89765329D01*
X101421107Y-89781393D01*
X101437171Y-89799117D01*
X101451421Y-89818330D01*
X101463718Y-89838847D01*
X101473946Y-89860471D01*
X101482004Y-89882993D01*
X101487816Y-89906197D01*
X101491326Y-89929858D01*
X101492500Y-89953750D01*
X101492500Y-90866250D01*
X101491326Y-90890142D01*
X101487816Y-90913803D01*
X101482004Y-90937007D01*
X101473946Y-90959529D01*
X101463718Y-90981153D01*
X101451421Y-91001670D01*
X101437171Y-91020883D01*
X101421107Y-91038607D01*
X101403383Y-91054671D01*
X101384170Y-91068921D01*
X101363653Y-91081218D01*
X101342029Y-91091446D01*
X101319507Y-91099504D01*
X101296303Y-91105316D01*
X101272642Y-91108826D01*
X101248750Y-91110000D01*
X100761250Y-91110000D01*
X100737358Y-91108826D01*
X100713697Y-91105316D01*
X100690493Y-91099504D01*
X100667971Y-91091446D01*
X100646347Y-91081218D01*
X100625830Y-91068921D01*
X100606617Y-91054671D01*
X100588893Y-91038607D01*
X100572829Y-91020883D01*
X100558579Y-91001670D01*
X100546282Y-90981153D01*
X100536054Y-90959529D01*
X100527996Y-90937007D01*
X100522184Y-90913803D01*
X100518674Y-90890142D01*
X100517500Y-90866250D01*
X100517500Y-89953750D01*
X100518674Y-89929858D01*
X100522184Y-89906197D01*
X100527996Y-89882993D01*
X100536054Y-89860471D01*
X100546282Y-89838847D01*
X100558579Y-89818330D01*
X100572829Y-89799117D01*
X100588893Y-89781393D01*
X100606617Y-89765329D01*
X100625830Y-89751079D01*
X100646347Y-89738782D01*
X100667971Y-89728554D01*
X100690493Y-89720496D01*
X100713697Y-89714684D01*
X100737358Y-89711174D01*
X100761250Y-89710000D01*
X101248750Y-89710000D01*
X101272642Y-89711174D01*
G37*
G36*
X103147642Y-89711174D02*
G01*
X103171303Y-89714684D01*
X103194507Y-89720496D01*
X103217029Y-89728554D01*
X103238653Y-89738782D01*
X103259170Y-89751079D01*
X103278383Y-89765329D01*
X103296107Y-89781393D01*
X103312171Y-89799117D01*
X103326421Y-89818330D01*
X103338718Y-89838847D01*
X103348946Y-89860471D01*
X103357004Y-89882993D01*
X103362816Y-89906197D01*
X103366326Y-89929858D01*
X103367500Y-89953750D01*
X103367500Y-90866250D01*
X103366326Y-90890142D01*
X103362816Y-90913803D01*
X103357004Y-90937007D01*
X103348946Y-90959529D01*
X103338718Y-90981153D01*
X103326421Y-91001670D01*
X103312171Y-91020883D01*
X103296107Y-91038607D01*
X103278383Y-91054671D01*
X103259170Y-91068921D01*
X103238653Y-91081218D01*
X103217029Y-91091446D01*
X103194507Y-91099504D01*
X103171303Y-91105316D01*
X103147642Y-91108826D01*
X103123750Y-91110000D01*
X102636250Y-91110000D01*
X102612358Y-91108826D01*
X102588697Y-91105316D01*
X102565493Y-91099504D01*
X102542971Y-91091446D01*
X102521347Y-91081218D01*
X102500830Y-91068921D01*
X102481617Y-91054671D01*
X102463893Y-91038607D01*
X102447829Y-91020883D01*
X102433579Y-91001670D01*
X102421282Y-90981153D01*
X102411054Y-90959529D01*
X102402996Y-90937007D01*
X102397184Y-90913803D01*
X102393674Y-90890142D01*
X102392500Y-90866250D01*
X102392500Y-89953750D01*
X102393674Y-89929858D01*
X102397184Y-89906197D01*
X102402996Y-89882993D01*
X102411054Y-89860471D01*
X102421282Y-89838847D01*
X102433579Y-89818330D01*
X102447829Y-89799117D01*
X102463893Y-89781393D01*
X102481617Y-89765329D01*
X102500830Y-89751079D01*
X102521347Y-89738782D01*
X102542971Y-89728554D01*
X102565493Y-89720496D01*
X102588697Y-89714684D01*
X102612358Y-89711174D01*
X102636250Y-89710000D01*
X103123750Y-89710000D01*
X103147642Y-89711174D01*
G37*
G36*
X135405142Y-64551174D02*
G01*
X135428803Y-64554684D01*
X135452007Y-64560496D01*
X135474529Y-64568554D01*
X135496153Y-64578782D01*
X135516670Y-64591079D01*
X135535883Y-64605329D01*
X135553607Y-64621393D01*
X135569671Y-64639117D01*
X135583921Y-64658330D01*
X135596218Y-64678847D01*
X135606446Y-64700471D01*
X135614504Y-64722993D01*
X135620316Y-64746197D01*
X135623826Y-64769858D01*
X135625000Y-64793750D01*
X135625000Y-65706250D01*
X135623826Y-65730142D01*
X135620316Y-65753803D01*
X135614504Y-65777007D01*
X135606446Y-65799529D01*
X135596218Y-65821153D01*
X135583921Y-65841670D01*
X135569671Y-65860883D01*
X135553607Y-65878607D01*
X135535883Y-65894671D01*
X135516670Y-65908921D01*
X135496153Y-65921218D01*
X135474529Y-65931446D01*
X135452007Y-65939504D01*
X135428803Y-65945316D01*
X135405142Y-65948826D01*
X135381250Y-65950000D01*
X134893750Y-65950000D01*
X134869858Y-65948826D01*
X134846197Y-65945316D01*
X134822993Y-65939504D01*
X134800471Y-65931446D01*
X134778847Y-65921218D01*
X134758330Y-65908921D01*
X134739117Y-65894671D01*
X134721393Y-65878607D01*
X134705329Y-65860883D01*
X134691079Y-65841670D01*
X134678782Y-65821153D01*
X134668554Y-65799529D01*
X134660496Y-65777007D01*
X134654684Y-65753803D01*
X134651174Y-65730142D01*
X134650000Y-65706250D01*
X134650000Y-64793750D01*
X134651174Y-64769858D01*
X134654684Y-64746197D01*
X134660496Y-64722993D01*
X134668554Y-64700471D01*
X134678782Y-64678847D01*
X134691079Y-64658330D01*
X134705329Y-64639117D01*
X134721393Y-64621393D01*
X134739117Y-64605329D01*
X134758330Y-64591079D01*
X134778847Y-64578782D01*
X134800471Y-64568554D01*
X134822993Y-64560496D01*
X134846197Y-64554684D01*
X134869858Y-64551174D01*
X134893750Y-64550000D01*
X135381250Y-64550000D01*
X135405142Y-64551174D01*
G37*
G36*
X133530142Y-64551174D02*
G01*
X133553803Y-64554684D01*
X133577007Y-64560496D01*
X133599529Y-64568554D01*
X133621153Y-64578782D01*
X133641670Y-64591079D01*
X133660883Y-64605329D01*
X133678607Y-64621393D01*
X133694671Y-64639117D01*
X133708921Y-64658330D01*
X133721218Y-64678847D01*
X133731446Y-64700471D01*
X133739504Y-64722993D01*
X133745316Y-64746197D01*
X133748826Y-64769858D01*
X133750000Y-64793750D01*
X133750000Y-65706250D01*
X133748826Y-65730142D01*
X133745316Y-65753803D01*
X133739504Y-65777007D01*
X133731446Y-65799529D01*
X133721218Y-65821153D01*
X133708921Y-65841670D01*
X133694671Y-65860883D01*
X133678607Y-65878607D01*
X133660883Y-65894671D01*
X133641670Y-65908921D01*
X133621153Y-65921218D01*
X133599529Y-65931446D01*
X133577007Y-65939504D01*
X133553803Y-65945316D01*
X133530142Y-65948826D01*
X133506250Y-65950000D01*
X133018750Y-65950000D01*
X132994858Y-65948826D01*
X132971197Y-65945316D01*
X132947993Y-65939504D01*
X132925471Y-65931446D01*
X132903847Y-65921218D01*
X132883330Y-65908921D01*
X132864117Y-65894671D01*
X132846393Y-65878607D01*
X132830329Y-65860883D01*
X132816079Y-65841670D01*
X132803782Y-65821153D01*
X132793554Y-65799529D01*
X132785496Y-65777007D01*
X132779684Y-65753803D01*
X132776174Y-65730142D01*
X132775000Y-65706250D01*
X132775000Y-64793750D01*
X132776174Y-64769858D01*
X132779684Y-64746197D01*
X132785496Y-64722993D01*
X132793554Y-64700471D01*
X132803782Y-64678847D01*
X132816079Y-64658330D01*
X132830329Y-64639117D01*
X132846393Y-64621393D01*
X132864117Y-64605329D01*
X132883330Y-64591079D01*
X132903847Y-64578782D01*
X132925471Y-64568554D01*
X132947993Y-64560496D01*
X132971197Y-64554684D01*
X132994858Y-64551174D01*
X133018750Y-64550000D01*
X133506250Y-64550000D01*
X133530142Y-64551174D01*
G37*
G36*
X125150142Y-51721174D02*
G01*
X125173803Y-51724684D01*
X125197007Y-51730496D01*
X125219529Y-51738554D01*
X125241153Y-51748782D01*
X125261670Y-51761079D01*
X125280883Y-51775329D01*
X125298607Y-51791393D01*
X125314671Y-51809117D01*
X125328921Y-51828330D01*
X125341218Y-51848847D01*
X125351446Y-51870471D01*
X125359504Y-51892993D01*
X125365316Y-51916197D01*
X125368826Y-51939858D01*
X125370000Y-51963750D01*
X125370000Y-52876250D01*
X125368826Y-52900142D01*
X125365316Y-52923803D01*
X125359504Y-52947007D01*
X125351446Y-52969529D01*
X125341218Y-52991153D01*
X125328921Y-53011670D01*
X125314671Y-53030883D01*
X125298607Y-53048607D01*
X125280883Y-53064671D01*
X125261670Y-53078921D01*
X125241153Y-53091218D01*
X125219529Y-53101446D01*
X125197007Y-53109504D01*
X125173803Y-53115316D01*
X125150142Y-53118826D01*
X125126250Y-53120000D01*
X124638750Y-53120000D01*
X124614858Y-53118826D01*
X124591197Y-53115316D01*
X124567993Y-53109504D01*
X124545471Y-53101446D01*
X124523847Y-53091218D01*
X124503330Y-53078921D01*
X124484117Y-53064671D01*
X124466393Y-53048607D01*
X124450329Y-53030883D01*
X124436079Y-53011670D01*
X124423782Y-52991153D01*
X124413554Y-52969529D01*
X124405496Y-52947007D01*
X124399684Y-52923803D01*
X124396174Y-52900142D01*
X124395000Y-52876250D01*
X124395000Y-51963750D01*
X124396174Y-51939858D01*
X124399684Y-51916197D01*
X124405496Y-51892993D01*
X124413554Y-51870471D01*
X124423782Y-51848847D01*
X124436079Y-51828330D01*
X124450329Y-51809117D01*
X124466393Y-51791393D01*
X124484117Y-51775329D01*
X124503330Y-51761079D01*
X124523847Y-51748782D01*
X124545471Y-51738554D01*
X124567993Y-51730496D01*
X124591197Y-51724684D01*
X124614858Y-51721174D01*
X124638750Y-51720000D01*
X125126250Y-51720000D01*
X125150142Y-51721174D01*
G37*
G36*
X127025142Y-51721174D02*
G01*
X127048803Y-51724684D01*
X127072007Y-51730496D01*
X127094529Y-51738554D01*
X127116153Y-51748782D01*
X127136670Y-51761079D01*
X127155883Y-51775329D01*
X127173607Y-51791393D01*
X127189671Y-51809117D01*
X127203921Y-51828330D01*
X127216218Y-51848847D01*
X127226446Y-51870471D01*
X127234504Y-51892993D01*
X127240316Y-51916197D01*
X127243826Y-51939858D01*
X127245000Y-51963750D01*
X127245000Y-52876250D01*
X127243826Y-52900142D01*
X127240316Y-52923803D01*
X127234504Y-52947007D01*
X127226446Y-52969529D01*
X127216218Y-52991153D01*
X127203921Y-53011670D01*
X127189671Y-53030883D01*
X127173607Y-53048607D01*
X127155883Y-53064671D01*
X127136670Y-53078921D01*
X127116153Y-53091218D01*
X127094529Y-53101446D01*
X127072007Y-53109504D01*
X127048803Y-53115316D01*
X127025142Y-53118826D01*
X127001250Y-53120000D01*
X126513750Y-53120000D01*
X126489858Y-53118826D01*
X126466197Y-53115316D01*
X126442993Y-53109504D01*
X126420471Y-53101446D01*
X126398847Y-53091218D01*
X126378330Y-53078921D01*
X126359117Y-53064671D01*
X126341393Y-53048607D01*
X126325329Y-53030883D01*
X126311079Y-53011670D01*
X126298782Y-52991153D01*
X126288554Y-52969529D01*
X126280496Y-52947007D01*
X126274684Y-52923803D01*
X126271174Y-52900142D01*
X126270000Y-52876250D01*
X126270000Y-51963750D01*
X126271174Y-51939858D01*
X126274684Y-51916197D01*
X126280496Y-51892993D01*
X126288554Y-51870471D01*
X126298782Y-51848847D01*
X126311079Y-51828330D01*
X126325329Y-51809117D01*
X126341393Y-51791393D01*
X126359117Y-51775329D01*
X126378330Y-51761079D01*
X126398847Y-51748782D01*
X126420471Y-51738554D01*
X126442993Y-51730496D01*
X126466197Y-51724684D01*
X126489858Y-51721174D01*
X126513750Y-51720000D01*
X127001250Y-51720000D01*
X127025142Y-51721174D01*
G37*
D11*
X104290000Y-55200000D03*
X104290000Y-52000000D03*
X99390000Y-55200000D03*
X99390000Y-52000000D03*
X128270000Y-59200000D03*
X128270000Y-56000000D03*
X123370000Y-59200000D03*
X123370000Y-56000000D03*
X120290000Y-55190000D03*
X120290000Y-51990000D03*
X115390000Y-55190000D03*
X115390000Y-51990000D03*
X128290000Y-83190000D03*
X128290000Y-79990000D03*
X123390000Y-83190000D03*
X123390000Y-79990000D03*
X120290000Y-63180000D03*
X120290000Y-59980000D03*
X115390000Y-63180000D03*
X115390000Y-59980000D03*
X104270000Y-87180000D03*
X104270000Y-83980000D03*
X99370000Y-87180000D03*
X99370000Y-83980000D03*
X120290000Y-87200000D03*
X120290000Y-84000000D03*
X115390000Y-87200000D03*
X115390000Y-84000000D03*
X120290000Y-79200000D03*
X120290000Y-76000000D03*
X115390000Y-79200000D03*
X115390000Y-76000000D03*
X112280000Y-83200000D03*
X112280000Y-80000000D03*
X107380000Y-83200000D03*
X107380000Y-80000000D03*
X104290000Y-79190000D03*
X104290000Y-75990000D03*
X99390000Y-79190000D03*
X99390000Y-75990000D03*
X128300000Y-75190000D03*
X128300000Y-71990000D03*
X123400000Y-75190000D03*
X123400000Y-71990000D03*
X120280000Y-71190000D03*
X120280000Y-67990000D03*
X115380000Y-71190000D03*
X115380000Y-67990000D03*
X112280000Y-67200000D03*
X112280000Y-64000000D03*
X107380000Y-67200000D03*
X107380000Y-64000000D03*
X104290000Y-63200000D03*
X104290000Y-60000000D03*
X99390000Y-63200000D03*
X99390000Y-60000000D03*
X128300000Y-67200000D03*
X128300000Y-64000000D03*
X123400000Y-67200000D03*
X123400000Y-64000000D03*
X112280000Y-59180000D03*
X112280000Y-55980000D03*
X107380000Y-59180000D03*
X107380000Y-55980000D03*
X112290000Y-75200000D03*
X112290000Y-72000000D03*
X107390000Y-75200000D03*
X107390000Y-72000000D03*
D10*
G36*
X93820142Y-64851174D02*
G01*
X93843803Y-64854684D01*
X93867007Y-64860496D01*
X93889529Y-64868554D01*
X93911153Y-64878782D01*
X93931670Y-64891079D01*
X93950883Y-64905329D01*
X93968607Y-64921393D01*
X93984671Y-64939117D01*
X93998921Y-64958330D01*
X94011218Y-64978847D01*
X94021446Y-65000471D01*
X94029504Y-65022993D01*
X94035316Y-65046197D01*
X94038826Y-65069858D01*
X94040000Y-65093750D01*
X94040000Y-65581250D01*
X94038826Y-65605142D01*
X94035316Y-65628803D01*
X94029504Y-65652007D01*
X94021446Y-65674529D01*
X94011218Y-65696153D01*
X93998921Y-65716670D01*
X93984671Y-65735883D01*
X93968607Y-65753607D01*
X93950883Y-65769671D01*
X93931670Y-65783921D01*
X93911153Y-65796218D01*
X93889529Y-65806446D01*
X93867007Y-65814504D01*
X93843803Y-65820316D01*
X93820142Y-65823826D01*
X93796250Y-65825000D01*
X92883750Y-65825000D01*
X92859858Y-65823826D01*
X92836197Y-65820316D01*
X92812993Y-65814504D01*
X92790471Y-65806446D01*
X92768847Y-65796218D01*
X92748330Y-65783921D01*
X92729117Y-65769671D01*
X92711393Y-65753607D01*
X92695329Y-65735883D01*
X92681079Y-65716670D01*
X92668782Y-65696153D01*
X92658554Y-65674529D01*
X92650496Y-65652007D01*
X92644684Y-65628803D01*
X92641174Y-65605142D01*
X92640000Y-65581250D01*
X92640000Y-65093750D01*
X92641174Y-65069858D01*
X92644684Y-65046197D01*
X92650496Y-65022993D01*
X92658554Y-65000471D01*
X92668782Y-64978847D01*
X92681079Y-64958330D01*
X92695329Y-64939117D01*
X92711393Y-64921393D01*
X92729117Y-64905329D01*
X92748330Y-64891079D01*
X92768847Y-64878782D01*
X92790471Y-64868554D01*
X92812993Y-64860496D01*
X92836197Y-64854684D01*
X92859858Y-64851174D01*
X92883750Y-64850000D01*
X93796250Y-64850000D01*
X93820142Y-64851174D01*
G37*
G36*
X93820142Y-62976174D02*
G01*
X93843803Y-62979684D01*
X93867007Y-62985496D01*
X93889529Y-62993554D01*
X93911153Y-63003782D01*
X93931670Y-63016079D01*
X93950883Y-63030329D01*
X93968607Y-63046393D01*
X93984671Y-63064117D01*
X93998921Y-63083330D01*
X94011218Y-63103847D01*
X94021446Y-63125471D01*
X94029504Y-63147993D01*
X94035316Y-63171197D01*
X94038826Y-63194858D01*
X94040000Y-63218750D01*
X94040000Y-63706250D01*
X94038826Y-63730142D01*
X94035316Y-63753803D01*
X94029504Y-63777007D01*
X94021446Y-63799529D01*
X94011218Y-63821153D01*
X93998921Y-63841670D01*
X93984671Y-63860883D01*
X93968607Y-63878607D01*
X93950883Y-63894671D01*
X93931670Y-63908921D01*
X93911153Y-63921218D01*
X93889529Y-63931446D01*
X93867007Y-63939504D01*
X93843803Y-63945316D01*
X93820142Y-63948826D01*
X93796250Y-63950000D01*
X92883750Y-63950000D01*
X92859858Y-63948826D01*
X92836197Y-63945316D01*
X92812993Y-63939504D01*
X92790471Y-63931446D01*
X92768847Y-63921218D01*
X92748330Y-63908921D01*
X92729117Y-63894671D01*
X92711393Y-63878607D01*
X92695329Y-63860883D01*
X92681079Y-63841670D01*
X92668782Y-63821153D01*
X92658554Y-63799529D01*
X92650496Y-63777007D01*
X92644684Y-63753803D01*
X92641174Y-63730142D01*
X92640000Y-63706250D01*
X92640000Y-63218750D01*
X92641174Y-63194858D01*
X92644684Y-63171197D01*
X92650496Y-63147993D01*
X92658554Y-63125471D01*
X92668782Y-63103847D01*
X92681079Y-63083330D01*
X92695329Y-63064117D01*
X92711393Y-63046393D01*
X92729117Y-63030329D01*
X92748330Y-63016079D01*
X92768847Y-63003782D01*
X92790471Y-62993554D01*
X92812993Y-62985496D01*
X92836197Y-62979684D01*
X92859858Y-62976174D01*
X92883750Y-62975000D01*
X93796250Y-62975000D01*
X93820142Y-62976174D01*
G37*
D11*
X112300000Y-91190000D03*
X112300000Y-87990000D03*
X107400000Y-91190000D03*
X107400000Y-87990000D03*
X104290000Y-71200000D03*
X104290000Y-68000000D03*
X99390000Y-71200000D03*
X99390000Y-68000000D03*
X128300000Y-91190000D03*
X128300000Y-87990000D03*
X123400000Y-91190000D03*
X123400000Y-87990000D03*
D10*
G36*
X159020142Y-102001174D02*
G01*
X159043803Y-102004684D01*
X159067007Y-102010496D01*
X159089529Y-102018554D01*
X159111153Y-102028782D01*
X159131670Y-102041079D01*
X159150883Y-102055329D01*
X159168607Y-102071393D01*
X159184671Y-102089117D01*
X159198921Y-102108330D01*
X159211218Y-102128847D01*
X159221446Y-102150471D01*
X159229504Y-102172993D01*
X159235316Y-102196197D01*
X159238826Y-102219858D01*
X159240000Y-102243750D01*
X159240000Y-103156250D01*
X159238826Y-103180142D01*
X159235316Y-103203803D01*
X159229504Y-103227007D01*
X159221446Y-103249529D01*
X159211218Y-103271153D01*
X159198921Y-103291670D01*
X159184671Y-103310883D01*
X159168607Y-103328607D01*
X159150883Y-103344671D01*
X159131670Y-103358921D01*
X159111153Y-103371218D01*
X159089529Y-103381446D01*
X159067007Y-103389504D01*
X159043803Y-103395316D01*
X159020142Y-103398826D01*
X158996250Y-103400000D01*
X158508750Y-103400000D01*
X158484858Y-103398826D01*
X158461197Y-103395316D01*
X158437993Y-103389504D01*
X158415471Y-103381446D01*
X158393847Y-103371218D01*
X158373330Y-103358921D01*
X158354117Y-103344671D01*
X158336393Y-103328607D01*
X158320329Y-103310883D01*
X158306079Y-103291670D01*
X158293782Y-103271153D01*
X158283554Y-103249529D01*
X158275496Y-103227007D01*
X158269684Y-103203803D01*
X158266174Y-103180142D01*
X158265000Y-103156250D01*
X158265000Y-102243750D01*
X158266174Y-102219858D01*
X158269684Y-102196197D01*
X158275496Y-102172993D01*
X158283554Y-102150471D01*
X158293782Y-102128847D01*
X158306079Y-102108330D01*
X158320329Y-102089117D01*
X158336393Y-102071393D01*
X158354117Y-102055329D01*
X158373330Y-102041079D01*
X158393847Y-102028782D01*
X158415471Y-102018554D01*
X158437993Y-102010496D01*
X158461197Y-102004684D01*
X158484858Y-102001174D01*
X158508750Y-102000000D01*
X158996250Y-102000000D01*
X159020142Y-102001174D01*
G37*
G36*
X160895142Y-102001174D02*
G01*
X160918803Y-102004684D01*
X160942007Y-102010496D01*
X160964529Y-102018554D01*
X160986153Y-102028782D01*
X161006670Y-102041079D01*
X161025883Y-102055329D01*
X161043607Y-102071393D01*
X161059671Y-102089117D01*
X161073921Y-102108330D01*
X161086218Y-102128847D01*
X161096446Y-102150471D01*
X161104504Y-102172993D01*
X161110316Y-102196197D01*
X161113826Y-102219858D01*
X161115000Y-102243750D01*
X161115000Y-103156250D01*
X161113826Y-103180142D01*
X161110316Y-103203803D01*
X161104504Y-103227007D01*
X161096446Y-103249529D01*
X161086218Y-103271153D01*
X161073921Y-103291670D01*
X161059671Y-103310883D01*
X161043607Y-103328607D01*
X161025883Y-103344671D01*
X161006670Y-103358921D01*
X160986153Y-103371218D01*
X160964529Y-103381446D01*
X160942007Y-103389504D01*
X160918803Y-103395316D01*
X160895142Y-103398826D01*
X160871250Y-103400000D01*
X160383750Y-103400000D01*
X160359858Y-103398826D01*
X160336197Y-103395316D01*
X160312993Y-103389504D01*
X160290471Y-103381446D01*
X160268847Y-103371218D01*
X160248330Y-103358921D01*
X160229117Y-103344671D01*
X160211393Y-103328607D01*
X160195329Y-103310883D01*
X160181079Y-103291670D01*
X160168782Y-103271153D01*
X160158554Y-103249529D01*
X160150496Y-103227007D01*
X160144684Y-103203803D01*
X160141174Y-103180142D01*
X160140000Y-103156250D01*
X160140000Y-102243750D01*
X160141174Y-102219858D01*
X160144684Y-102196197D01*
X160150496Y-102172993D01*
X160158554Y-102150471D01*
X160168782Y-102128847D01*
X160181079Y-102108330D01*
X160195329Y-102089117D01*
X160211393Y-102071393D01*
X160229117Y-102055329D01*
X160248330Y-102041079D01*
X160268847Y-102028782D01*
X160290471Y-102018554D01*
X160312993Y-102010496D01*
X160336197Y-102004684D01*
X160359858Y-102001174D01*
X160383750Y-102000000D01*
X160871250Y-102000000D01*
X160895142Y-102001174D01*
G37*
G36*
X167880142Y-140011174D02*
G01*
X167903803Y-140014684D01*
X167927007Y-140020496D01*
X167949529Y-140028554D01*
X167971153Y-140038782D01*
X167991670Y-140051079D01*
X168010883Y-140065329D01*
X168028607Y-140081393D01*
X168044671Y-140099117D01*
X168058921Y-140118330D01*
X168071218Y-140138847D01*
X168081446Y-140160471D01*
X168089504Y-140182993D01*
X168095316Y-140206197D01*
X168098826Y-140229858D01*
X168100000Y-140253750D01*
X168100000Y-141166250D01*
X168098826Y-141190142D01*
X168095316Y-141213803D01*
X168089504Y-141237007D01*
X168081446Y-141259529D01*
X168071218Y-141281153D01*
X168058921Y-141301670D01*
X168044671Y-141320883D01*
X168028607Y-141338607D01*
X168010883Y-141354671D01*
X167991670Y-141368921D01*
X167971153Y-141381218D01*
X167949529Y-141391446D01*
X167927007Y-141399504D01*
X167903803Y-141405316D01*
X167880142Y-141408826D01*
X167856250Y-141410000D01*
X167368750Y-141410000D01*
X167344858Y-141408826D01*
X167321197Y-141405316D01*
X167297993Y-141399504D01*
X167275471Y-141391446D01*
X167253847Y-141381218D01*
X167233330Y-141368921D01*
X167214117Y-141354671D01*
X167196393Y-141338607D01*
X167180329Y-141320883D01*
X167166079Y-141301670D01*
X167153782Y-141281153D01*
X167143554Y-141259529D01*
X167135496Y-141237007D01*
X167129684Y-141213803D01*
X167126174Y-141190142D01*
X167125000Y-141166250D01*
X167125000Y-140253750D01*
X167126174Y-140229858D01*
X167129684Y-140206197D01*
X167135496Y-140182993D01*
X167143554Y-140160471D01*
X167153782Y-140138847D01*
X167166079Y-140118330D01*
X167180329Y-140099117D01*
X167196393Y-140081393D01*
X167214117Y-140065329D01*
X167233330Y-140051079D01*
X167253847Y-140038782D01*
X167275471Y-140028554D01*
X167297993Y-140020496D01*
X167321197Y-140014684D01*
X167344858Y-140011174D01*
X167368750Y-140010000D01*
X167856250Y-140010000D01*
X167880142Y-140011174D01*
G37*
G36*
X169755142Y-140011174D02*
G01*
X169778803Y-140014684D01*
X169802007Y-140020496D01*
X169824529Y-140028554D01*
X169846153Y-140038782D01*
X169866670Y-140051079D01*
X169885883Y-140065329D01*
X169903607Y-140081393D01*
X169919671Y-140099117D01*
X169933921Y-140118330D01*
X169946218Y-140138847D01*
X169956446Y-140160471D01*
X169964504Y-140182993D01*
X169970316Y-140206197D01*
X169973826Y-140229858D01*
X169975000Y-140253750D01*
X169975000Y-141166250D01*
X169973826Y-141190142D01*
X169970316Y-141213803D01*
X169964504Y-141237007D01*
X169956446Y-141259529D01*
X169946218Y-141281153D01*
X169933921Y-141301670D01*
X169919671Y-141320883D01*
X169903607Y-141338607D01*
X169885883Y-141354671D01*
X169866670Y-141368921D01*
X169846153Y-141381218D01*
X169824529Y-141391446D01*
X169802007Y-141399504D01*
X169778803Y-141405316D01*
X169755142Y-141408826D01*
X169731250Y-141410000D01*
X169243750Y-141410000D01*
X169219858Y-141408826D01*
X169196197Y-141405316D01*
X169172993Y-141399504D01*
X169150471Y-141391446D01*
X169128847Y-141381218D01*
X169108330Y-141368921D01*
X169089117Y-141354671D01*
X169071393Y-141338607D01*
X169055329Y-141320883D01*
X169041079Y-141301670D01*
X169028782Y-141281153D01*
X169018554Y-141259529D01*
X169010496Y-141237007D01*
X169004684Y-141213803D01*
X169001174Y-141190142D01*
X169000000Y-141166250D01*
X169000000Y-140253750D01*
X169001174Y-140229858D01*
X169004684Y-140206197D01*
X169010496Y-140182993D01*
X169018554Y-140160471D01*
X169028782Y-140138847D01*
X169041079Y-140118330D01*
X169055329Y-140099117D01*
X169071393Y-140081393D01*
X169089117Y-140065329D01*
X169108330Y-140051079D01*
X169128847Y-140038782D01*
X169150471Y-140028554D01*
X169172993Y-140020496D01*
X169196197Y-140014684D01*
X169219858Y-140011174D01*
X169243750Y-140010000D01*
X169731250Y-140010000D01*
X169755142Y-140011174D01*
G37*
G36*
X144040142Y-129383674D02*
G01*
X144063803Y-129387184D01*
X144087007Y-129392996D01*
X144109529Y-129401054D01*
X144131153Y-129411282D01*
X144151670Y-129423579D01*
X144170883Y-129437829D01*
X144188607Y-129453893D01*
X144204671Y-129471617D01*
X144218921Y-129490830D01*
X144231218Y-129511347D01*
X144241446Y-129532971D01*
X144249504Y-129555493D01*
X144255316Y-129578697D01*
X144258826Y-129602358D01*
X144260000Y-129626250D01*
X144260000Y-130113750D01*
X144258826Y-130137642D01*
X144255316Y-130161303D01*
X144249504Y-130184507D01*
X144241446Y-130207029D01*
X144231218Y-130228653D01*
X144218921Y-130249170D01*
X144204671Y-130268383D01*
X144188607Y-130286107D01*
X144170883Y-130302171D01*
X144151670Y-130316421D01*
X144131153Y-130328718D01*
X144109529Y-130338946D01*
X144087007Y-130347004D01*
X144063803Y-130352816D01*
X144040142Y-130356326D01*
X144016250Y-130357500D01*
X143103750Y-130357500D01*
X143079858Y-130356326D01*
X143056197Y-130352816D01*
X143032993Y-130347004D01*
X143010471Y-130338946D01*
X142988847Y-130328718D01*
X142968330Y-130316421D01*
X142949117Y-130302171D01*
X142931393Y-130286107D01*
X142915329Y-130268383D01*
X142901079Y-130249170D01*
X142888782Y-130228653D01*
X142878554Y-130207029D01*
X142870496Y-130184507D01*
X142864684Y-130161303D01*
X142861174Y-130137642D01*
X142860000Y-130113750D01*
X142860000Y-129626250D01*
X142861174Y-129602358D01*
X142864684Y-129578697D01*
X142870496Y-129555493D01*
X142878554Y-129532971D01*
X142888782Y-129511347D01*
X142901079Y-129490830D01*
X142915329Y-129471617D01*
X142931393Y-129453893D01*
X142949117Y-129437829D01*
X142968330Y-129423579D01*
X142988847Y-129411282D01*
X143010471Y-129401054D01*
X143032993Y-129392996D01*
X143056197Y-129387184D01*
X143079858Y-129383674D01*
X143103750Y-129382500D01*
X144016250Y-129382500D01*
X144040142Y-129383674D01*
G37*
G36*
X144040142Y-127508674D02*
G01*
X144063803Y-127512184D01*
X144087007Y-127517996D01*
X144109529Y-127526054D01*
X144131153Y-127536282D01*
X144151670Y-127548579D01*
X144170883Y-127562829D01*
X144188607Y-127578893D01*
X144204671Y-127596617D01*
X144218921Y-127615830D01*
X144231218Y-127636347D01*
X144241446Y-127657971D01*
X144249504Y-127680493D01*
X144255316Y-127703697D01*
X144258826Y-127727358D01*
X144260000Y-127751250D01*
X144260000Y-128238750D01*
X144258826Y-128262642D01*
X144255316Y-128286303D01*
X144249504Y-128309507D01*
X144241446Y-128332029D01*
X144231218Y-128353653D01*
X144218921Y-128374170D01*
X144204671Y-128393383D01*
X144188607Y-128411107D01*
X144170883Y-128427171D01*
X144151670Y-128441421D01*
X144131153Y-128453718D01*
X144109529Y-128463946D01*
X144087007Y-128472004D01*
X144063803Y-128477816D01*
X144040142Y-128481326D01*
X144016250Y-128482500D01*
X143103750Y-128482500D01*
X143079858Y-128481326D01*
X143056197Y-128477816D01*
X143032993Y-128472004D01*
X143010471Y-128463946D01*
X142988847Y-128453718D01*
X142968330Y-128441421D01*
X142949117Y-128427171D01*
X142931393Y-128411107D01*
X142915329Y-128393383D01*
X142901079Y-128374170D01*
X142888782Y-128353653D01*
X142878554Y-128332029D01*
X142870496Y-128309507D01*
X142864684Y-128286303D01*
X142861174Y-128262642D01*
X142860000Y-128238750D01*
X142860000Y-127751250D01*
X142861174Y-127727358D01*
X142864684Y-127703697D01*
X142870496Y-127680493D01*
X142878554Y-127657971D01*
X142888782Y-127636347D01*
X142901079Y-127615830D01*
X142915329Y-127596617D01*
X142931393Y-127578893D01*
X142949117Y-127562829D01*
X142968330Y-127548579D01*
X142988847Y-127536282D01*
X143010471Y-127526054D01*
X143032993Y-127517996D01*
X143056197Y-127512184D01*
X143079858Y-127508674D01*
X143103750Y-127507500D01*
X144016250Y-127507500D01*
X144040142Y-127508674D01*
G37*
G36*
X183770142Y-128121174D02*
G01*
X183793803Y-128124684D01*
X183817007Y-128130496D01*
X183839529Y-128138554D01*
X183861153Y-128148782D01*
X183881670Y-128161079D01*
X183900883Y-128175329D01*
X183918607Y-128191393D01*
X183934671Y-128209117D01*
X183948921Y-128228330D01*
X183961218Y-128248847D01*
X183971446Y-128270471D01*
X183979504Y-128292993D01*
X183985316Y-128316197D01*
X183988826Y-128339858D01*
X183990000Y-128363750D01*
X183990000Y-129276250D01*
X183988826Y-129300142D01*
X183985316Y-129323803D01*
X183979504Y-129347007D01*
X183971446Y-129369529D01*
X183961218Y-129391153D01*
X183948921Y-129411670D01*
X183934671Y-129430883D01*
X183918607Y-129448607D01*
X183900883Y-129464671D01*
X183881670Y-129478921D01*
X183861153Y-129491218D01*
X183839529Y-129501446D01*
X183817007Y-129509504D01*
X183793803Y-129515316D01*
X183770142Y-129518826D01*
X183746250Y-129520000D01*
X183258750Y-129520000D01*
X183234858Y-129518826D01*
X183211197Y-129515316D01*
X183187993Y-129509504D01*
X183165471Y-129501446D01*
X183143847Y-129491218D01*
X183123330Y-129478921D01*
X183104117Y-129464671D01*
X183086393Y-129448607D01*
X183070329Y-129430883D01*
X183056079Y-129411670D01*
X183043782Y-129391153D01*
X183033554Y-129369529D01*
X183025496Y-129347007D01*
X183019684Y-129323803D01*
X183016174Y-129300142D01*
X183015000Y-129276250D01*
X183015000Y-128363750D01*
X183016174Y-128339858D01*
X183019684Y-128316197D01*
X183025496Y-128292993D01*
X183033554Y-128270471D01*
X183043782Y-128248847D01*
X183056079Y-128228330D01*
X183070329Y-128209117D01*
X183086393Y-128191393D01*
X183104117Y-128175329D01*
X183123330Y-128161079D01*
X183143847Y-128148782D01*
X183165471Y-128138554D01*
X183187993Y-128130496D01*
X183211197Y-128124684D01*
X183234858Y-128121174D01*
X183258750Y-128120000D01*
X183746250Y-128120000D01*
X183770142Y-128121174D01*
G37*
G36*
X185645142Y-128121174D02*
G01*
X185668803Y-128124684D01*
X185692007Y-128130496D01*
X185714529Y-128138554D01*
X185736153Y-128148782D01*
X185756670Y-128161079D01*
X185775883Y-128175329D01*
X185793607Y-128191393D01*
X185809671Y-128209117D01*
X185823921Y-128228330D01*
X185836218Y-128248847D01*
X185846446Y-128270471D01*
X185854504Y-128292993D01*
X185860316Y-128316197D01*
X185863826Y-128339858D01*
X185865000Y-128363750D01*
X185865000Y-129276250D01*
X185863826Y-129300142D01*
X185860316Y-129323803D01*
X185854504Y-129347007D01*
X185846446Y-129369529D01*
X185836218Y-129391153D01*
X185823921Y-129411670D01*
X185809671Y-129430883D01*
X185793607Y-129448607D01*
X185775883Y-129464671D01*
X185756670Y-129478921D01*
X185736153Y-129491218D01*
X185714529Y-129501446D01*
X185692007Y-129509504D01*
X185668803Y-129515316D01*
X185645142Y-129518826D01*
X185621250Y-129520000D01*
X185133750Y-129520000D01*
X185109858Y-129518826D01*
X185086197Y-129515316D01*
X185062993Y-129509504D01*
X185040471Y-129501446D01*
X185018847Y-129491218D01*
X184998330Y-129478921D01*
X184979117Y-129464671D01*
X184961393Y-129448607D01*
X184945329Y-129430883D01*
X184931079Y-129411670D01*
X184918782Y-129391153D01*
X184908554Y-129369529D01*
X184900496Y-129347007D01*
X184894684Y-129323803D01*
X184891174Y-129300142D01*
X184890000Y-129276250D01*
X184890000Y-128363750D01*
X184891174Y-128339858D01*
X184894684Y-128316197D01*
X184900496Y-128292993D01*
X184908554Y-128270471D01*
X184918782Y-128248847D01*
X184931079Y-128228330D01*
X184945329Y-128209117D01*
X184961393Y-128191393D01*
X184979117Y-128175329D01*
X184998330Y-128161079D01*
X185018847Y-128148782D01*
X185040471Y-128138554D01*
X185062993Y-128130496D01*
X185086197Y-128124684D01*
X185109858Y-128121174D01*
X185133750Y-128120000D01*
X185621250Y-128120000D01*
X185645142Y-128121174D01*
G37*
G36*
X151502642Y-139971174D02*
G01*
X151526303Y-139974684D01*
X151549507Y-139980496D01*
X151572029Y-139988554D01*
X151593653Y-139998782D01*
X151614170Y-140011079D01*
X151633383Y-140025329D01*
X151651107Y-140041393D01*
X151667171Y-140059117D01*
X151681421Y-140078330D01*
X151693718Y-140098847D01*
X151703946Y-140120471D01*
X151712004Y-140142993D01*
X151717816Y-140166197D01*
X151721326Y-140189858D01*
X151722500Y-140213750D01*
X151722500Y-141126250D01*
X151721326Y-141150142D01*
X151717816Y-141173803D01*
X151712004Y-141197007D01*
X151703946Y-141219529D01*
X151693718Y-141241153D01*
X151681421Y-141261670D01*
X151667171Y-141280883D01*
X151651107Y-141298607D01*
X151633383Y-141314671D01*
X151614170Y-141328921D01*
X151593653Y-141341218D01*
X151572029Y-141351446D01*
X151549507Y-141359504D01*
X151526303Y-141365316D01*
X151502642Y-141368826D01*
X151478750Y-141370000D01*
X150991250Y-141370000D01*
X150967358Y-141368826D01*
X150943697Y-141365316D01*
X150920493Y-141359504D01*
X150897971Y-141351446D01*
X150876347Y-141341218D01*
X150855830Y-141328921D01*
X150836617Y-141314671D01*
X150818893Y-141298607D01*
X150802829Y-141280883D01*
X150788579Y-141261670D01*
X150776282Y-141241153D01*
X150766054Y-141219529D01*
X150757996Y-141197007D01*
X150752184Y-141173803D01*
X150748674Y-141150142D01*
X150747500Y-141126250D01*
X150747500Y-140213750D01*
X150748674Y-140189858D01*
X150752184Y-140166197D01*
X150757996Y-140142993D01*
X150766054Y-140120471D01*
X150776282Y-140098847D01*
X150788579Y-140078330D01*
X150802829Y-140059117D01*
X150818893Y-140041393D01*
X150836617Y-140025329D01*
X150855830Y-140011079D01*
X150876347Y-139998782D01*
X150897971Y-139988554D01*
X150920493Y-139980496D01*
X150943697Y-139974684D01*
X150967358Y-139971174D01*
X150991250Y-139970000D01*
X151478750Y-139970000D01*
X151502642Y-139971174D01*
G37*
G36*
X153377642Y-139971174D02*
G01*
X153401303Y-139974684D01*
X153424507Y-139980496D01*
X153447029Y-139988554D01*
X153468653Y-139998782D01*
X153489170Y-140011079D01*
X153508383Y-140025329D01*
X153526107Y-140041393D01*
X153542171Y-140059117D01*
X153556421Y-140078330D01*
X153568718Y-140098847D01*
X153578946Y-140120471D01*
X153587004Y-140142993D01*
X153592816Y-140166197D01*
X153596326Y-140189858D01*
X153597500Y-140213750D01*
X153597500Y-141126250D01*
X153596326Y-141150142D01*
X153592816Y-141173803D01*
X153587004Y-141197007D01*
X153578946Y-141219529D01*
X153568718Y-141241153D01*
X153556421Y-141261670D01*
X153542171Y-141280883D01*
X153526107Y-141298607D01*
X153508383Y-141314671D01*
X153489170Y-141328921D01*
X153468653Y-141341218D01*
X153447029Y-141351446D01*
X153424507Y-141359504D01*
X153401303Y-141365316D01*
X153377642Y-141368826D01*
X153353750Y-141370000D01*
X152866250Y-141370000D01*
X152842358Y-141368826D01*
X152818697Y-141365316D01*
X152795493Y-141359504D01*
X152772971Y-141351446D01*
X152751347Y-141341218D01*
X152730830Y-141328921D01*
X152711617Y-141314671D01*
X152693893Y-141298607D01*
X152677829Y-141280883D01*
X152663579Y-141261670D01*
X152651282Y-141241153D01*
X152641054Y-141219529D01*
X152632996Y-141197007D01*
X152627184Y-141173803D01*
X152623674Y-141150142D01*
X152622500Y-141126250D01*
X152622500Y-140213750D01*
X152623674Y-140189858D01*
X152627184Y-140166197D01*
X152632996Y-140142993D01*
X152641054Y-140120471D01*
X152651282Y-140098847D01*
X152663579Y-140078330D01*
X152677829Y-140059117D01*
X152693893Y-140041393D01*
X152711617Y-140025329D01*
X152730830Y-140011079D01*
X152751347Y-139998782D01*
X152772971Y-139988554D01*
X152795493Y-139980496D01*
X152818697Y-139974684D01*
X152842358Y-139971174D01*
X152866250Y-139970000D01*
X153353750Y-139970000D01*
X153377642Y-139971174D01*
G37*
G36*
X185635142Y-114811174D02*
G01*
X185658803Y-114814684D01*
X185682007Y-114820496D01*
X185704529Y-114828554D01*
X185726153Y-114838782D01*
X185746670Y-114851079D01*
X185765883Y-114865329D01*
X185783607Y-114881393D01*
X185799671Y-114899117D01*
X185813921Y-114918330D01*
X185826218Y-114938847D01*
X185836446Y-114960471D01*
X185844504Y-114982993D01*
X185850316Y-115006197D01*
X185853826Y-115029858D01*
X185855000Y-115053750D01*
X185855000Y-115966250D01*
X185853826Y-115990142D01*
X185850316Y-116013803D01*
X185844504Y-116037007D01*
X185836446Y-116059529D01*
X185826218Y-116081153D01*
X185813921Y-116101670D01*
X185799671Y-116120883D01*
X185783607Y-116138607D01*
X185765883Y-116154671D01*
X185746670Y-116168921D01*
X185726153Y-116181218D01*
X185704529Y-116191446D01*
X185682007Y-116199504D01*
X185658803Y-116205316D01*
X185635142Y-116208826D01*
X185611250Y-116210000D01*
X185123750Y-116210000D01*
X185099858Y-116208826D01*
X185076197Y-116205316D01*
X185052993Y-116199504D01*
X185030471Y-116191446D01*
X185008847Y-116181218D01*
X184988330Y-116168921D01*
X184969117Y-116154671D01*
X184951393Y-116138607D01*
X184935329Y-116120883D01*
X184921079Y-116101670D01*
X184908782Y-116081153D01*
X184898554Y-116059529D01*
X184890496Y-116037007D01*
X184884684Y-116013803D01*
X184881174Y-115990142D01*
X184880000Y-115966250D01*
X184880000Y-115053750D01*
X184881174Y-115029858D01*
X184884684Y-115006197D01*
X184890496Y-114982993D01*
X184898554Y-114960471D01*
X184908782Y-114938847D01*
X184921079Y-114918330D01*
X184935329Y-114899117D01*
X184951393Y-114881393D01*
X184969117Y-114865329D01*
X184988330Y-114851079D01*
X185008847Y-114838782D01*
X185030471Y-114828554D01*
X185052993Y-114820496D01*
X185076197Y-114814684D01*
X185099858Y-114811174D01*
X185123750Y-114810000D01*
X185611250Y-114810000D01*
X185635142Y-114811174D01*
G37*
G36*
X183760142Y-114811174D02*
G01*
X183783803Y-114814684D01*
X183807007Y-114820496D01*
X183829529Y-114828554D01*
X183851153Y-114838782D01*
X183871670Y-114851079D01*
X183890883Y-114865329D01*
X183908607Y-114881393D01*
X183924671Y-114899117D01*
X183938921Y-114918330D01*
X183951218Y-114938847D01*
X183961446Y-114960471D01*
X183969504Y-114982993D01*
X183975316Y-115006197D01*
X183978826Y-115029858D01*
X183980000Y-115053750D01*
X183980000Y-115966250D01*
X183978826Y-115990142D01*
X183975316Y-116013803D01*
X183969504Y-116037007D01*
X183961446Y-116059529D01*
X183951218Y-116081153D01*
X183938921Y-116101670D01*
X183924671Y-116120883D01*
X183908607Y-116138607D01*
X183890883Y-116154671D01*
X183871670Y-116168921D01*
X183851153Y-116181218D01*
X183829529Y-116191446D01*
X183807007Y-116199504D01*
X183783803Y-116205316D01*
X183760142Y-116208826D01*
X183736250Y-116210000D01*
X183248750Y-116210000D01*
X183224858Y-116208826D01*
X183201197Y-116205316D01*
X183177993Y-116199504D01*
X183155471Y-116191446D01*
X183133847Y-116181218D01*
X183113330Y-116168921D01*
X183094117Y-116154671D01*
X183076393Y-116138607D01*
X183060329Y-116120883D01*
X183046079Y-116101670D01*
X183033782Y-116081153D01*
X183023554Y-116059529D01*
X183015496Y-116037007D01*
X183009684Y-116013803D01*
X183006174Y-115990142D01*
X183005000Y-115966250D01*
X183005000Y-115053750D01*
X183006174Y-115029858D01*
X183009684Y-115006197D01*
X183015496Y-114982993D01*
X183023554Y-114960471D01*
X183033782Y-114938847D01*
X183046079Y-114918330D01*
X183060329Y-114899117D01*
X183076393Y-114881393D01*
X183094117Y-114865329D01*
X183113330Y-114851079D01*
X183133847Y-114838782D01*
X183155471Y-114828554D01*
X183177993Y-114820496D01*
X183201197Y-114814684D01*
X183224858Y-114811174D01*
X183248750Y-114810000D01*
X183736250Y-114810000D01*
X183760142Y-114811174D01*
G37*
G36*
X175380142Y-101981174D02*
G01*
X175403803Y-101984684D01*
X175427007Y-101990496D01*
X175449529Y-101998554D01*
X175471153Y-102008782D01*
X175491670Y-102021079D01*
X175510883Y-102035329D01*
X175528607Y-102051393D01*
X175544671Y-102069117D01*
X175558921Y-102088330D01*
X175571218Y-102108847D01*
X175581446Y-102130471D01*
X175589504Y-102152993D01*
X175595316Y-102176197D01*
X175598826Y-102199858D01*
X175600000Y-102223750D01*
X175600000Y-103136250D01*
X175598826Y-103160142D01*
X175595316Y-103183803D01*
X175589504Y-103207007D01*
X175581446Y-103229529D01*
X175571218Y-103251153D01*
X175558921Y-103271670D01*
X175544671Y-103290883D01*
X175528607Y-103308607D01*
X175510883Y-103324671D01*
X175491670Y-103338921D01*
X175471153Y-103351218D01*
X175449529Y-103361446D01*
X175427007Y-103369504D01*
X175403803Y-103375316D01*
X175380142Y-103378826D01*
X175356250Y-103380000D01*
X174868750Y-103380000D01*
X174844858Y-103378826D01*
X174821197Y-103375316D01*
X174797993Y-103369504D01*
X174775471Y-103361446D01*
X174753847Y-103351218D01*
X174733330Y-103338921D01*
X174714117Y-103324671D01*
X174696393Y-103308607D01*
X174680329Y-103290883D01*
X174666079Y-103271670D01*
X174653782Y-103251153D01*
X174643554Y-103229529D01*
X174635496Y-103207007D01*
X174629684Y-103183803D01*
X174626174Y-103160142D01*
X174625000Y-103136250D01*
X174625000Y-102223750D01*
X174626174Y-102199858D01*
X174629684Y-102176197D01*
X174635496Y-102152993D01*
X174643554Y-102130471D01*
X174653782Y-102108847D01*
X174666079Y-102088330D01*
X174680329Y-102069117D01*
X174696393Y-102051393D01*
X174714117Y-102035329D01*
X174733330Y-102021079D01*
X174753847Y-102008782D01*
X174775471Y-101998554D01*
X174797993Y-101990496D01*
X174821197Y-101984684D01*
X174844858Y-101981174D01*
X174868750Y-101980000D01*
X175356250Y-101980000D01*
X175380142Y-101981174D01*
G37*
G36*
X177255142Y-101981174D02*
G01*
X177278803Y-101984684D01*
X177302007Y-101990496D01*
X177324529Y-101998554D01*
X177346153Y-102008782D01*
X177366670Y-102021079D01*
X177385883Y-102035329D01*
X177403607Y-102051393D01*
X177419671Y-102069117D01*
X177433921Y-102088330D01*
X177446218Y-102108847D01*
X177456446Y-102130471D01*
X177464504Y-102152993D01*
X177470316Y-102176197D01*
X177473826Y-102199858D01*
X177475000Y-102223750D01*
X177475000Y-103136250D01*
X177473826Y-103160142D01*
X177470316Y-103183803D01*
X177464504Y-103207007D01*
X177456446Y-103229529D01*
X177446218Y-103251153D01*
X177433921Y-103271670D01*
X177419671Y-103290883D01*
X177403607Y-103308607D01*
X177385883Y-103324671D01*
X177366670Y-103338921D01*
X177346153Y-103351218D01*
X177324529Y-103361446D01*
X177302007Y-103369504D01*
X177278803Y-103375316D01*
X177255142Y-103378826D01*
X177231250Y-103380000D01*
X176743750Y-103380000D01*
X176719858Y-103378826D01*
X176696197Y-103375316D01*
X176672993Y-103369504D01*
X176650471Y-103361446D01*
X176628847Y-103351218D01*
X176608330Y-103338921D01*
X176589117Y-103324671D01*
X176571393Y-103308607D01*
X176555329Y-103290883D01*
X176541079Y-103271670D01*
X176528782Y-103251153D01*
X176518554Y-103229529D01*
X176510496Y-103207007D01*
X176504684Y-103183803D01*
X176501174Y-103160142D01*
X176500000Y-103136250D01*
X176500000Y-102223750D01*
X176501174Y-102199858D01*
X176504684Y-102176197D01*
X176510496Y-102152993D01*
X176518554Y-102130471D01*
X176528782Y-102108847D01*
X176541079Y-102088330D01*
X176555329Y-102069117D01*
X176571393Y-102051393D01*
X176589117Y-102035329D01*
X176608330Y-102021079D01*
X176628847Y-102008782D01*
X176650471Y-101998554D01*
X176672993Y-101990496D01*
X176696197Y-101984684D01*
X176719858Y-101981174D01*
X176743750Y-101980000D01*
X177231250Y-101980000D01*
X177255142Y-101981174D01*
G37*
D11*
X154520000Y-105460000D03*
X154520000Y-102260000D03*
X149620000Y-105460000D03*
X149620000Y-102260000D03*
X178500000Y-109460000D03*
X178500000Y-106260000D03*
X173600000Y-109460000D03*
X173600000Y-106260000D03*
X170520000Y-105450000D03*
X170520000Y-102250000D03*
X165620000Y-105450000D03*
X165620000Y-102250000D03*
X178520000Y-133450000D03*
X178520000Y-130250000D03*
X173620000Y-133450000D03*
X173620000Y-130250000D03*
X170520000Y-113440000D03*
X170520000Y-110240000D03*
X165620000Y-113440000D03*
X165620000Y-110240000D03*
X154500000Y-137440000D03*
X154500000Y-134240000D03*
X149600000Y-137440000D03*
X149600000Y-134240000D03*
X170520000Y-137460000D03*
X170520000Y-134260000D03*
X165620000Y-137460000D03*
X165620000Y-134260000D03*
X170520000Y-129460000D03*
X170520000Y-126260000D03*
X165620000Y-129460000D03*
X165620000Y-126260000D03*
X162510000Y-133460000D03*
X162510000Y-130260000D03*
X157610000Y-133460000D03*
X157610000Y-130260000D03*
X154520000Y-129450000D03*
X154520000Y-126250000D03*
X149620000Y-129450000D03*
X149620000Y-126250000D03*
X178530000Y-125450000D03*
X178530000Y-122250000D03*
X173630000Y-125450000D03*
X173630000Y-122250000D03*
X170510000Y-121450000D03*
X170510000Y-118250000D03*
X165610000Y-121450000D03*
X165610000Y-118250000D03*
X162510000Y-117460000D03*
X162510000Y-114260000D03*
X157610000Y-117460000D03*
X157610000Y-114260000D03*
X154520000Y-113460000D03*
X154520000Y-110260000D03*
X149620000Y-113460000D03*
X149620000Y-110260000D03*
X178530000Y-117460000D03*
X178530000Y-114260000D03*
X173630000Y-117460000D03*
X173630000Y-114260000D03*
X162510000Y-109440000D03*
X162510000Y-106240000D03*
X157610000Y-109440000D03*
X157610000Y-106240000D03*
X162520000Y-125460000D03*
X162520000Y-122260000D03*
X157620000Y-125460000D03*
X157620000Y-122260000D03*
D10*
G36*
X144050142Y-115111174D02*
G01*
X144073803Y-115114684D01*
X144097007Y-115120496D01*
X144119529Y-115128554D01*
X144141153Y-115138782D01*
X144161670Y-115151079D01*
X144180883Y-115165329D01*
X144198607Y-115181393D01*
X144214671Y-115199117D01*
X144228921Y-115218330D01*
X144241218Y-115238847D01*
X144251446Y-115260471D01*
X144259504Y-115282993D01*
X144265316Y-115306197D01*
X144268826Y-115329858D01*
X144270000Y-115353750D01*
X144270000Y-115841250D01*
X144268826Y-115865142D01*
X144265316Y-115888803D01*
X144259504Y-115912007D01*
X144251446Y-115934529D01*
X144241218Y-115956153D01*
X144228921Y-115976670D01*
X144214671Y-115995883D01*
X144198607Y-116013607D01*
X144180883Y-116029671D01*
X144161670Y-116043921D01*
X144141153Y-116056218D01*
X144119529Y-116066446D01*
X144097007Y-116074504D01*
X144073803Y-116080316D01*
X144050142Y-116083826D01*
X144026250Y-116085000D01*
X143113750Y-116085000D01*
X143089858Y-116083826D01*
X143066197Y-116080316D01*
X143042993Y-116074504D01*
X143020471Y-116066446D01*
X142998847Y-116056218D01*
X142978330Y-116043921D01*
X142959117Y-116029671D01*
X142941393Y-116013607D01*
X142925329Y-115995883D01*
X142911079Y-115976670D01*
X142898782Y-115956153D01*
X142888554Y-115934529D01*
X142880496Y-115912007D01*
X142874684Y-115888803D01*
X142871174Y-115865142D01*
X142870000Y-115841250D01*
X142870000Y-115353750D01*
X142871174Y-115329858D01*
X142874684Y-115306197D01*
X142880496Y-115282993D01*
X142888554Y-115260471D01*
X142898782Y-115238847D01*
X142911079Y-115218330D01*
X142925329Y-115199117D01*
X142941393Y-115181393D01*
X142959117Y-115165329D01*
X142978330Y-115151079D01*
X142998847Y-115138782D01*
X143020471Y-115128554D01*
X143042993Y-115120496D01*
X143066197Y-115114684D01*
X143089858Y-115111174D01*
X143113750Y-115110000D01*
X144026250Y-115110000D01*
X144050142Y-115111174D01*
G37*
G36*
X144050142Y-113236174D02*
G01*
X144073803Y-113239684D01*
X144097007Y-113245496D01*
X144119529Y-113253554D01*
X144141153Y-113263782D01*
X144161670Y-113276079D01*
X144180883Y-113290329D01*
X144198607Y-113306393D01*
X144214671Y-113324117D01*
X144228921Y-113343330D01*
X144241218Y-113363847D01*
X144251446Y-113385471D01*
X144259504Y-113407993D01*
X144265316Y-113431197D01*
X144268826Y-113454858D01*
X144270000Y-113478750D01*
X144270000Y-113966250D01*
X144268826Y-113990142D01*
X144265316Y-114013803D01*
X144259504Y-114037007D01*
X144251446Y-114059529D01*
X144241218Y-114081153D01*
X144228921Y-114101670D01*
X144214671Y-114120883D01*
X144198607Y-114138607D01*
X144180883Y-114154671D01*
X144161670Y-114168921D01*
X144141153Y-114181218D01*
X144119529Y-114191446D01*
X144097007Y-114199504D01*
X144073803Y-114205316D01*
X144050142Y-114208826D01*
X144026250Y-114210000D01*
X143113750Y-114210000D01*
X143089858Y-114208826D01*
X143066197Y-114205316D01*
X143042993Y-114199504D01*
X143020471Y-114191446D01*
X142998847Y-114181218D01*
X142978330Y-114168921D01*
X142959117Y-114154671D01*
X142941393Y-114138607D01*
X142925329Y-114120883D01*
X142911079Y-114101670D01*
X142898782Y-114081153D01*
X142888554Y-114059529D01*
X142880496Y-114037007D01*
X142874684Y-114013803D01*
X142871174Y-113990142D01*
X142870000Y-113966250D01*
X142870000Y-113478750D01*
X142871174Y-113454858D01*
X142874684Y-113431197D01*
X142880496Y-113407993D01*
X142888554Y-113385471D01*
X142898782Y-113363847D01*
X142911079Y-113343330D01*
X142925329Y-113324117D01*
X142941393Y-113306393D01*
X142959117Y-113290329D01*
X142978330Y-113276079D01*
X142998847Y-113263782D01*
X143020471Y-113253554D01*
X143042993Y-113245496D01*
X143066197Y-113239684D01*
X143089858Y-113236174D01*
X143113750Y-113235000D01*
X144026250Y-113235000D01*
X144050142Y-113236174D01*
G37*
D11*
X162530000Y-141450000D03*
X162530000Y-138250000D03*
X157630000Y-141450000D03*
X157630000Y-138250000D03*
X154520000Y-121460000D03*
X154520000Y-118260000D03*
X149620000Y-121460000D03*
X149620000Y-118260000D03*
X178530000Y-141450000D03*
X178530000Y-138250000D03*
X173630000Y-141450000D03*
X173630000Y-138250000D03*
X115400000Y-102250000D03*
X115400000Y-105450000D03*
X120300000Y-102250000D03*
X120300000Y-105450000D03*
X99400000Y-102260000D03*
X99400000Y-105460000D03*
X104300000Y-102260000D03*
X104300000Y-105460000D03*
X123380000Y-106260000D03*
X123380000Y-109460000D03*
X128280000Y-106260000D03*
X128280000Y-109460000D03*
X107390000Y-106240000D03*
X107390000Y-109440000D03*
X112290000Y-106240000D03*
X112290000Y-109440000D03*
X115400000Y-110240000D03*
X115400000Y-113440000D03*
X120300000Y-110240000D03*
X120300000Y-113440000D03*
X99400000Y-110260000D03*
X99400000Y-113460000D03*
X104300000Y-110260000D03*
X104300000Y-113460000D03*
X123410000Y-114260000D03*
X123410000Y-117460000D03*
X128310000Y-114260000D03*
X128310000Y-117460000D03*
X107390000Y-114260000D03*
X107390000Y-117460000D03*
X112290000Y-114260000D03*
X112290000Y-117460000D03*
X115390000Y-118250000D03*
X115390000Y-121450000D03*
X120290000Y-118250000D03*
X120290000Y-121450000D03*
X99400000Y-118260000D03*
X99400000Y-121460000D03*
X104300000Y-118260000D03*
X104300000Y-121460000D03*
X123410000Y-122250000D03*
X123410000Y-125450000D03*
X128310000Y-122250000D03*
X128310000Y-125450000D03*
X107400000Y-122260000D03*
X107400000Y-125460000D03*
X112300000Y-122260000D03*
X112300000Y-125460000D03*
X115400000Y-126260000D03*
X115400000Y-129460000D03*
X120300000Y-126260000D03*
X120300000Y-129460000D03*
X99400000Y-126250000D03*
X99400000Y-129450000D03*
X104300000Y-126250000D03*
X104300000Y-129450000D03*
X123400000Y-130250000D03*
X123400000Y-133450000D03*
X128300000Y-130250000D03*
X128300000Y-133450000D03*
X107390000Y-130260000D03*
X107390000Y-133460000D03*
X112290000Y-130260000D03*
X112290000Y-133460000D03*
X115400000Y-134260000D03*
X115400000Y-137460000D03*
X120300000Y-134260000D03*
X120300000Y-137460000D03*
X99380000Y-134240000D03*
X99380000Y-137440000D03*
X104280000Y-134240000D03*
X104280000Y-137440000D03*
X123410000Y-138250000D03*
X123410000Y-141450000D03*
X128310000Y-138250000D03*
X128310000Y-141450000D03*
X107410000Y-138250000D03*
X107410000Y-141450000D03*
X112310000Y-138250000D03*
X112310000Y-141450000D03*
D10*
G36*
X93830142Y-113236174D02*
G01*
X93853803Y-113239684D01*
X93877007Y-113245496D01*
X93899529Y-113253554D01*
X93921153Y-113263782D01*
X93941670Y-113276079D01*
X93960883Y-113290329D01*
X93978607Y-113306393D01*
X93994671Y-113324117D01*
X94008921Y-113343330D01*
X94021218Y-113363847D01*
X94031446Y-113385471D01*
X94039504Y-113407993D01*
X94045316Y-113431197D01*
X94048826Y-113454858D01*
X94050000Y-113478750D01*
X94050000Y-113966250D01*
X94048826Y-113990142D01*
X94045316Y-114013803D01*
X94039504Y-114037007D01*
X94031446Y-114059529D01*
X94021218Y-114081153D01*
X94008921Y-114101670D01*
X93994671Y-114120883D01*
X93978607Y-114138607D01*
X93960883Y-114154671D01*
X93941670Y-114168921D01*
X93921153Y-114181218D01*
X93899529Y-114191446D01*
X93877007Y-114199504D01*
X93853803Y-114205316D01*
X93830142Y-114208826D01*
X93806250Y-114210000D01*
X92893750Y-114210000D01*
X92869858Y-114208826D01*
X92846197Y-114205316D01*
X92822993Y-114199504D01*
X92800471Y-114191446D01*
X92778847Y-114181218D01*
X92758330Y-114168921D01*
X92739117Y-114154671D01*
X92721393Y-114138607D01*
X92705329Y-114120883D01*
X92691079Y-114101670D01*
X92678782Y-114081153D01*
X92668554Y-114059529D01*
X92660496Y-114037007D01*
X92654684Y-114013803D01*
X92651174Y-113990142D01*
X92650000Y-113966250D01*
X92650000Y-113478750D01*
X92651174Y-113454858D01*
X92654684Y-113431197D01*
X92660496Y-113407993D01*
X92668554Y-113385471D01*
X92678782Y-113363847D01*
X92691079Y-113343330D01*
X92705329Y-113324117D01*
X92721393Y-113306393D01*
X92739117Y-113290329D01*
X92758330Y-113276079D01*
X92778847Y-113263782D01*
X92800471Y-113253554D01*
X92822993Y-113245496D01*
X92846197Y-113239684D01*
X92869858Y-113236174D01*
X92893750Y-113235000D01*
X93806250Y-113235000D01*
X93830142Y-113236174D01*
G37*
G36*
X93830142Y-115111174D02*
G01*
X93853803Y-115114684D01*
X93877007Y-115120496D01*
X93899529Y-115128554D01*
X93921153Y-115138782D01*
X93941670Y-115151079D01*
X93960883Y-115165329D01*
X93978607Y-115181393D01*
X93994671Y-115199117D01*
X94008921Y-115218330D01*
X94021218Y-115238847D01*
X94031446Y-115260471D01*
X94039504Y-115282993D01*
X94045316Y-115306197D01*
X94048826Y-115329858D01*
X94050000Y-115353750D01*
X94050000Y-115841250D01*
X94048826Y-115865142D01*
X94045316Y-115888803D01*
X94039504Y-115912007D01*
X94031446Y-115934529D01*
X94021218Y-115956153D01*
X94008921Y-115976670D01*
X93994671Y-115995883D01*
X93978607Y-116013607D01*
X93960883Y-116029671D01*
X93941670Y-116043921D01*
X93921153Y-116056218D01*
X93899529Y-116066446D01*
X93877007Y-116074504D01*
X93853803Y-116080316D01*
X93830142Y-116083826D01*
X93806250Y-116085000D01*
X92893750Y-116085000D01*
X92869858Y-116083826D01*
X92846197Y-116080316D01*
X92822993Y-116074504D01*
X92800471Y-116066446D01*
X92778847Y-116056218D01*
X92758330Y-116043921D01*
X92739117Y-116029671D01*
X92721393Y-116013607D01*
X92705329Y-115995883D01*
X92691079Y-115976670D01*
X92678782Y-115956153D01*
X92668554Y-115934529D01*
X92660496Y-115912007D01*
X92654684Y-115888803D01*
X92651174Y-115865142D01*
X92650000Y-115841250D01*
X92650000Y-115353750D01*
X92651174Y-115329858D01*
X92654684Y-115306197D01*
X92660496Y-115282993D01*
X92668554Y-115260471D01*
X92678782Y-115238847D01*
X92691079Y-115218330D01*
X92705329Y-115199117D01*
X92721393Y-115181393D01*
X92739117Y-115165329D01*
X92758330Y-115151079D01*
X92778847Y-115138782D01*
X92800471Y-115128554D01*
X92822993Y-115120496D01*
X92846197Y-115114684D01*
X92869858Y-115111174D01*
X92893750Y-115110000D01*
X93806250Y-115110000D01*
X93830142Y-115111174D01*
G37*
G36*
X110675142Y-102001174D02*
G01*
X110698803Y-102004684D01*
X110722007Y-102010496D01*
X110744529Y-102018554D01*
X110766153Y-102028782D01*
X110786670Y-102041079D01*
X110805883Y-102055329D01*
X110823607Y-102071393D01*
X110839671Y-102089117D01*
X110853921Y-102108330D01*
X110866218Y-102128847D01*
X110876446Y-102150471D01*
X110884504Y-102172993D01*
X110890316Y-102196197D01*
X110893826Y-102219858D01*
X110895000Y-102243750D01*
X110895000Y-103156250D01*
X110893826Y-103180142D01*
X110890316Y-103203803D01*
X110884504Y-103227007D01*
X110876446Y-103249529D01*
X110866218Y-103271153D01*
X110853921Y-103291670D01*
X110839671Y-103310883D01*
X110823607Y-103328607D01*
X110805883Y-103344671D01*
X110786670Y-103358921D01*
X110766153Y-103371218D01*
X110744529Y-103381446D01*
X110722007Y-103389504D01*
X110698803Y-103395316D01*
X110675142Y-103398826D01*
X110651250Y-103400000D01*
X110163750Y-103400000D01*
X110139858Y-103398826D01*
X110116197Y-103395316D01*
X110092993Y-103389504D01*
X110070471Y-103381446D01*
X110048847Y-103371218D01*
X110028330Y-103358921D01*
X110009117Y-103344671D01*
X109991393Y-103328607D01*
X109975329Y-103310883D01*
X109961079Y-103291670D01*
X109948782Y-103271153D01*
X109938554Y-103249529D01*
X109930496Y-103227007D01*
X109924684Y-103203803D01*
X109921174Y-103180142D01*
X109920000Y-103156250D01*
X109920000Y-102243750D01*
X109921174Y-102219858D01*
X109924684Y-102196197D01*
X109930496Y-102172993D01*
X109938554Y-102150471D01*
X109948782Y-102128847D01*
X109961079Y-102108330D01*
X109975329Y-102089117D01*
X109991393Y-102071393D01*
X110009117Y-102055329D01*
X110028330Y-102041079D01*
X110048847Y-102028782D01*
X110070471Y-102018554D01*
X110092993Y-102010496D01*
X110116197Y-102004684D01*
X110139858Y-102001174D01*
X110163750Y-102000000D01*
X110651250Y-102000000D01*
X110675142Y-102001174D01*
G37*
G36*
X108800142Y-102001174D02*
G01*
X108823803Y-102004684D01*
X108847007Y-102010496D01*
X108869529Y-102018554D01*
X108891153Y-102028782D01*
X108911670Y-102041079D01*
X108930883Y-102055329D01*
X108948607Y-102071393D01*
X108964671Y-102089117D01*
X108978921Y-102108330D01*
X108991218Y-102128847D01*
X109001446Y-102150471D01*
X109009504Y-102172993D01*
X109015316Y-102196197D01*
X109018826Y-102219858D01*
X109020000Y-102243750D01*
X109020000Y-103156250D01*
X109018826Y-103180142D01*
X109015316Y-103203803D01*
X109009504Y-103227007D01*
X109001446Y-103249529D01*
X108991218Y-103271153D01*
X108978921Y-103291670D01*
X108964671Y-103310883D01*
X108948607Y-103328607D01*
X108930883Y-103344671D01*
X108911670Y-103358921D01*
X108891153Y-103371218D01*
X108869529Y-103381446D01*
X108847007Y-103389504D01*
X108823803Y-103395316D01*
X108800142Y-103398826D01*
X108776250Y-103400000D01*
X108288750Y-103400000D01*
X108264858Y-103398826D01*
X108241197Y-103395316D01*
X108217993Y-103389504D01*
X108195471Y-103381446D01*
X108173847Y-103371218D01*
X108153330Y-103358921D01*
X108134117Y-103344671D01*
X108116393Y-103328607D01*
X108100329Y-103310883D01*
X108086079Y-103291670D01*
X108073782Y-103271153D01*
X108063554Y-103249529D01*
X108055496Y-103227007D01*
X108049684Y-103203803D01*
X108046174Y-103180142D01*
X108045000Y-103156250D01*
X108045000Y-102243750D01*
X108046174Y-102219858D01*
X108049684Y-102196197D01*
X108055496Y-102172993D01*
X108063554Y-102150471D01*
X108073782Y-102128847D01*
X108086079Y-102108330D01*
X108100329Y-102089117D01*
X108116393Y-102071393D01*
X108134117Y-102055329D01*
X108153330Y-102041079D01*
X108173847Y-102028782D01*
X108195471Y-102018554D01*
X108217993Y-102010496D01*
X108241197Y-102004684D01*
X108264858Y-102001174D01*
X108288750Y-102000000D01*
X108776250Y-102000000D01*
X108800142Y-102001174D01*
G37*
G36*
X127035142Y-101981174D02*
G01*
X127058803Y-101984684D01*
X127082007Y-101990496D01*
X127104529Y-101998554D01*
X127126153Y-102008782D01*
X127146670Y-102021079D01*
X127165883Y-102035329D01*
X127183607Y-102051393D01*
X127199671Y-102069117D01*
X127213921Y-102088330D01*
X127226218Y-102108847D01*
X127236446Y-102130471D01*
X127244504Y-102152993D01*
X127250316Y-102176197D01*
X127253826Y-102199858D01*
X127255000Y-102223750D01*
X127255000Y-103136250D01*
X127253826Y-103160142D01*
X127250316Y-103183803D01*
X127244504Y-103207007D01*
X127236446Y-103229529D01*
X127226218Y-103251153D01*
X127213921Y-103271670D01*
X127199671Y-103290883D01*
X127183607Y-103308607D01*
X127165883Y-103324671D01*
X127146670Y-103338921D01*
X127126153Y-103351218D01*
X127104529Y-103361446D01*
X127082007Y-103369504D01*
X127058803Y-103375316D01*
X127035142Y-103378826D01*
X127011250Y-103380000D01*
X126523750Y-103380000D01*
X126499858Y-103378826D01*
X126476197Y-103375316D01*
X126452993Y-103369504D01*
X126430471Y-103361446D01*
X126408847Y-103351218D01*
X126388330Y-103338921D01*
X126369117Y-103324671D01*
X126351393Y-103308607D01*
X126335329Y-103290883D01*
X126321079Y-103271670D01*
X126308782Y-103251153D01*
X126298554Y-103229529D01*
X126290496Y-103207007D01*
X126284684Y-103183803D01*
X126281174Y-103160142D01*
X126280000Y-103136250D01*
X126280000Y-102223750D01*
X126281174Y-102199858D01*
X126284684Y-102176197D01*
X126290496Y-102152993D01*
X126298554Y-102130471D01*
X126308782Y-102108847D01*
X126321079Y-102088330D01*
X126335329Y-102069117D01*
X126351393Y-102051393D01*
X126369117Y-102035329D01*
X126388330Y-102021079D01*
X126408847Y-102008782D01*
X126430471Y-101998554D01*
X126452993Y-101990496D01*
X126476197Y-101984684D01*
X126499858Y-101981174D01*
X126523750Y-101980000D01*
X127011250Y-101980000D01*
X127035142Y-101981174D01*
G37*
G36*
X125160142Y-101981174D02*
G01*
X125183803Y-101984684D01*
X125207007Y-101990496D01*
X125229529Y-101998554D01*
X125251153Y-102008782D01*
X125271670Y-102021079D01*
X125290883Y-102035329D01*
X125308607Y-102051393D01*
X125324671Y-102069117D01*
X125338921Y-102088330D01*
X125351218Y-102108847D01*
X125361446Y-102130471D01*
X125369504Y-102152993D01*
X125375316Y-102176197D01*
X125378826Y-102199858D01*
X125380000Y-102223750D01*
X125380000Y-103136250D01*
X125378826Y-103160142D01*
X125375316Y-103183803D01*
X125369504Y-103207007D01*
X125361446Y-103229529D01*
X125351218Y-103251153D01*
X125338921Y-103271670D01*
X125324671Y-103290883D01*
X125308607Y-103308607D01*
X125290883Y-103324671D01*
X125271670Y-103338921D01*
X125251153Y-103351218D01*
X125229529Y-103361446D01*
X125207007Y-103369504D01*
X125183803Y-103375316D01*
X125160142Y-103378826D01*
X125136250Y-103380000D01*
X124648750Y-103380000D01*
X124624858Y-103378826D01*
X124601197Y-103375316D01*
X124577993Y-103369504D01*
X124555471Y-103361446D01*
X124533847Y-103351218D01*
X124513330Y-103338921D01*
X124494117Y-103324671D01*
X124476393Y-103308607D01*
X124460329Y-103290883D01*
X124446079Y-103271670D01*
X124433782Y-103251153D01*
X124423554Y-103229529D01*
X124415496Y-103207007D01*
X124409684Y-103183803D01*
X124406174Y-103160142D01*
X124405000Y-103136250D01*
X124405000Y-102223750D01*
X124406174Y-102199858D01*
X124409684Y-102176197D01*
X124415496Y-102152993D01*
X124423554Y-102130471D01*
X124433782Y-102108847D01*
X124446079Y-102088330D01*
X124460329Y-102069117D01*
X124476393Y-102051393D01*
X124494117Y-102035329D01*
X124513330Y-102021079D01*
X124533847Y-102008782D01*
X124555471Y-101998554D01*
X124577993Y-101990496D01*
X124601197Y-101984684D01*
X124624858Y-101981174D01*
X124648750Y-101980000D01*
X125136250Y-101980000D01*
X125160142Y-101981174D01*
G37*
G36*
X133540142Y-114811174D02*
G01*
X133563803Y-114814684D01*
X133587007Y-114820496D01*
X133609529Y-114828554D01*
X133631153Y-114838782D01*
X133651670Y-114851079D01*
X133670883Y-114865329D01*
X133688607Y-114881393D01*
X133704671Y-114899117D01*
X133718921Y-114918330D01*
X133731218Y-114938847D01*
X133741446Y-114960471D01*
X133749504Y-114982993D01*
X133755316Y-115006197D01*
X133758826Y-115029858D01*
X133760000Y-115053750D01*
X133760000Y-115966250D01*
X133758826Y-115990142D01*
X133755316Y-116013803D01*
X133749504Y-116037007D01*
X133741446Y-116059529D01*
X133731218Y-116081153D01*
X133718921Y-116101670D01*
X133704671Y-116120883D01*
X133688607Y-116138607D01*
X133670883Y-116154671D01*
X133651670Y-116168921D01*
X133631153Y-116181218D01*
X133609529Y-116191446D01*
X133587007Y-116199504D01*
X133563803Y-116205316D01*
X133540142Y-116208826D01*
X133516250Y-116210000D01*
X133028750Y-116210000D01*
X133004858Y-116208826D01*
X132981197Y-116205316D01*
X132957993Y-116199504D01*
X132935471Y-116191446D01*
X132913847Y-116181218D01*
X132893330Y-116168921D01*
X132874117Y-116154671D01*
X132856393Y-116138607D01*
X132840329Y-116120883D01*
X132826079Y-116101670D01*
X132813782Y-116081153D01*
X132803554Y-116059529D01*
X132795496Y-116037007D01*
X132789684Y-116013803D01*
X132786174Y-115990142D01*
X132785000Y-115966250D01*
X132785000Y-115053750D01*
X132786174Y-115029858D01*
X132789684Y-115006197D01*
X132795496Y-114982993D01*
X132803554Y-114960471D01*
X132813782Y-114938847D01*
X132826079Y-114918330D01*
X132840329Y-114899117D01*
X132856393Y-114881393D01*
X132874117Y-114865329D01*
X132893330Y-114851079D01*
X132913847Y-114838782D01*
X132935471Y-114828554D01*
X132957993Y-114820496D01*
X132981197Y-114814684D01*
X133004858Y-114811174D01*
X133028750Y-114810000D01*
X133516250Y-114810000D01*
X133540142Y-114811174D01*
G37*
G36*
X135415142Y-114811174D02*
G01*
X135438803Y-114814684D01*
X135462007Y-114820496D01*
X135484529Y-114828554D01*
X135506153Y-114838782D01*
X135526670Y-114851079D01*
X135545883Y-114865329D01*
X135563607Y-114881393D01*
X135579671Y-114899117D01*
X135593921Y-114918330D01*
X135606218Y-114938847D01*
X135616446Y-114960471D01*
X135624504Y-114982993D01*
X135630316Y-115006197D01*
X135633826Y-115029858D01*
X135635000Y-115053750D01*
X135635000Y-115966250D01*
X135633826Y-115990142D01*
X135630316Y-116013803D01*
X135624504Y-116037007D01*
X135616446Y-116059529D01*
X135606218Y-116081153D01*
X135593921Y-116101670D01*
X135579671Y-116120883D01*
X135563607Y-116138607D01*
X135545883Y-116154671D01*
X135526670Y-116168921D01*
X135506153Y-116181218D01*
X135484529Y-116191446D01*
X135462007Y-116199504D01*
X135438803Y-116205316D01*
X135415142Y-116208826D01*
X135391250Y-116210000D01*
X134903750Y-116210000D01*
X134879858Y-116208826D01*
X134856197Y-116205316D01*
X134832993Y-116199504D01*
X134810471Y-116191446D01*
X134788847Y-116181218D01*
X134768330Y-116168921D01*
X134749117Y-116154671D01*
X134731393Y-116138607D01*
X134715329Y-116120883D01*
X134701079Y-116101670D01*
X134688782Y-116081153D01*
X134678554Y-116059529D01*
X134670496Y-116037007D01*
X134664684Y-116013803D01*
X134661174Y-115990142D01*
X134660000Y-115966250D01*
X134660000Y-115053750D01*
X134661174Y-115029858D01*
X134664684Y-115006197D01*
X134670496Y-114982993D01*
X134678554Y-114960471D01*
X134688782Y-114938847D01*
X134701079Y-114918330D01*
X134715329Y-114899117D01*
X134731393Y-114881393D01*
X134749117Y-114865329D01*
X134768330Y-114851079D01*
X134788847Y-114838782D01*
X134810471Y-114828554D01*
X134832993Y-114820496D01*
X134856197Y-114814684D01*
X134879858Y-114811174D01*
X134903750Y-114810000D01*
X135391250Y-114810000D01*
X135415142Y-114811174D01*
G37*
G36*
X135425142Y-128121174D02*
G01*
X135448803Y-128124684D01*
X135472007Y-128130496D01*
X135494529Y-128138554D01*
X135516153Y-128148782D01*
X135536670Y-128161079D01*
X135555883Y-128175329D01*
X135573607Y-128191393D01*
X135589671Y-128209117D01*
X135603921Y-128228330D01*
X135616218Y-128248847D01*
X135626446Y-128270471D01*
X135634504Y-128292993D01*
X135640316Y-128316197D01*
X135643826Y-128339858D01*
X135645000Y-128363750D01*
X135645000Y-129276250D01*
X135643826Y-129300142D01*
X135640316Y-129323803D01*
X135634504Y-129347007D01*
X135626446Y-129369529D01*
X135616218Y-129391153D01*
X135603921Y-129411670D01*
X135589671Y-129430883D01*
X135573607Y-129448607D01*
X135555883Y-129464671D01*
X135536670Y-129478921D01*
X135516153Y-129491218D01*
X135494529Y-129501446D01*
X135472007Y-129509504D01*
X135448803Y-129515316D01*
X135425142Y-129518826D01*
X135401250Y-129520000D01*
X134913750Y-129520000D01*
X134889858Y-129518826D01*
X134866197Y-129515316D01*
X134842993Y-129509504D01*
X134820471Y-129501446D01*
X134798847Y-129491218D01*
X134778330Y-129478921D01*
X134759117Y-129464671D01*
X134741393Y-129448607D01*
X134725329Y-129430883D01*
X134711079Y-129411670D01*
X134698782Y-129391153D01*
X134688554Y-129369529D01*
X134680496Y-129347007D01*
X134674684Y-129323803D01*
X134671174Y-129300142D01*
X134670000Y-129276250D01*
X134670000Y-128363750D01*
X134671174Y-128339858D01*
X134674684Y-128316197D01*
X134680496Y-128292993D01*
X134688554Y-128270471D01*
X134698782Y-128248847D01*
X134711079Y-128228330D01*
X134725329Y-128209117D01*
X134741393Y-128191393D01*
X134759117Y-128175329D01*
X134778330Y-128161079D01*
X134798847Y-128148782D01*
X134820471Y-128138554D01*
X134842993Y-128130496D01*
X134866197Y-128124684D01*
X134889858Y-128121174D01*
X134913750Y-128120000D01*
X135401250Y-128120000D01*
X135425142Y-128121174D01*
G37*
G36*
X133550142Y-128121174D02*
G01*
X133573803Y-128124684D01*
X133597007Y-128130496D01*
X133619529Y-128138554D01*
X133641153Y-128148782D01*
X133661670Y-128161079D01*
X133680883Y-128175329D01*
X133698607Y-128191393D01*
X133714671Y-128209117D01*
X133728921Y-128228330D01*
X133741218Y-128248847D01*
X133751446Y-128270471D01*
X133759504Y-128292993D01*
X133765316Y-128316197D01*
X133768826Y-128339858D01*
X133770000Y-128363750D01*
X133770000Y-129276250D01*
X133768826Y-129300142D01*
X133765316Y-129323803D01*
X133759504Y-129347007D01*
X133751446Y-129369529D01*
X133741218Y-129391153D01*
X133728921Y-129411670D01*
X133714671Y-129430883D01*
X133698607Y-129448607D01*
X133680883Y-129464671D01*
X133661670Y-129478921D01*
X133641153Y-129491218D01*
X133619529Y-129501446D01*
X133597007Y-129509504D01*
X133573803Y-129515316D01*
X133550142Y-129518826D01*
X133526250Y-129520000D01*
X133038750Y-129520000D01*
X133014858Y-129518826D01*
X132991197Y-129515316D01*
X132967993Y-129509504D01*
X132945471Y-129501446D01*
X132923847Y-129491218D01*
X132903330Y-129478921D01*
X132884117Y-129464671D01*
X132866393Y-129448607D01*
X132850329Y-129430883D01*
X132836079Y-129411670D01*
X132823782Y-129391153D01*
X132813554Y-129369529D01*
X132805496Y-129347007D01*
X132799684Y-129323803D01*
X132796174Y-129300142D01*
X132795000Y-129276250D01*
X132795000Y-128363750D01*
X132796174Y-128339858D01*
X132799684Y-128316197D01*
X132805496Y-128292993D01*
X132813554Y-128270471D01*
X132823782Y-128248847D01*
X132836079Y-128228330D01*
X132850329Y-128209117D01*
X132866393Y-128191393D01*
X132884117Y-128175329D01*
X132903330Y-128161079D01*
X132923847Y-128148782D01*
X132945471Y-128138554D01*
X132967993Y-128130496D01*
X132991197Y-128124684D01*
X133014858Y-128121174D01*
X133038750Y-128120000D01*
X133526250Y-128120000D01*
X133550142Y-128121174D01*
G37*
G36*
X119535142Y-140011174D02*
G01*
X119558803Y-140014684D01*
X119582007Y-140020496D01*
X119604529Y-140028554D01*
X119626153Y-140038782D01*
X119646670Y-140051079D01*
X119665883Y-140065329D01*
X119683607Y-140081393D01*
X119699671Y-140099117D01*
X119713921Y-140118330D01*
X119726218Y-140138847D01*
X119736446Y-140160471D01*
X119744504Y-140182993D01*
X119750316Y-140206197D01*
X119753826Y-140229858D01*
X119755000Y-140253750D01*
X119755000Y-141166250D01*
X119753826Y-141190142D01*
X119750316Y-141213803D01*
X119744504Y-141237007D01*
X119736446Y-141259529D01*
X119726218Y-141281153D01*
X119713921Y-141301670D01*
X119699671Y-141320883D01*
X119683607Y-141338607D01*
X119665883Y-141354671D01*
X119646670Y-141368921D01*
X119626153Y-141381218D01*
X119604529Y-141391446D01*
X119582007Y-141399504D01*
X119558803Y-141405316D01*
X119535142Y-141408826D01*
X119511250Y-141410000D01*
X119023750Y-141410000D01*
X118999858Y-141408826D01*
X118976197Y-141405316D01*
X118952993Y-141399504D01*
X118930471Y-141391446D01*
X118908847Y-141381218D01*
X118888330Y-141368921D01*
X118869117Y-141354671D01*
X118851393Y-141338607D01*
X118835329Y-141320883D01*
X118821079Y-141301670D01*
X118808782Y-141281153D01*
X118798554Y-141259529D01*
X118790496Y-141237007D01*
X118784684Y-141213803D01*
X118781174Y-141190142D01*
X118780000Y-141166250D01*
X118780000Y-140253750D01*
X118781174Y-140229858D01*
X118784684Y-140206197D01*
X118790496Y-140182993D01*
X118798554Y-140160471D01*
X118808782Y-140138847D01*
X118821079Y-140118330D01*
X118835329Y-140099117D01*
X118851393Y-140081393D01*
X118869117Y-140065329D01*
X118888330Y-140051079D01*
X118908847Y-140038782D01*
X118930471Y-140028554D01*
X118952993Y-140020496D01*
X118976197Y-140014684D01*
X118999858Y-140011174D01*
X119023750Y-140010000D01*
X119511250Y-140010000D01*
X119535142Y-140011174D01*
G37*
G36*
X117660142Y-140011174D02*
G01*
X117683803Y-140014684D01*
X117707007Y-140020496D01*
X117729529Y-140028554D01*
X117751153Y-140038782D01*
X117771670Y-140051079D01*
X117790883Y-140065329D01*
X117808607Y-140081393D01*
X117824671Y-140099117D01*
X117838921Y-140118330D01*
X117851218Y-140138847D01*
X117861446Y-140160471D01*
X117869504Y-140182993D01*
X117875316Y-140206197D01*
X117878826Y-140229858D01*
X117880000Y-140253750D01*
X117880000Y-141166250D01*
X117878826Y-141190142D01*
X117875316Y-141213803D01*
X117869504Y-141237007D01*
X117861446Y-141259529D01*
X117851218Y-141281153D01*
X117838921Y-141301670D01*
X117824671Y-141320883D01*
X117808607Y-141338607D01*
X117790883Y-141354671D01*
X117771670Y-141368921D01*
X117751153Y-141381218D01*
X117729529Y-141391446D01*
X117707007Y-141399504D01*
X117683803Y-141405316D01*
X117660142Y-141408826D01*
X117636250Y-141410000D01*
X117148750Y-141410000D01*
X117124858Y-141408826D01*
X117101197Y-141405316D01*
X117077993Y-141399504D01*
X117055471Y-141391446D01*
X117033847Y-141381218D01*
X117013330Y-141368921D01*
X116994117Y-141354671D01*
X116976393Y-141338607D01*
X116960329Y-141320883D01*
X116946079Y-141301670D01*
X116933782Y-141281153D01*
X116923554Y-141259529D01*
X116915496Y-141237007D01*
X116909684Y-141213803D01*
X116906174Y-141190142D01*
X116905000Y-141166250D01*
X116905000Y-140253750D01*
X116906174Y-140229858D01*
X116909684Y-140206197D01*
X116915496Y-140182993D01*
X116923554Y-140160471D01*
X116933782Y-140138847D01*
X116946079Y-140118330D01*
X116960329Y-140099117D01*
X116976393Y-140081393D01*
X116994117Y-140065329D01*
X117013330Y-140051079D01*
X117033847Y-140038782D01*
X117055471Y-140028554D01*
X117077993Y-140020496D01*
X117101197Y-140014684D01*
X117124858Y-140011174D01*
X117148750Y-140010000D01*
X117636250Y-140010000D01*
X117660142Y-140011174D01*
G37*
G36*
X103157642Y-139971174D02*
G01*
X103181303Y-139974684D01*
X103204507Y-139980496D01*
X103227029Y-139988554D01*
X103248653Y-139998782D01*
X103269170Y-140011079D01*
X103288383Y-140025329D01*
X103306107Y-140041393D01*
X103322171Y-140059117D01*
X103336421Y-140078330D01*
X103348718Y-140098847D01*
X103358946Y-140120471D01*
X103367004Y-140142993D01*
X103372816Y-140166197D01*
X103376326Y-140189858D01*
X103377500Y-140213750D01*
X103377500Y-141126250D01*
X103376326Y-141150142D01*
X103372816Y-141173803D01*
X103367004Y-141197007D01*
X103358946Y-141219529D01*
X103348718Y-141241153D01*
X103336421Y-141261670D01*
X103322171Y-141280883D01*
X103306107Y-141298607D01*
X103288383Y-141314671D01*
X103269170Y-141328921D01*
X103248653Y-141341218D01*
X103227029Y-141351446D01*
X103204507Y-141359504D01*
X103181303Y-141365316D01*
X103157642Y-141368826D01*
X103133750Y-141370000D01*
X102646250Y-141370000D01*
X102622358Y-141368826D01*
X102598697Y-141365316D01*
X102575493Y-141359504D01*
X102552971Y-141351446D01*
X102531347Y-141341218D01*
X102510830Y-141328921D01*
X102491617Y-141314671D01*
X102473893Y-141298607D01*
X102457829Y-141280883D01*
X102443579Y-141261670D01*
X102431282Y-141241153D01*
X102421054Y-141219529D01*
X102412996Y-141197007D01*
X102407184Y-141173803D01*
X102403674Y-141150142D01*
X102402500Y-141126250D01*
X102402500Y-140213750D01*
X102403674Y-140189858D01*
X102407184Y-140166197D01*
X102412996Y-140142993D01*
X102421054Y-140120471D01*
X102431282Y-140098847D01*
X102443579Y-140078330D01*
X102457829Y-140059117D01*
X102473893Y-140041393D01*
X102491617Y-140025329D01*
X102510830Y-140011079D01*
X102531347Y-139998782D01*
X102552971Y-139988554D01*
X102575493Y-139980496D01*
X102598697Y-139974684D01*
X102622358Y-139971174D01*
X102646250Y-139970000D01*
X103133750Y-139970000D01*
X103157642Y-139971174D01*
G37*
G36*
X101282642Y-139971174D02*
G01*
X101306303Y-139974684D01*
X101329507Y-139980496D01*
X101352029Y-139988554D01*
X101373653Y-139998782D01*
X101394170Y-140011079D01*
X101413383Y-140025329D01*
X101431107Y-140041393D01*
X101447171Y-140059117D01*
X101461421Y-140078330D01*
X101473718Y-140098847D01*
X101483946Y-140120471D01*
X101492004Y-140142993D01*
X101497816Y-140166197D01*
X101501326Y-140189858D01*
X101502500Y-140213750D01*
X101502500Y-141126250D01*
X101501326Y-141150142D01*
X101497816Y-141173803D01*
X101492004Y-141197007D01*
X101483946Y-141219529D01*
X101473718Y-141241153D01*
X101461421Y-141261670D01*
X101447171Y-141280883D01*
X101431107Y-141298607D01*
X101413383Y-141314671D01*
X101394170Y-141328921D01*
X101373653Y-141341218D01*
X101352029Y-141351446D01*
X101329507Y-141359504D01*
X101306303Y-141365316D01*
X101282642Y-141368826D01*
X101258750Y-141370000D01*
X100771250Y-141370000D01*
X100747358Y-141368826D01*
X100723697Y-141365316D01*
X100700493Y-141359504D01*
X100677971Y-141351446D01*
X100656347Y-141341218D01*
X100635830Y-141328921D01*
X100616617Y-141314671D01*
X100598893Y-141298607D01*
X100582829Y-141280883D01*
X100568579Y-141261670D01*
X100556282Y-141241153D01*
X100546054Y-141219529D01*
X100537996Y-141197007D01*
X100532184Y-141173803D01*
X100528674Y-141150142D01*
X100527500Y-141126250D01*
X100527500Y-140213750D01*
X100528674Y-140189858D01*
X100532184Y-140166197D01*
X100537996Y-140142993D01*
X100546054Y-140120471D01*
X100556282Y-140098847D01*
X100568579Y-140078330D01*
X100582829Y-140059117D01*
X100598893Y-140041393D01*
X100616617Y-140025329D01*
X100635830Y-140011079D01*
X100656347Y-139998782D01*
X100677971Y-139988554D01*
X100700493Y-139980496D01*
X100723697Y-139974684D01*
X100747358Y-139971174D01*
X100771250Y-139970000D01*
X101258750Y-139970000D01*
X101282642Y-139971174D01*
G37*
G36*
X93820142Y-127508674D02*
G01*
X93843803Y-127512184D01*
X93867007Y-127517996D01*
X93889529Y-127526054D01*
X93911153Y-127536282D01*
X93931670Y-127548579D01*
X93950883Y-127562829D01*
X93968607Y-127578893D01*
X93984671Y-127596617D01*
X93998921Y-127615830D01*
X94011218Y-127636347D01*
X94021446Y-127657971D01*
X94029504Y-127680493D01*
X94035316Y-127703697D01*
X94038826Y-127727358D01*
X94040000Y-127751250D01*
X94040000Y-128238750D01*
X94038826Y-128262642D01*
X94035316Y-128286303D01*
X94029504Y-128309507D01*
X94021446Y-128332029D01*
X94011218Y-128353653D01*
X93998921Y-128374170D01*
X93984671Y-128393383D01*
X93968607Y-128411107D01*
X93950883Y-128427171D01*
X93931670Y-128441421D01*
X93911153Y-128453718D01*
X93889529Y-128463946D01*
X93867007Y-128472004D01*
X93843803Y-128477816D01*
X93820142Y-128481326D01*
X93796250Y-128482500D01*
X92883750Y-128482500D01*
X92859858Y-128481326D01*
X92836197Y-128477816D01*
X92812993Y-128472004D01*
X92790471Y-128463946D01*
X92768847Y-128453718D01*
X92748330Y-128441421D01*
X92729117Y-128427171D01*
X92711393Y-128411107D01*
X92695329Y-128393383D01*
X92681079Y-128374170D01*
X92668782Y-128353653D01*
X92658554Y-128332029D01*
X92650496Y-128309507D01*
X92644684Y-128286303D01*
X92641174Y-128262642D01*
X92640000Y-128238750D01*
X92640000Y-127751250D01*
X92641174Y-127727358D01*
X92644684Y-127703697D01*
X92650496Y-127680493D01*
X92658554Y-127657971D01*
X92668782Y-127636347D01*
X92681079Y-127615830D01*
X92695329Y-127596617D01*
X92711393Y-127578893D01*
X92729117Y-127562829D01*
X92748330Y-127548579D01*
X92768847Y-127536282D01*
X92790471Y-127526054D01*
X92812993Y-127517996D01*
X92836197Y-127512184D01*
X92859858Y-127508674D01*
X92883750Y-127507500D01*
X93796250Y-127507500D01*
X93820142Y-127508674D01*
G37*
G36*
X93820142Y-129383674D02*
G01*
X93843803Y-129387184D01*
X93867007Y-129392996D01*
X93889529Y-129401054D01*
X93911153Y-129411282D01*
X93931670Y-129423579D01*
X93950883Y-129437829D01*
X93968607Y-129453893D01*
X93984671Y-129471617D01*
X93998921Y-129490830D01*
X94011218Y-129511347D01*
X94021446Y-129532971D01*
X94029504Y-129555493D01*
X94035316Y-129578697D01*
X94038826Y-129602358D01*
X94040000Y-129626250D01*
X94040000Y-130113750D01*
X94038826Y-130137642D01*
X94035316Y-130161303D01*
X94029504Y-130184507D01*
X94021446Y-130207029D01*
X94011218Y-130228653D01*
X93998921Y-130249170D01*
X93984671Y-130268383D01*
X93968607Y-130286107D01*
X93950883Y-130302171D01*
X93931670Y-130316421D01*
X93911153Y-130328718D01*
X93889529Y-130338946D01*
X93867007Y-130347004D01*
X93843803Y-130352816D01*
X93820142Y-130356326D01*
X93796250Y-130357500D01*
X92883750Y-130357500D01*
X92859858Y-130356326D01*
X92836197Y-130352816D01*
X92812993Y-130347004D01*
X92790471Y-130338946D01*
X92768847Y-130328718D01*
X92748330Y-130316421D01*
X92729117Y-130302171D01*
X92711393Y-130286107D01*
X92695329Y-130268383D01*
X92681079Y-130249170D01*
X92668782Y-130228653D01*
X92658554Y-130207029D01*
X92650496Y-130184507D01*
X92644684Y-130161303D01*
X92641174Y-130137642D01*
X92640000Y-130113750D01*
X92640000Y-129626250D01*
X92641174Y-129602358D01*
X92644684Y-129578697D01*
X92650496Y-129555493D01*
X92658554Y-129532971D01*
X92668782Y-129511347D01*
X92681079Y-129490830D01*
X92695329Y-129471617D01*
X92711393Y-129453893D01*
X92729117Y-129437829D01*
X92748330Y-129423579D01*
X92768847Y-129411282D01*
X92790471Y-129401054D01*
X92812993Y-129392996D01*
X92836197Y-129387184D01*
X92859858Y-129383674D01*
X92883750Y-129382500D01*
X93796250Y-129382500D01*
X93820142Y-129383674D01*
G37*
M02*
