G04 #@! TF.GenerationSoftware,KiCad,Pcbnew,(5.1.5)-3*
G04 #@! TF.CreationDate,2019-12-09T10:08:32+08:00*
G04 #@! TF.ProjectId,LED__,4c454495-7f2e-46b6-9963-61645f706362,rev?*
G04 #@! TF.SameCoordinates,Original*
G04 #@! TF.FileFunction,Soldermask,Bot*
G04 #@! TF.FilePolarity,Negative*
%FSLAX46Y46*%
G04 Gerber Fmt 4.6, Leading zero omitted, Abs format (unit mm)*
G04 Created by KiCad (PCBNEW (5.1.5)-3) date 2019-12-09 10:08:32*
%MOMM*%
%LPD*%
G04 APERTURE LIST*
%ADD10C,0.100000*%
G04 APERTURE END LIST*
D10*
G36*
X185123512Y-123503927D02*
G01*
X185272812Y-123533624D01*
X185436784Y-123601544D01*
X185584354Y-123700147D01*
X185709853Y-123825646D01*
X185808456Y-123973216D01*
X185876376Y-124137188D01*
X185911000Y-124311259D01*
X185911000Y-124488741D01*
X185876376Y-124662812D01*
X185808456Y-124826784D01*
X185709853Y-124974354D01*
X185584354Y-125099853D01*
X185436784Y-125198456D01*
X185272812Y-125266376D01*
X185123512Y-125296073D01*
X185098742Y-125301000D01*
X184921258Y-125301000D01*
X184896488Y-125296073D01*
X184747188Y-125266376D01*
X184583216Y-125198456D01*
X184435646Y-125099853D01*
X184310147Y-124974354D01*
X184211544Y-124826784D01*
X184143624Y-124662812D01*
X184109000Y-124488741D01*
X184109000Y-124311259D01*
X184143624Y-124137188D01*
X184211544Y-123973216D01*
X184310147Y-123825646D01*
X184435646Y-123700147D01*
X184583216Y-123601544D01*
X184747188Y-123533624D01*
X184896488Y-123503927D01*
X184921258Y-123499000D01*
X185098742Y-123499000D01*
X185123512Y-123503927D01*
G37*
G36*
X134903512Y-123503927D02*
G01*
X135052812Y-123533624D01*
X135216784Y-123601544D01*
X135364354Y-123700147D01*
X135489853Y-123825646D01*
X135588456Y-123973216D01*
X135656376Y-124137188D01*
X135691000Y-124311259D01*
X135691000Y-124488741D01*
X135656376Y-124662812D01*
X135588456Y-124826784D01*
X135489853Y-124974354D01*
X135364354Y-125099853D01*
X135216784Y-125198456D01*
X135052812Y-125266376D01*
X134903512Y-125296073D01*
X134878742Y-125301000D01*
X134701258Y-125301000D01*
X134676488Y-125296073D01*
X134527188Y-125266376D01*
X134363216Y-125198456D01*
X134215646Y-125099853D01*
X134090147Y-124974354D01*
X133991544Y-124826784D01*
X133923624Y-124662812D01*
X133889000Y-124488741D01*
X133889000Y-124311259D01*
X133923624Y-124137188D01*
X133991544Y-123973216D01*
X134090147Y-123825646D01*
X134215646Y-123700147D01*
X134363216Y-123601544D01*
X134527188Y-123533624D01*
X134676488Y-123503927D01*
X134701258Y-123499000D01*
X134878742Y-123499000D01*
X134903512Y-123503927D01*
G37*
G36*
X143133512Y-123443927D02*
G01*
X143282812Y-123473624D01*
X143446784Y-123541544D01*
X143594354Y-123640147D01*
X143719853Y-123765646D01*
X143818456Y-123913216D01*
X143886376Y-124077188D01*
X143921000Y-124251259D01*
X143921000Y-124428741D01*
X143886376Y-124602812D01*
X143818456Y-124766784D01*
X143719853Y-124914354D01*
X143594354Y-125039853D01*
X143446784Y-125138456D01*
X143282812Y-125206376D01*
X143133512Y-125236073D01*
X143108742Y-125241000D01*
X142931258Y-125241000D01*
X142906488Y-125236073D01*
X142757188Y-125206376D01*
X142593216Y-125138456D01*
X142445646Y-125039853D01*
X142320147Y-124914354D01*
X142221544Y-124766784D01*
X142153624Y-124602812D01*
X142119000Y-124428741D01*
X142119000Y-124251259D01*
X142153624Y-124077188D01*
X142221544Y-123913216D01*
X142320147Y-123765646D01*
X142445646Y-123640147D01*
X142593216Y-123541544D01*
X142757188Y-123473624D01*
X142906488Y-123443927D01*
X142931258Y-123439000D01*
X143108742Y-123439000D01*
X143133512Y-123443927D01*
G37*
G36*
X92913512Y-123443927D02*
G01*
X93062812Y-123473624D01*
X93226784Y-123541544D01*
X93374354Y-123640147D01*
X93499853Y-123765646D01*
X93598456Y-123913216D01*
X93666376Y-124077188D01*
X93701000Y-124251259D01*
X93701000Y-124428741D01*
X93666376Y-124602812D01*
X93598456Y-124766784D01*
X93499853Y-124914354D01*
X93374354Y-125039853D01*
X93226784Y-125138456D01*
X93062812Y-125206376D01*
X92913512Y-125236073D01*
X92888742Y-125241000D01*
X92711258Y-125241000D01*
X92686488Y-125236073D01*
X92537188Y-125206376D01*
X92373216Y-125138456D01*
X92225646Y-125039853D01*
X92100147Y-124914354D01*
X92001544Y-124766784D01*
X91933624Y-124602812D01*
X91899000Y-124428741D01*
X91899000Y-124251259D01*
X91933624Y-124077188D01*
X92001544Y-123913216D01*
X92100147Y-123765646D01*
X92225646Y-123640147D01*
X92373216Y-123541544D01*
X92537188Y-123473624D01*
X92686488Y-123443927D01*
X92711258Y-123439000D01*
X92888742Y-123439000D01*
X92913512Y-123443927D01*
G37*
G36*
X185123512Y-120963927D02*
G01*
X185272812Y-120993624D01*
X185436784Y-121061544D01*
X185584354Y-121160147D01*
X185709853Y-121285646D01*
X185808456Y-121433216D01*
X185876376Y-121597188D01*
X185911000Y-121771259D01*
X185911000Y-121948741D01*
X185876376Y-122122812D01*
X185808456Y-122286784D01*
X185709853Y-122434354D01*
X185584354Y-122559853D01*
X185436784Y-122658456D01*
X185272812Y-122726376D01*
X185123512Y-122756073D01*
X185098742Y-122761000D01*
X184921258Y-122761000D01*
X184896488Y-122756073D01*
X184747188Y-122726376D01*
X184583216Y-122658456D01*
X184435646Y-122559853D01*
X184310147Y-122434354D01*
X184211544Y-122286784D01*
X184143624Y-122122812D01*
X184109000Y-121948741D01*
X184109000Y-121771259D01*
X184143624Y-121597188D01*
X184211544Y-121433216D01*
X184310147Y-121285646D01*
X184435646Y-121160147D01*
X184583216Y-121061544D01*
X184747188Y-120993624D01*
X184896488Y-120963927D01*
X184921258Y-120959000D01*
X185098742Y-120959000D01*
X185123512Y-120963927D01*
G37*
G36*
X134903512Y-120963927D02*
G01*
X135052812Y-120993624D01*
X135216784Y-121061544D01*
X135364354Y-121160147D01*
X135489853Y-121285646D01*
X135588456Y-121433216D01*
X135656376Y-121597188D01*
X135691000Y-121771259D01*
X135691000Y-121948741D01*
X135656376Y-122122812D01*
X135588456Y-122286784D01*
X135489853Y-122434354D01*
X135364354Y-122559853D01*
X135216784Y-122658456D01*
X135052812Y-122726376D01*
X134903512Y-122756073D01*
X134878742Y-122761000D01*
X134701258Y-122761000D01*
X134676488Y-122756073D01*
X134527188Y-122726376D01*
X134363216Y-122658456D01*
X134215646Y-122559853D01*
X134090147Y-122434354D01*
X133991544Y-122286784D01*
X133923624Y-122122812D01*
X133889000Y-121948741D01*
X133889000Y-121771259D01*
X133923624Y-121597188D01*
X133991544Y-121433216D01*
X134090147Y-121285646D01*
X134215646Y-121160147D01*
X134363216Y-121061544D01*
X134527188Y-120993624D01*
X134676488Y-120963927D01*
X134701258Y-120959000D01*
X134878742Y-120959000D01*
X134903512Y-120963927D01*
G37*
G36*
X92913512Y-120903927D02*
G01*
X93062812Y-120933624D01*
X93226784Y-121001544D01*
X93374354Y-121100147D01*
X93499853Y-121225646D01*
X93598456Y-121373216D01*
X93666376Y-121537188D01*
X93701000Y-121711259D01*
X93701000Y-121888741D01*
X93666376Y-122062812D01*
X93598456Y-122226784D01*
X93499853Y-122374354D01*
X93374354Y-122499853D01*
X93226784Y-122598456D01*
X93062812Y-122666376D01*
X92913512Y-122696073D01*
X92888742Y-122701000D01*
X92711258Y-122701000D01*
X92686488Y-122696073D01*
X92537188Y-122666376D01*
X92373216Y-122598456D01*
X92225646Y-122499853D01*
X92100147Y-122374354D01*
X92001544Y-122226784D01*
X91933624Y-122062812D01*
X91899000Y-121888741D01*
X91899000Y-121711259D01*
X91933624Y-121537188D01*
X92001544Y-121373216D01*
X92100147Y-121225646D01*
X92225646Y-121100147D01*
X92373216Y-121001544D01*
X92537188Y-120933624D01*
X92686488Y-120903927D01*
X92711258Y-120899000D01*
X92888742Y-120899000D01*
X92913512Y-120903927D01*
G37*
G36*
X143133512Y-120903927D02*
G01*
X143282812Y-120933624D01*
X143446784Y-121001544D01*
X143594354Y-121100147D01*
X143719853Y-121225646D01*
X143818456Y-121373216D01*
X143886376Y-121537188D01*
X143921000Y-121711259D01*
X143921000Y-121888741D01*
X143886376Y-122062812D01*
X143818456Y-122226784D01*
X143719853Y-122374354D01*
X143594354Y-122499853D01*
X143446784Y-122598456D01*
X143282812Y-122666376D01*
X143133512Y-122696073D01*
X143108742Y-122701000D01*
X142931258Y-122701000D01*
X142906488Y-122696073D01*
X142757188Y-122666376D01*
X142593216Y-122598456D01*
X142445646Y-122499853D01*
X142320147Y-122374354D01*
X142221544Y-122226784D01*
X142153624Y-122062812D01*
X142119000Y-121888741D01*
X142119000Y-121711259D01*
X142153624Y-121537188D01*
X142221544Y-121373216D01*
X142320147Y-121225646D01*
X142445646Y-121100147D01*
X142593216Y-121001544D01*
X142757188Y-120933624D01*
X142906488Y-120903927D01*
X142931258Y-120899000D01*
X143108742Y-120899000D01*
X143133512Y-120903927D01*
G37*
G36*
X135691000Y-120221000D02*
G01*
X133889000Y-120221000D01*
X133889000Y-118419000D01*
X135691000Y-118419000D01*
X135691000Y-120221000D01*
G37*
G36*
X185911000Y-120221000D02*
G01*
X184109000Y-120221000D01*
X184109000Y-118419000D01*
X185911000Y-118419000D01*
X185911000Y-120221000D01*
G37*
G36*
X93701000Y-120161000D02*
G01*
X91899000Y-120161000D01*
X91899000Y-118359000D01*
X93701000Y-118359000D01*
X93701000Y-120161000D01*
G37*
G36*
X143921000Y-120161000D02*
G01*
X142119000Y-120161000D01*
X142119000Y-118359000D01*
X143921000Y-118359000D01*
X143921000Y-120161000D01*
G37*
G36*
X134893512Y-73243927D02*
G01*
X135042812Y-73273624D01*
X135206784Y-73341544D01*
X135354354Y-73440147D01*
X135479853Y-73565646D01*
X135578456Y-73713216D01*
X135646376Y-73877188D01*
X135681000Y-74051259D01*
X135681000Y-74228741D01*
X135646376Y-74402812D01*
X135578456Y-74566784D01*
X135479853Y-74714354D01*
X135354354Y-74839853D01*
X135206784Y-74938456D01*
X135042812Y-75006376D01*
X134893512Y-75036073D01*
X134868742Y-75041000D01*
X134691258Y-75041000D01*
X134666488Y-75036073D01*
X134517188Y-75006376D01*
X134353216Y-74938456D01*
X134205646Y-74839853D01*
X134080147Y-74714354D01*
X133981544Y-74566784D01*
X133913624Y-74402812D01*
X133879000Y-74228741D01*
X133879000Y-74051259D01*
X133913624Y-73877188D01*
X133981544Y-73713216D01*
X134080147Y-73565646D01*
X134205646Y-73440147D01*
X134353216Y-73341544D01*
X134517188Y-73273624D01*
X134666488Y-73243927D01*
X134691258Y-73239000D01*
X134868742Y-73239000D01*
X134893512Y-73243927D01*
G37*
G36*
X185113512Y-73243927D02*
G01*
X185262812Y-73273624D01*
X185426784Y-73341544D01*
X185574354Y-73440147D01*
X185699853Y-73565646D01*
X185798456Y-73713216D01*
X185866376Y-73877188D01*
X185901000Y-74051259D01*
X185901000Y-74228741D01*
X185866376Y-74402812D01*
X185798456Y-74566784D01*
X185699853Y-74714354D01*
X185574354Y-74839853D01*
X185426784Y-74938456D01*
X185262812Y-75006376D01*
X185113512Y-75036073D01*
X185088742Y-75041000D01*
X184911258Y-75041000D01*
X184886488Y-75036073D01*
X184737188Y-75006376D01*
X184573216Y-74938456D01*
X184425646Y-74839853D01*
X184300147Y-74714354D01*
X184201544Y-74566784D01*
X184133624Y-74402812D01*
X184099000Y-74228741D01*
X184099000Y-74051259D01*
X184133624Y-73877188D01*
X184201544Y-73713216D01*
X184300147Y-73565646D01*
X184425646Y-73440147D01*
X184573216Y-73341544D01*
X184737188Y-73273624D01*
X184886488Y-73243927D01*
X184911258Y-73239000D01*
X185088742Y-73239000D01*
X185113512Y-73243927D01*
G37*
G36*
X143123512Y-73183927D02*
G01*
X143272812Y-73213624D01*
X143436784Y-73281544D01*
X143584354Y-73380147D01*
X143709853Y-73505646D01*
X143808456Y-73653216D01*
X143876376Y-73817188D01*
X143911000Y-73991259D01*
X143911000Y-74168741D01*
X143876376Y-74342812D01*
X143808456Y-74506784D01*
X143709853Y-74654354D01*
X143584354Y-74779853D01*
X143436784Y-74878456D01*
X143272812Y-74946376D01*
X143123512Y-74976073D01*
X143098742Y-74981000D01*
X142921258Y-74981000D01*
X142896488Y-74976073D01*
X142747188Y-74946376D01*
X142583216Y-74878456D01*
X142435646Y-74779853D01*
X142310147Y-74654354D01*
X142211544Y-74506784D01*
X142143624Y-74342812D01*
X142109000Y-74168741D01*
X142109000Y-73991259D01*
X142143624Y-73817188D01*
X142211544Y-73653216D01*
X142310147Y-73505646D01*
X142435646Y-73380147D01*
X142583216Y-73281544D01*
X142747188Y-73213624D01*
X142896488Y-73183927D01*
X142921258Y-73179000D01*
X143098742Y-73179000D01*
X143123512Y-73183927D01*
G37*
G36*
X92903512Y-73183927D02*
G01*
X93052812Y-73213624D01*
X93216784Y-73281544D01*
X93364354Y-73380147D01*
X93489853Y-73505646D01*
X93588456Y-73653216D01*
X93656376Y-73817188D01*
X93691000Y-73991259D01*
X93691000Y-74168741D01*
X93656376Y-74342812D01*
X93588456Y-74506784D01*
X93489853Y-74654354D01*
X93364354Y-74779853D01*
X93216784Y-74878456D01*
X93052812Y-74946376D01*
X92903512Y-74976073D01*
X92878742Y-74981000D01*
X92701258Y-74981000D01*
X92676488Y-74976073D01*
X92527188Y-74946376D01*
X92363216Y-74878456D01*
X92215646Y-74779853D01*
X92090147Y-74654354D01*
X91991544Y-74506784D01*
X91923624Y-74342812D01*
X91889000Y-74168741D01*
X91889000Y-73991259D01*
X91923624Y-73817188D01*
X91991544Y-73653216D01*
X92090147Y-73505646D01*
X92215646Y-73380147D01*
X92363216Y-73281544D01*
X92527188Y-73213624D01*
X92676488Y-73183927D01*
X92701258Y-73179000D01*
X92878742Y-73179000D01*
X92903512Y-73183927D01*
G37*
G36*
X185113512Y-70703927D02*
G01*
X185262812Y-70733624D01*
X185426784Y-70801544D01*
X185574354Y-70900147D01*
X185699853Y-71025646D01*
X185798456Y-71173216D01*
X185866376Y-71337188D01*
X185901000Y-71511259D01*
X185901000Y-71688741D01*
X185866376Y-71862812D01*
X185798456Y-72026784D01*
X185699853Y-72174354D01*
X185574354Y-72299853D01*
X185426784Y-72398456D01*
X185262812Y-72466376D01*
X185113512Y-72496073D01*
X185088742Y-72501000D01*
X184911258Y-72501000D01*
X184886488Y-72496073D01*
X184737188Y-72466376D01*
X184573216Y-72398456D01*
X184425646Y-72299853D01*
X184300147Y-72174354D01*
X184201544Y-72026784D01*
X184133624Y-71862812D01*
X184099000Y-71688741D01*
X184099000Y-71511259D01*
X184133624Y-71337188D01*
X184201544Y-71173216D01*
X184300147Y-71025646D01*
X184425646Y-70900147D01*
X184573216Y-70801544D01*
X184737188Y-70733624D01*
X184886488Y-70703927D01*
X184911258Y-70699000D01*
X185088742Y-70699000D01*
X185113512Y-70703927D01*
G37*
G36*
X134893512Y-70703927D02*
G01*
X135042812Y-70733624D01*
X135206784Y-70801544D01*
X135354354Y-70900147D01*
X135479853Y-71025646D01*
X135578456Y-71173216D01*
X135646376Y-71337188D01*
X135681000Y-71511259D01*
X135681000Y-71688741D01*
X135646376Y-71862812D01*
X135578456Y-72026784D01*
X135479853Y-72174354D01*
X135354354Y-72299853D01*
X135206784Y-72398456D01*
X135042812Y-72466376D01*
X134893512Y-72496073D01*
X134868742Y-72501000D01*
X134691258Y-72501000D01*
X134666488Y-72496073D01*
X134517188Y-72466376D01*
X134353216Y-72398456D01*
X134205646Y-72299853D01*
X134080147Y-72174354D01*
X133981544Y-72026784D01*
X133913624Y-71862812D01*
X133879000Y-71688741D01*
X133879000Y-71511259D01*
X133913624Y-71337188D01*
X133981544Y-71173216D01*
X134080147Y-71025646D01*
X134205646Y-70900147D01*
X134353216Y-70801544D01*
X134517188Y-70733624D01*
X134666488Y-70703927D01*
X134691258Y-70699000D01*
X134868742Y-70699000D01*
X134893512Y-70703927D01*
G37*
G36*
X143123512Y-70643927D02*
G01*
X143272812Y-70673624D01*
X143436784Y-70741544D01*
X143584354Y-70840147D01*
X143709853Y-70965646D01*
X143808456Y-71113216D01*
X143876376Y-71277188D01*
X143911000Y-71451259D01*
X143911000Y-71628741D01*
X143876376Y-71802812D01*
X143808456Y-71966784D01*
X143709853Y-72114354D01*
X143584354Y-72239853D01*
X143436784Y-72338456D01*
X143272812Y-72406376D01*
X143123512Y-72436073D01*
X143098742Y-72441000D01*
X142921258Y-72441000D01*
X142896488Y-72436073D01*
X142747188Y-72406376D01*
X142583216Y-72338456D01*
X142435646Y-72239853D01*
X142310147Y-72114354D01*
X142211544Y-71966784D01*
X142143624Y-71802812D01*
X142109000Y-71628741D01*
X142109000Y-71451259D01*
X142143624Y-71277188D01*
X142211544Y-71113216D01*
X142310147Y-70965646D01*
X142435646Y-70840147D01*
X142583216Y-70741544D01*
X142747188Y-70673624D01*
X142896488Y-70643927D01*
X142921258Y-70639000D01*
X143098742Y-70639000D01*
X143123512Y-70643927D01*
G37*
G36*
X92903512Y-70643927D02*
G01*
X93052812Y-70673624D01*
X93216784Y-70741544D01*
X93364354Y-70840147D01*
X93489853Y-70965646D01*
X93588456Y-71113216D01*
X93656376Y-71277188D01*
X93691000Y-71451259D01*
X93691000Y-71628741D01*
X93656376Y-71802812D01*
X93588456Y-71966784D01*
X93489853Y-72114354D01*
X93364354Y-72239853D01*
X93216784Y-72338456D01*
X93052812Y-72406376D01*
X92903512Y-72436073D01*
X92878742Y-72441000D01*
X92701258Y-72441000D01*
X92676488Y-72436073D01*
X92527188Y-72406376D01*
X92363216Y-72338456D01*
X92215646Y-72239853D01*
X92090147Y-72114354D01*
X91991544Y-71966784D01*
X91923624Y-71802812D01*
X91889000Y-71628741D01*
X91889000Y-71451259D01*
X91923624Y-71277188D01*
X91991544Y-71113216D01*
X92090147Y-70965646D01*
X92215646Y-70840147D01*
X92363216Y-70741544D01*
X92527188Y-70673624D01*
X92676488Y-70643927D01*
X92701258Y-70639000D01*
X92878742Y-70639000D01*
X92903512Y-70643927D01*
G37*
G36*
X185901000Y-69961000D02*
G01*
X184099000Y-69961000D01*
X184099000Y-68159000D01*
X185901000Y-68159000D01*
X185901000Y-69961000D01*
G37*
G36*
X135681000Y-69961000D02*
G01*
X133879000Y-69961000D01*
X133879000Y-68159000D01*
X135681000Y-68159000D01*
X135681000Y-69961000D01*
G37*
G36*
X143911000Y-69901000D02*
G01*
X142109000Y-69901000D01*
X142109000Y-68099000D01*
X143911000Y-68099000D01*
X143911000Y-69901000D01*
G37*
G36*
X93691000Y-69901000D02*
G01*
X91889000Y-69901000D01*
X91889000Y-68099000D01*
X93691000Y-68099000D01*
X93691000Y-69901000D01*
G37*
M02*
