G04 #@! TF.GenerationSoftware,KiCad,Pcbnew,(5.1.5)-3*
G04 #@! TF.CreationDate,2019-12-09T10:08:32+08:00*
G04 #@! TF.ProjectId,LED__,4c454495-7f2e-46b6-9963-61645f706362,rev?*
G04 #@! TF.SameCoordinates,Original*
G04 #@! TF.FileFunction,Legend,Bot*
G04 #@! TF.FilePolarity,Positive*
%FSLAX46Y46*%
G04 Gerber Fmt 4.6, Leading zero omitted, Abs format (unit mm)*
G04 Created by KiCad (PCBNEW (5.1.5)-3) date 2019-12-09 10:08:32*
%MOMM*%
%LPD*%
G04 APERTURE LIST*
%ADD10C,0.150000*%
G04 APERTURE END LIST*
D10*
X147447142Y-71587142D02*
X149732857Y-71587142D01*
X149161428Y-71206190D02*
X149732857Y-71587142D01*
X149161428Y-71968095D01*
X183373333Y-68602380D02*
X183040000Y-69602380D01*
X182706666Y-68602380D01*
X181801904Y-69507142D02*
X181849523Y-69554761D01*
X181992380Y-69602380D01*
X182087619Y-69602380D01*
X182230476Y-69554761D01*
X182325714Y-69459523D01*
X182373333Y-69364285D01*
X182420952Y-69173809D01*
X182420952Y-69030952D01*
X182373333Y-68840476D01*
X182325714Y-68745238D01*
X182230476Y-68650000D01*
X182087619Y-68602380D01*
X181992380Y-68602380D01*
X181849523Y-68650000D01*
X181801904Y-68697619D01*
X180801904Y-69507142D02*
X180849523Y-69554761D01*
X180992380Y-69602380D01*
X181087619Y-69602380D01*
X181230476Y-69554761D01*
X181325714Y-69459523D01*
X181373333Y-69364285D01*
X181420952Y-69173809D01*
X181420952Y-69030952D01*
X181373333Y-68840476D01*
X181325714Y-68745238D01*
X181230476Y-68650000D01*
X181087619Y-68602380D01*
X180992380Y-68602380D01*
X180849523Y-68650000D01*
X180801904Y-68697619D01*
X183770476Y-72192380D02*
X183770476Y-71192380D01*
X183532380Y-71192380D01*
X183389523Y-71240000D01*
X183294285Y-71335238D01*
X183246666Y-71430476D01*
X183199047Y-71620952D01*
X183199047Y-71763809D01*
X183246666Y-71954285D01*
X183294285Y-72049523D01*
X183389523Y-72144761D01*
X183532380Y-72192380D01*
X183770476Y-72192380D01*
X182580000Y-71192380D02*
X182389523Y-71192380D01*
X182294285Y-71240000D01*
X182199047Y-71335238D01*
X182151428Y-71525714D01*
X182151428Y-71859047D01*
X182199047Y-72049523D01*
X182294285Y-72144761D01*
X182389523Y-72192380D01*
X182580000Y-72192380D01*
X182675238Y-72144761D01*
X182770476Y-72049523D01*
X182818095Y-71859047D01*
X182818095Y-71525714D01*
X182770476Y-71335238D01*
X182675238Y-71240000D01*
X182580000Y-71192380D01*
X181722857Y-71192380D02*
X181722857Y-72001904D01*
X181675238Y-72097142D01*
X181627619Y-72144761D01*
X181532380Y-72192380D01*
X181341904Y-72192380D01*
X181246666Y-72144761D01*
X181199047Y-72097142D01*
X181151428Y-72001904D01*
X181151428Y-71192380D01*
X180818095Y-71192380D02*
X180246666Y-71192380D01*
X180532380Y-72192380D02*
X180532380Y-71192380D01*
X147343333Y-68472380D02*
X147010000Y-69472380D01*
X146676666Y-68472380D01*
X145771904Y-69377142D02*
X145819523Y-69424761D01*
X145962380Y-69472380D01*
X146057619Y-69472380D01*
X146200476Y-69424761D01*
X146295714Y-69329523D01*
X146343333Y-69234285D01*
X146390952Y-69043809D01*
X146390952Y-68900952D01*
X146343333Y-68710476D01*
X146295714Y-68615238D01*
X146200476Y-68520000D01*
X146057619Y-68472380D01*
X145962380Y-68472380D01*
X145819523Y-68520000D01*
X145771904Y-68567619D01*
X144771904Y-69377142D02*
X144819523Y-69424761D01*
X144962380Y-69472380D01*
X145057619Y-69472380D01*
X145200476Y-69424761D01*
X145295714Y-69329523D01*
X145343333Y-69234285D01*
X145390952Y-69043809D01*
X145390952Y-68900952D01*
X145343333Y-68710476D01*
X145295714Y-68615238D01*
X145200476Y-68520000D01*
X145057619Y-68472380D01*
X144962380Y-68472380D01*
X144819523Y-68520000D01*
X144771904Y-68567619D01*
X146893809Y-72002380D02*
X146893809Y-71002380D01*
X146655714Y-71002380D01*
X146512857Y-71050000D01*
X146417619Y-71145238D01*
X146370000Y-71240476D01*
X146322380Y-71430952D01*
X146322380Y-71573809D01*
X146370000Y-71764285D01*
X146417619Y-71859523D01*
X146512857Y-71954761D01*
X146655714Y-72002380D01*
X146893809Y-72002380D01*
X145893809Y-72002380D02*
X145893809Y-71002380D01*
X145417619Y-72002380D02*
X145417619Y-71002380D01*
X144846190Y-72002380D01*
X144846190Y-71002380D01*
X186247142Y-71607142D02*
X188532857Y-71607142D01*
X187961428Y-71226190D02*
X188532857Y-71607142D01*
X187961428Y-71988095D01*
X146771904Y-73460000D02*
X146867142Y-73412380D01*
X147010000Y-73412380D01*
X147152857Y-73460000D01*
X147248095Y-73555238D01*
X147295714Y-73650476D01*
X147343333Y-73840952D01*
X147343333Y-73983809D01*
X147295714Y-74174285D01*
X147248095Y-74269523D01*
X147152857Y-74364761D01*
X147010000Y-74412380D01*
X146914761Y-74412380D01*
X146771904Y-74364761D01*
X146724285Y-74317142D01*
X146724285Y-73983809D01*
X146914761Y-73983809D01*
X146295714Y-74412380D02*
X146295714Y-73412380D01*
X145724285Y-74412380D01*
X145724285Y-73412380D01*
X145248095Y-74412380D02*
X145248095Y-73412380D01*
X145010000Y-73412380D01*
X144867142Y-73460000D01*
X144771904Y-73555238D01*
X144724285Y-73650476D01*
X144676666Y-73840952D01*
X144676666Y-73983809D01*
X144724285Y-74174285D01*
X144771904Y-74269523D01*
X144867142Y-74364761D01*
X145010000Y-74412380D01*
X145248095Y-74412380D01*
X183061904Y-73950000D02*
X183157142Y-73902380D01*
X183300000Y-73902380D01*
X183442857Y-73950000D01*
X183538095Y-74045238D01*
X183585714Y-74140476D01*
X183633333Y-74330952D01*
X183633333Y-74473809D01*
X183585714Y-74664285D01*
X183538095Y-74759523D01*
X183442857Y-74854761D01*
X183300000Y-74902380D01*
X183204761Y-74902380D01*
X183061904Y-74854761D01*
X183014285Y-74807142D01*
X183014285Y-74473809D01*
X183204761Y-74473809D01*
X182585714Y-74902380D02*
X182585714Y-73902380D01*
X182014285Y-74902380D01*
X182014285Y-73902380D01*
X181538095Y-74902380D02*
X181538095Y-73902380D01*
X181300000Y-73902380D01*
X181157142Y-73950000D01*
X181061904Y-74045238D01*
X181014285Y-74140476D01*
X180966666Y-74330952D01*
X180966666Y-74473809D01*
X181014285Y-74664285D01*
X181061904Y-74759523D01*
X181157142Y-74854761D01*
X181300000Y-74902380D01*
X181538095Y-74902380D01*
X133550476Y-72192380D02*
X133550476Y-71192380D01*
X133312380Y-71192380D01*
X133169523Y-71240000D01*
X133074285Y-71335238D01*
X133026666Y-71430476D01*
X132979047Y-71620952D01*
X132979047Y-71763809D01*
X133026666Y-71954285D01*
X133074285Y-72049523D01*
X133169523Y-72144761D01*
X133312380Y-72192380D01*
X133550476Y-72192380D01*
X132360000Y-71192380D02*
X132169523Y-71192380D01*
X132074285Y-71240000D01*
X131979047Y-71335238D01*
X131931428Y-71525714D01*
X131931428Y-71859047D01*
X131979047Y-72049523D01*
X132074285Y-72144761D01*
X132169523Y-72192380D01*
X132360000Y-72192380D01*
X132455238Y-72144761D01*
X132550476Y-72049523D01*
X132598095Y-71859047D01*
X132598095Y-71525714D01*
X132550476Y-71335238D01*
X132455238Y-71240000D01*
X132360000Y-71192380D01*
X131502857Y-71192380D02*
X131502857Y-72001904D01*
X131455238Y-72097142D01*
X131407619Y-72144761D01*
X131312380Y-72192380D01*
X131121904Y-72192380D01*
X131026666Y-72144761D01*
X130979047Y-72097142D01*
X130931428Y-72001904D01*
X130931428Y-71192380D01*
X130598095Y-71192380D02*
X130026666Y-71192380D01*
X130312380Y-72192380D02*
X130312380Y-71192380D01*
X97123333Y-68472380D02*
X96790000Y-69472380D01*
X96456666Y-68472380D01*
X95551904Y-69377142D02*
X95599523Y-69424761D01*
X95742380Y-69472380D01*
X95837619Y-69472380D01*
X95980476Y-69424761D01*
X96075714Y-69329523D01*
X96123333Y-69234285D01*
X96170952Y-69043809D01*
X96170952Y-68900952D01*
X96123333Y-68710476D01*
X96075714Y-68615238D01*
X95980476Y-68520000D01*
X95837619Y-68472380D01*
X95742380Y-68472380D01*
X95599523Y-68520000D01*
X95551904Y-68567619D01*
X94551904Y-69377142D02*
X94599523Y-69424761D01*
X94742380Y-69472380D01*
X94837619Y-69472380D01*
X94980476Y-69424761D01*
X95075714Y-69329523D01*
X95123333Y-69234285D01*
X95170952Y-69043809D01*
X95170952Y-68900952D01*
X95123333Y-68710476D01*
X95075714Y-68615238D01*
X94980476Y-68520000D01*
X94837619Y-68472380D01*
X94742380Y-68472380D01*
X94599523Y-68520000D01*
X94551904Y-68567619D01*
X96673809Y-72002380D02*
X96673809Y-71002380D01*
X96435714Y-71002380D01*
X96292857Y-71050000D01*
X96197619Y-71145238D01*
X96150000Y-71240476D01*
X96102380Y-71430952D01*
X96102380Y-71573809D01*
X96150000Y-71764285D01*
X96197619Y-71859523D01*
X96292857Y-71954761D01*
X96435714Y-72002380D01*
X96673809Y-72002380D01*
X95673809Y-72002380D02*
X95673809Y-71002380D01*
X95197619Y-72002380D02*
X95197619Y-71002380D01*
X94626190Y-72002380D01*
X94626190Y-71002380D01*
X136027142Y-71607142D02*
X138312857Y-71607142D01*
X137741428Y-71226190D02*
X138312857Y-71607142D01*
X137741428Y-71988095D01*
X97227142Y-71587142D02*
X99512857Y-71587142D01*
X98941428Y-71206190D02*
X99512857Y-71587142D01*
X98941428Y-71968095D01*
X133153333Y-68602380D02*
X132820000Y-69602380D01*
X132486666Y-68602380D01*
X131581904Y-69507142D02*
X131629523Y-69554761D01*
X131772380Y-69602380D01*
X131867619Y-69602380D01*
X132010476Y-69554761D01*
X132105714Y-69459523D01*
X132153333Y-69364285D01*
X132200952Y-69173809D01*
X132200952Y-69030952D01*
X132153333Y-68840476D01*
X132105714Y-68745238D01*
X132010476Y-68650000D01*
X131867619Y-68602380D01*
X131772380Y-68602380D01*
X131629523Y-68650000D01*
X131581904Y-68697619D01*
X130581904Y-69507142D02*
X130629523Y-69554761D01*
X130772380Y-69602380D01*
X130867619Y-69602380D01*
X131010476Y-69554761D01*
X131105714Y-69459523D01*
X131153333Y-69364285D01*
X131200952Y-69173809D01*
X131200952Y-69030952D01*
X131153333Y-68840476D01*
X131105714Y-68745238D01*
X131010476Y-68650000D01*
X130867619Y-68602380D01*
X130772380Y-68602380D01*
X130629523Y-68650000D01*
X130581904Y-68697619D01*
X132841904Y-73950000D02*
X132937142Y-73902380D01*
X133080000Y-73902380D01*
X133222857Y-73950000D01*
X133318095Y-74045238D01*
X133365714Y-74140476D01*
X133413333Y-74330952D01*
X133413333Y-74473809D01*
X133365714Y-74664285D01*
X133318095Y-74759523D01*
X133222857Y-74854761D01*
X133080000Y-74902380D01*
X132984761Y-74902380D01*
X132841904Y-74854761D01*
X132794285Y-74807142D01*
X132794285Y-74473809D01*
X132984761Y-74473809D01*
X132365714Y-74902380D02*
X132365714Y-73902380D01*
X131794285Y-74902380D01*
X131794285Y-73902380D01*
X131318095Y-74902380D02*
X131318095Y-73902380D01*
X131080000Y-73902380D01*
X130937142Y-73950000D01*
X130841904Y-74045238D01*
X130794285Y-74140476D01*
X130746666Y-74330952D01*
X130746666Y-74473809D01*
X130794285Y-74664285D01*
X130841904Y-74759523D01*
X130937142Y-74854761D01*
X131080000Y-74902380D01*
X131318095Y-74902380D01*
X96551904Y-73460000D02*
X96647142Y-73412380D01*
X96790000Y-73412380D01*
X96932857Y-73460000D01*
X97028095Y-73555238D01*
X97075714Y-73650476D01*
X97123333Y-73840952D01*
X97123333Y-73983809D01*
X97075714Y-74174285D01*
X97028095Y-74269523D01*
X96932857Y-74364761D01*
X96790000Y-74412380D01*
X96694761Y-74412380D01*
X96551904Y-74364761D01*
X96504285Y-74317142D01*
X96504285Y-73983809D01*
X96694761Y-73983809D01*
X96075714Y-74412380D02*
X96075714Y-73412380D01*
X95504285Y-74412380D01*
X95504285Y-73412380D01*
X95028095Y-74412380D02*
X95028095Y-73412380D01*
X94790000Y-73412380D01*
X94647142Y-73460000D01*
X94551904Y-73555238D01*
X94504285Y-73650476D01*
X94456666Y-73840952D01*
X94456666Y-73983809D01*
X94504285Y-74174285D01*
X94551904Y-74269523D01*
X94647142Y-74364761D01*
X94790000Y-74412380D01*
X95028095Y-74412380D01*
X183780476Y-122452380D02*
X183780476Y-121452380D01*
X183542380Y-121452380D01*
X183399523Y-121500000D01*
X183304285Y-121595238D01*
X183256666Y-121690476D01*
X183209047Y-121880952D01*
X183209047Y-122023809D01*
X183256666Y-122214285D01*
X183304285Y-122309523D01*
X183399523Y-122404761D01*
X183542380Y-122452380D01*
X183780476Y-122452380D01*
X182590000Y-121452380D02*
X182399523Y-121452380D01*
X182304285Y-121500000D01*
X182209047Y-121595238D01*
X182161428Y-121785714D01*
X182161428Y-122119047D01*
X182209047Y-122309523D01*
X182304285Y-122404761D01*
X182399523Y-122452380D01*
X182590000Y-122452380D01*
X182685238Y-122404761D01*
X182780476Y-122309523D01*
X182828095Y-122119047D01*
X182828095Y-121785714D01*
X182780476Y-121595238D01*
X182685238Y-121500000D01*
X182590000Y-121452380D01*
X181732857Y-121452380D02*
X181732857Y-122261904D01*
X181685238Y-122357142D01*
X181637619Y-122404761D01*
X181542380Y-122452380D01*
X181351904Y-122452380D01*
X181256666Y-122404761D01*
X181209047Y-122357142D01*
X181161428Y-122261904D01*
X181161428Y-121452380D01*
X180828095Y-121452380D02*
X180256666Y-121452380D01*
X180542380Y-122452380D02*
X180542380Y-121452380D01*
X147353333Y-118732380D02*
X147020000Y-119732380D01*
X146686666Y-118732380D01*
X145781904Y-119637142D02*
X145829523Y-119684761D01*
X145972380Y-119732380D01*
X146067619Y-119732380D01*
X146210476Y-119684761D01*
X146305714Y-119589523D01*
X146353333Y-119494285D01*
X146400952Y-119303809D01*
X146400952Y-119160952D01*
X146353333Y-118970476D01*
X146305714Y-118875238D01*
X146210476Y-118780000D01*
X146067619Y-118732380D01*
X145972380Y-118732380D01*
X145829523Y-118780000D01*
X145781904Y-118827619D01*
X144781904Y-119637142D02*
X144829523Y-119684761D01*
X144972380Y-119732380D01*
X145067619Y-119732380D01*
X145210476Y-119684761D01*
X145305714Y-119589523D01*
X145353333Y-119494285D01*
X145400952Y-119303809D01*
X145400952Y-119160952D01*
X145353333Y-118970476D01*
X145305714Y-118875238D01*
X145210476Y-118780000D01*
X145067619Y-118732380D01*
X144972380Y-118732380D01*
X144829523Y-118780000D01*
X144781904Y-118827619D01*
X146903809Y-122262380D02*
X146903809Y-121262380D01*
X146665714Y-121262380D01*
X146522857Y-121310000D01*
X146427619Y-121405238D01*
X146380000Y-121500476D01*
X146332380Y-121690952D01*
X146332380Y-121833809D01*
X146380000Y-122024285D01*
X146427619Y-122119523D01*
X146522857Y-122214761D01*
X146665714Y-122262380D01*
X146903809Y-122262380D01*
X145903809Y-122262380D02*
X145903809Y-121262380D01*
X145427619Y-122262380D02*
X145427619Y-121262380D01*
X144856190Y-122262380D01*
X144856190Y-121262380D01*
X186257142Y-121867142D02*
X188542857Y-121867142D01*
X187971428Y-121486190D02*
X188542857Y-121867142D01*
X187971428Y-122248095D01*
X147457142Y-121847142D02*
X149742857Y-121847142D01*
X149171428Y-121466190D02*
X149742857Y-121847142D01*
X149171428Y-122228095D01*
X183383333Y-118862380D02*
X183050000Y-119862380D01*
X182716666Y-118862380D01*
X181811904Y-119767142D02*
X181859523Y-119814761D01*
X182002380Y-119862380D01*
X182097619Y-119862380D01*
X182240476Y-119814761D01*
X182335714Y-119719523D01*
X182383333Y-119624285D01*
X182430952Y-119433809D01*
X182430952Y-119290952D01*
X182383333Y-119100476D01*
X182335714Y-119005238D01*
X182240476Y-118910000D01*
X182097619Y-118862380D01*
X182002380Y-118862380D01*
X181859523Y-118910000D01*
X181811904Y-118957619D01*
X180811904Y-119767142D02*
X180859523Y-119814761D01*
X181002380Y-119862380D01*
X181097619Y-119862380D01*
X181240476Y-119814761D01*
X181335714Y-119719523D01*
X181383333Y-119624285D01*
X181430952Y-119433809D01*
X181430952Y-119290952D01*
X181383333Y-119100476D01*
X181335714Y-119005238D01*
X181240476Y-118910000D01*
X181097619Y-118862380D01*
X181002380Y-118862380D01*
X180859523Y-118910000D01*
X180811904Y-118957619D01*
X183071904Y-124210000D02*
X183167142Y-124162380D01*
X183310000Y-124162380D01*
X183452857Y-124210000D01*
X183548095Y-124305238D01*
X183595714Y-124400476D01*
X183643333Y-124590952D01*
X183643333Y-124733809D01*
X183595714Y-124924285D01*
X183548095Y-125019523D01*
X183452857Y-125114761D01*
X183310000Y-125162380D01*
X183214761Y-125162380D01*
X183071904Y-125114761D01*
X183024285Y-125067142D01*
X183024285Y-124733809D01*
X183214761Y-124733809D01*
X182595714Y-125162380D02*
X182595714Y-124162380D01*
X182024285Y-125162380D01*
X182024285Y-124162380D01*
X181548095Y-125162380D02*
X181548095Y-124162380D01*
X181310000Y-124162380D01*
X181167142Y-124210000D01*
X181071904Y-124305238D01*
X181024285Y-124400476D01*
X180976666Y-124590952D01*
X180976666Y-124733809D01*
X181024285Y-124924285D01*
X181071904Y-125019523D01*
X181167142Y-125114761D01*
X181310000Y-125162380D01*
X181548095Y-125162380D01*
X146781904Y-123720000D02*
X146877142Y-123672380D01*
X147020000Y-123672380D01*
X147162857Y-123720000D01*
X147258095Y-123815238D01*
X147305714Y-123910476D01*
X147353333Y-124100952D01*
X147353333Y-124243809D01*
X147305714Y-124434285D01*
X147258095Y-124529523D01*
X147162857Y-124624761D01*
X147020000Y-124672380D01*
X146924761Y-124672380D01*
X146781904Y-124624761D01*
X146734285Y-124577142D01*
X146734285Y-124243809D01*
X146924761Y-124243809D01*
X146305714Y-124672380D02*
X146305714Y-123672380D01*
X145734285Y-124672380D01*
X145734285Y-123672380D01*
X145258095Y-124672380D02*
X145258095Y-123672380D01*
X145020000Y-123672380D01*
X144877142Y-123720000D01*
X144781904Y-123815238D01*
X144734285Y-123910476D01*
X144686666Y-124100952D01*
X144686666Y-124243809D01*
X144734285Y-124434285D01*
X144781904Y-124529523D01*
X144877142Y-124624761D01*
X145020000Y-124672380D01*
X145258095Y-124672380D01*
X136037142Y-121867142D02*
X138322857Y-121867142D01*
X137751428Y-121486190D02*
X138322857Y-121867142D01*
X137751428Y-122248095D01*
X97237142Y-121847142D02*
X99522857Y-121847142D01*
X98951428Y-121466190D02*
X99522857Y-121847142D01*
X98951428Y-122228095D01*
X96561904Y-123720000D02*
X96657142Y-123672380D01*
X96800000Y-123672380D01*
X96942857Y-123720000D01*
X97038095Y-123815238D01*
X97085714Y-123910476D01*
X97133333Y-124100952D01*
X97133333Y-124243809D01*
X97085714Y-124434285D01*
X97038095Y-124529523D01*
X96942857Y-124624761D01*
X96800000Y-124672380D01*
X96704761Y-124672380D01*
X96561904Y-124624761D01*
X96514285Y-124577142D01*
X96514285Y-124243809D01*
X96704761Y-124243809D01*
X96085714Y-124672380D02*
X96085714Y-123672380D01*
X95514285Y-124672380D01*
X95514285Y-123672380D01*
X95038095Y-124672380D02*
X95038095Y-123672380D01*
X94800000Y-123672380D01*
X94657142Y-123720000D01*
X94561904Y-123815238D01*
X94514285Y-123910476D01*
X94466666Y-124100952D01*
X94466666Y-124243809D01*
X94514285Y-124434285D01*
X94561904Y-124529523D01*
X94657142Y-124624761D01*
X94800000Y-124672380D01*
X95038095Y-124672380D01*
X96683809Y-122262380D02*
X96683809Y-121262380D01*
X96445714Y-121262380D01*
X96302857Y-121310000D01*
X96207619Y-121405238D01*
X96160000Y-121500476D01*
X96112380Y-121690952D01*
X96112380Y-121833809D01*
X96160000Y-122024285D01*
X96207619Y-122119523D01*
X96302857Y-122214761D01*
X96445714Y-122262380D01*
X96683809Y-122262380D01*
X95683809Y-122262380D02*
X95683809Y-121262380D01*
X95207619Y-122262380D02*
X95207619Y-121262380D01*
X94636190Y-122262380D01*
X94636190Y-121262380D01*
X97133333Y-118732380D02*
X96800000Y-119732380D01*
X96466666Y-118732380D01*
X95561904Y-119637142D02*
X95609523Y-119684761D01*
X95752380Y-119732380D01*
X95847619Y-119732380D01*
X95990476Y-119684761D01*
X96085714Y-119589523D01*
X96133333Y-119494285D01*
X96180952Y-119303809D01*
X96180952Y-119160952D01*
X96133333Y-118970476D01*
X96085714Y-118875238D01*
X95990476Y-118780000D01*
X95847619Y-118732380D01*
X95752380Y-118732380D01*
X95609523Y-118780000D01*
X95561904Y-118827619D01*
X94561904Y-119637142D02*
X94609523Y-119684761D01*
X94752380Y-119732380D01*
X94847619Y-119732380D01*
X94990476Y-119684761D01*
X95085714Y-119589523D01*
X95133333Y-119494285D01*
X95180952Y-119303809D01*
X95180952Y-119160952D01*
X95133333Y-118970476D01*
X95085714Y-118875238D01*
X94990476Y-118780000D01*
X94847619Y-118732380D01*
X94752380Y-118732380D01*
X94609523Y-118780000D01*
X94561904Y-118827619D01*
X132851904Y-124210000D02*
X132947142Y-124162380D01*
X133090000Y-124162380D01*
X133232857Y-124210000D01*
X133328095Y-124305238D01*
X133375714Y-124400476D01*
X133423333Y-124590952D01*
X133423333Y-124733809D01*
X133375714Y-124924285D01*
X133328095Y-125019523D01*
X133232857Y-125114761D01*
X133090000Y-125162380D01*
X132994761Y-125162380D01*
X132851904Y-125114761D01*
X132804285Y-125067142D01*
X132804285Y-124733809D01*
X132994761Y-124733809D01*
X132375714Y-125162380D02*
X132375714Y-124162380D01*
X131804285Y-125162380D01*
X131804285Y-124162380D01*
X131328095Y-125162380D02*
X131328095Y-124162380D01*
X131090000Y-124162380D01*
X130947142Y-124210000D01*
X130851904Y-124305238D01*
X130804285Y-124400476D01*
X130756666Y-124590952D01*
X130756666Y-124733809D01*
X130804285Y-124924285D01*
X130851904Y-125019523D01*
X130947142Y-125114761D01*
X131090000Y-125162380D01*
X131328095Y-125162380D01*
X133560476Y-122452380D02*
X133560476Y-121452380D01*
X133322380Y-121452380D01*
X133179523Y-121500000D01*
X133084285Y-121595238D01*
X133036666Y-121690476D01*
X132989047Y-121880952D01*
X132989047Y-122023809D01*
X133036666Y-122214285D01*
X133084285Y-122309523D01*
X133179523Y-122404761D01*
X133322380Y-122452380D01*
X133560476Y-122452380D01*
X132370000Y-121452380D02*
X132179523Y-121452380D01*
X132084285Y-121500000D01*
X131989047Y-121595238D01*
X131941428Y-121785714D01*
X131941428Y-122119047D01*
X131989047Y-122309523D01*
X132084285Y-122404761D01*
X132179523Y-122452380D01*
X132370000Y-122452380D01*
X132465238Y-122404761D01*
X132560476Y-122309523D01*
X132608095Y-122119047D01*
X132608095Y-121785714D01*
X132560476Y-121595238D01*
X132465238Y-121500000D01*
X132370000Y-121452380D01*
X131512857Y-121452380D02*
X131512857Y-122261904D01*
X131465238Y-122357142D01*
X131417619Y-122404761D01*
X131322380Y-122452380D01*
X131131904Y-122452380D01*
X131036666Y-122404761D01*
X130989047Y-122357142D01*
X130941428Y-122261904D01*
X130941428Y-121452380D01*
X130608095Y-121452380D02*
X130036666Y-121452380D01*
X130322380Y-122452380D02*
X130322380Y-121452380D01*
X133163333Y-118862380D02*
X132830000Y-119862380D01*
X132496666Y-118862380D01*
X131591904Y-119767142D02*
X131639523Y-119814761D01*
X131782380Y-119862380D01*
X131877619Y-119862380D01*
X132020476Y-119814761D01*
X132115714Y-119719523D01*
X132163333Y-119624285D01*
X132210952Y-119433809D01*
X132210952Y-119290952D01*
X132163333Y-119100476D01*
X132115714Y-119005238D01*
X132020476Y-118910000D01*
X131877619Y-118862380D01*
X131782380Y-118862380D01*
X131639523Y-118910000D01*
X131591904Y-118957619D01*
X130591904Y-119767142D02*
X130639523Y-119814761D01*
X130782380Y-119862380D01*
X130877619Y-119862380D01*
X131020476Y-119814761D01*
X131115714Y-119719523D01*
X131163333Y-119624285D01*
X131210952Y-119433809D01*
X131210952Y-119290952D01*
X131163333Y-119100476D01*
X131115714Y-119005238D01*
X131020476Y-118910000D01*
X130877619Y-118862380D01*
X130782380Y-118862380D01*
X130639523Y-118910000D01*
X130591904Y-118957619D01*
M02*
