M48
; DRILL file {KiCad (5.1.5)-3} date 2019/12/9 10:08:37
; FORMAT={-:-/ absolute / metric / decimal}
; #@! TF.CreationDate,2019-12-09T10:08:37+08:00
; #@! TF.GenerationSoftware,Kicad,Pcbnew,(5.1.5)-3
; #@! TF.FileFunction,Plated,1,2,PTH
FMAT,2
METRIC
T1C0.400
T2C1.000
T3C3.000
%
G90
G05
T1
X95.623Y-63.462
X95.632Y-113.722
X96.57Y-79.61
X96.58Y-129.87
X97.76Y-87.18
X97.77Y-137.44
X99.73Y-90.41
X99.74Y-140.67
X101.37Y-49.27
X101.38Y-99.53
X104.25Y-81.21
X104.26Y-131.47
X105.73Y-81.01
X105.74Y-131.27
X108.522Y-53.747
X108.532Y-104.007
X110.075Y-59.115
X110.085Y-109.375
X110.88Y-65.61
X110.89Y-115.87
X112.39Y-52.24
X112.4Y-102.5
X114.11Y-58.0
X114.12Y-108.26
X115.39Y-77.96
X115.4Y-128.22
X116.59Y-58.03
X116.6Y-108.29
X117.3Y-83.09
X117.31Y-133.35
X117.35Y-63.18
X117.36Y-113.44
X117.57Y-85.79
X117.58Y-136.05
X118.16Y-77.1
X118.17Y-127.36
X120.36Y-73.27
X120.37Y-123.53
X120.93Y-90.35
X120.94Y-140.61
X123.36Y-52.44
X123.37Y-102.7
X123.39Y-70.18
X123.4Y-120.44
X128.38Y-76.74
X128.39Y-127.0
X130.41Y-72.11
X130.42Y-122.37
X133.27Y-59.82
X133.28Y-110.08
X145.843Y-63.462
X145.852Y-113.722
X146.79Y-79.61
X146.8Y-129.87
X147.98Y-87.18
X147.99Y-137.44
X149.95Y-90.41
X149.96Y-140.67
X151.59Y-49.27
X151.6Y-99.53
X154.47Y-81.21
X154.48Y-131.47
X155.95Y-81.01
X155.96Y-131.27
X158.743Y-53.747
X158.752Y-104.007
X160.295Y-59.115
X160.305Y-109.375
X161.1Y-65.61
X161.11Y-115.87
X162.61Y-52.24
X162.62Y-102.5
X164.33Y-58.0
X164.34Y-108.26
X165.61Y-77.96
X165.62Y-128.22
X166.81Y-58.03
X166.82Y-108.29
X167.52Y-83.09
X167.53Y-133.35
X167.57Y-63.18
X167.58Y-113.44
X167.79Y-85.79
X167.8Y-136.05
X168.38Y-77.1
X168.39Y-127.36
X170.58Y-73.27
X170.59Y-123.53
X171.15Y-90.35
X171.16Y-140.61
X173.58Y-52.44
X173.59Y-102.7
X173.61Y-70.18
X173.62Y-120.44
X178.6Y-76.74
X178.61Y-127.0
X180.63Y-72.11
X180.64Y-122.37
X183.49Y-59.82
X183.5Y-110.08
T2
X185.0Y-69.06
X185.0Y-71.6
X185.0Y-74.14
X92.79Y-69.0
X92.79Y-71.54
X92.79Y-74.08
X185.01Y-119.32
X185.01Y-121.86
X185.01Y-124.4
X92.8Y-119.26
X92.8Y-121.8
X92.8Y-124.34
X134.79Y-119.32
X134.79Y-121.86
X134.79Y-124.4
X134.78Y-69.06
X134.78Y-71.6
X134.78Y-74.14
X143.02Y-119.26
X143.02Y-121.8
X143.02Y-124.34
X143.01Y-69.0
X143.01Y-71.54
X143.01Y-74.08
T3
X91.83Y-49.59
X91.83Y-93.59
X91.84Y-99.85
X91.84Y-143.85
X135.83Y-49.6
X135.84Y-99.86
X135.85Y-93.6
X135.86Y-143.86
X142.05Y-49.59
X142.05Y-93.59
X142.06Y-99.85
X142.06Y-143.85
X186.05Y-49.6
X186.06Y-99.86
X186.07Y-93.6
X186.08Y-143.86
T0
M30
