%FSLAX45Y45*%
G04 Gerber Fmt 4.5, Leading zero omitted, Abs format (unit mm)*
G04 Created by KiCad (PCBNEW (5.1.5)-3) date 2019-12-09 10:08:38*
%MOMM*%
%LPD*%
G04 APERTURE LIST*
%TA.AperFunction,Profile*%
%ADD10C,0.100000*%
%TD*%
%ADD11C,0.200000*%
%ADD12C,0.300000*%
G04 APERTURE END LIST*
D10*
X18905000Y-4659000D02*
X18905000Y-14685000D01*
X8885000Y-4660000D02*
X18905000Y-4659000D01*
X8885000Y-14685000D02*
X8885000Y-4660000D01*
X18905000Y-14685000D02*
X8885000Y-14685000D01*
D11*
X9542250Y-6326250D02*
X9582250Y-6366250D01*
X9582250Y-6326250D02*
X9542250Y-6366250D01*
X9543250Y-11352250D02*
X9583250Y-11392250D01*
X9583250Y-11352250D02*
X9543250Y-11392250D01*
X9637000Y-7941000D02*
X9677000Y-7981000D01*
X9677000Y-7941000D02*
X9637000Y-7981000D01*
X9638000Y-12967000D02*
X9678000Y-13007000D01*
X9678000Y-12967000D02*
X9638000Y-13007000D01*
X9756000Y-8698000D02*
X9796000Y-8738000D01*
X9796000Y-8698000D02*
X9756000Y-8738000D01*
X9757000Y-13724000D02*
X9797000Y-13764000D01*
X9797000Y-13724000D02*
X9757000Y-13764000D01*
X9953000Y-9021000D02*
X9993000Y-9061000D01*
X9993000Y-9021000D02*
X9953000Y-9061000D01*
X9954000Y-14047000D02*
X9994000Y-14087000D01*
X9994000Y-14047000D02*
X9954000Y-14087000D01*
X10117000Y-4907000D02*
X10157000Y-4947000D01*
X10157000Y-4907000D02*
X10117000Y-4947000D01*
X10118000Y-9933000D02*
X10158000Y-9973000D01*
X10158000Y-9933000D02*
X10118000Y-9973000D01*
X10405000Y-8101000D02*
X10445000Y-8141000D01*
X10445000Y-8101000D02*
X10405000Y-8141000D01*
X10406000Y-13127000D02*
X10446000Y-13167000D01*
X10446000Y-13127000D02*
X10406000Y-13167000D01*
X10553000Y-8081000D02*
X10593000Y-8121000D01*
X10593000Y-8081000D02*
X10553000Y-8121000D01*
X10554000Y-13107000D02*
X10594000Y-13147000D01*
X10594000Y-13107000D02*
X10554000Y-13147000D01*
X10832250Y-5354750D02*
X10872250Y-5394750D01*
X10872250Y-5354750D02*
X10832250Y-5394750D01*
X10833250Y-10380750D02*
X10873250Y-10420750D01*
X10873250Y-10380750D02*
X10833250Y-10420750D01*
X10987500Y-5891500D02*
X11027500Y-5931500D01*
X11027500Y-5891500D02*
X10987500Y-5931500D01*
X10988500Y-10917500D02*
X11028500Y-10957500D01*
X11028500Y-10917500D02*
X10988500Y-10957500D01*
X11068000Y-6541000D02*
X11108000Y-6581000D01*
X11108000Y-6541000D02*
X11068000Y-6581000D01*
X11069000Y-11567000D02*
X11109000Y-11607000D01*
X11109000Y-11567000D02*
X11069000Y-11607000D01*
X11219000Y-5204000D02*
X11259000Y-5244000D01*
X11259000Y-5204000D02*
X11219000Y-5244000D01*
X11220000Y-10230000D02*
X11260000Y-10270000D01*
X11260000Y-10230000D02*
X11220000Y-10270000D01*
X11391000Y-5780000D02*
X11431000Y-5820000D01*
X11431000Y-5780000D02*
X11391000Y-5820000D01*
X11392000Y-10806000D02*
X11432000Y-10846000D01*
X11432000Y-10806000D02*
X11392000Y-10846000D01*
X11519000Y-7776000D02*
X11559000Y-7816000D01*
X11559000Y-7776000D02*
X11519000Y-7816000D01*
X11520000Y-12802000D02*
X11560000Y-12842000D01*
X11560000Y-12802000D02*
X11520000Y-12842000D01*
X11639000Y-5783000D02*
X11679000Y-5823000D01*
X11679000Y-5783000D02*
X11639000Y-5823000D01*
X11640000Y-10809000D02*
X11680000Y-10849000D01*
X11680000Y-10809000D02*
X11640000Y-10849000D01*
X11710000Y-8289000D02*
X11750000Y-8329000D01*
X11750000Y-8289000D02*
X11710000Y-8329000D01*
X11711000Y-13315000D02*
X11751000Y-13355000D01*
X11751000Y-13315000D02*
X11711000Y-13355000D01*
X11715000Y-6298000D02*
X11755000Y-6338000D01*
X11755000Y-6298000D02*
X11715000Y-6338000D01*
X11716000Y-11324000D02*
X11756000Y-11364000D01*
X11756000Y-11324000D02*
X11716000Y-11364000D01*
X11737000Y-8559000D02*
X11777000Y-8599000D01*
X11777000Y-8559000D02*
X11737000Y-8599000D01*
X11738000Y-13585000D02*
X11778000Y-13625000D01*
X11778000Y-13585000D02*
X11738000Y-13625000D01*
X11796000Y-7690000D02*
X11836000Y-7730000D01*
X11836000Y-7690000D02*
X11796000Y-7730000D01*
X11797000Y-12716000D02*
X11837000Y-12756000D01*
X11837000Y-12716000D02*
X11797000Y-12756000D01*
X12016000Y-7307000D02*
X12056000Y-7347000D01*
X12056000Y-7307000D02*
X12016000Y-7347000D01*
X12017000Y-12333000D02*
X12057000Y-12373000D01*
X12057000Y-12333000D02*
X12017000Y-12373000D01*
X12073000Y-9015000D02*
X12113000Y-9055000D01*
X12113000Y-9015000D02*
X12073000Y-9055000D01*
X12074000Y-14041000D02*
X12114000Y-14081000D01*
X12114000Y-14041000D02*
X12074000Y-14081000D01*
X12316000Y-5224000D02*
X12356000Y-5264000D01*
X12356000Y-5224000D02*
X12316000Y-5264000D01*
X12317000Y-10250000D02*
X12357000Y-10290000D01*
X12357000Y-10250000D02*
X12317000Y-10290000D01*
X12319000Y-6998000D02*
X12359000Y-7038000D01*
X12359000Y-6998000D02*
X12319000Y-7038000D01*
X12320000Y-12024000D02*
X12360000Y-12064000D01*
X12360000Y-12024000D02*
X12320000Y-12064000D01*
X12818000Y-7654000D02*
X12858000Y-7694000D01*
X12858000Y-7654000D02*
X12818000Y-7694000D01*
X12819000Y-12680000D02*
X12859000Y-12720000D01*
X12859000Y-12680000D02*
X12819000Y-12720000D01*
X13021000Y-7191000D02*
X13061000Y-7231000D01*
X13061000Y-7191000D02*
X13021000Y-7231000D01*
X13022000Y-12217000D02*
X13062000Y-12257000D01*
X13062000Y-12217000D02*
X13022000Y-12257000D01*
X13307000Y-5962000D02*
X13347000Y-6002000D01*
X13347000Y-5962000D02*
X13307000Y-6002000D01*
X13308000Y-10988000D02*
X13348000Y-11028000D01*
X13348000Y-10988000D02*
X13308000Y-11028000D01*
X14564250Y-6326250D02*
X14604250Y-6366250D01*
X14604250Y-6326250D02*
X14564250Y-6366250D01*
X14565250Y-11352250D02*
X14605250Y-11392250D01*
X14605250Y-11352250D02*
X14565250Y-11392250D01*
X14659000Y-7941000D02*
X14699000Y-7981000D01*
X14699000Y-7941000D02*
X14659000Y-7981000D01*
X14660000Y-12967000D02*
X14700000Y-13007000D01*
X14700000Y-12967000D02*
X14660000Y-13007000D01*
X14778000Y-8698000D02*
X14818000Y-8738000D01*
X14818000Y-8698000D02*
X14778000Y-8738000D01*
X14779000Y-13724000D02*
X14819000Y-13764000D01*
X14819000Y-13724000D02*
X14779000Y-13764000D01*
X14975000Y-9021000D02*
X15015000Y-9061000D01*
X15015000Y-9021000D02*
X14975000Y-9061000D01*
X14976000Y-14047000D02*
X15016000Y-14087000D01*
X15016000Y-14047000D02*
X14976000Y-14087000D01*
X15139000Y-4907000D02*
X15179000Y-4947000D01*
X15179000Y-4907000D02*
X15139000Y-4947000D01*
X15140000Y-9933000D02*
X15180000Y-9973000D01*
X15180000Y-9933000D02*
X15140000Y-9973000D01*
X15427000Y-8101000D02*
X15467000Y-8141000D01*
X15467000Y-8101000D02*
X15427000Y-8141000D01*
X15428000Y-13127000D02*
X15468000Y-13167000D01*
X15468000Y-13127000D02*
X15428000Y-13167000D01*
X15575000Y-8081000D02*
X15615000Y-8121000D01*
X15615000Y-8081000D02*
X15575000Y-8121000D01*
X15576000Y-13107000D02*
X15616000Y-13147000D01*
X15616000Y-13107000D02*
X15576000Y-13147000D01*
X15854250Y-5354750D02*
X15894250Y-5394750D01*
X15894250Y-5354750D02*
X15854250Y-5394750D01*
X15855250Y-10380750D02*
X15895250Y-10420750D01*
X15895250Y-10380750D02*
X15855250Y-10420750D01*
X16009500Y-5891500D02*
X16049500Y-5931500D01*
X16049500Y-5891500D02*
X16009500Y-5931500D01*
X16010500Y-10917500D02*
X16050500Y-10957500D01*
X16050500Y-10917500D02*
X16010500Y-10957500D01*
X16090000Y-6541000D02*
X16130000Y-6581000D01*
X16130000Y-6541000D02*
X16090000Y-6581000D01*
X16091000Y-11567000D02*
X16131000Y-11607000D01*
X16131000Y-11567000D02*
X16091000Y-11607000D01*
X16241000Y-5204000D02*
X16281000Y-5244000D01*
X16281000Y-5204000D02*
X16241000Y-5244000D01*
X16242000Y-10230000D02*
X16282000Y-10270000D01*
X16282000Y-10230000D02*
X16242000Y-10270000D01*
X16413000Y-5780000D02*
X16453000Y-5820000D01*
X16453000Y-5780000D02*
X16413000Y-5820000D01*
X16414000Y-10806000D02*
X16454000Y-10846000D01*
X16454000Y-10806000D02*
X16414000Y-10846000D01*
X16541000Y-7776000D02*
X16581000Y-7816000D01*
X16581000Y-7776000D02*
X16541000Y-7816000D01*
X16542000Y-12802000D02*
X16582000Y-12842000D01*
X16582000Y-12802000D02*
X16542000Y-12842000D01*
X16661000Y-5783000D02*
X16701000Y-5823000D01*
X16701000Y-5783000D02*
X16661000Y-5823000D01*
X16662000Y-10809000D02*
X16702000Y-10849000D01*
X16702000Y-10809000D02*
X16662000Y-10849000D01*
X16732000Y-8289000D02*
X16772000Y-8329000D01*
X16772000Y-8289000D02*
X16732000Y-8329000D01*
X16733000Y-13315000D02*
X16773000Y-13355000D01*
X16773000Y-13315000D02*
X16733000Y-13355000D01*
X16737000Y-6298000D02*
X16777000Y-6338000D01*
X16777000Y-6298000D02*
X16737000Y-6338000D01*
X16738000Y-11324000D02*
X16778000Y-11364000D01*
X16778000Y-11324000D02*
X16738000Y-11364000D01*
X16759000Y-8559000D02*
X16799000Y-8599000D01*
X16799000Y-8559000D02*
X16759000Y-8599000D01*
X16760000Y-13585000D02*
X16800000Y-13625000D01*
X16800000Y-13585000D02*
X16760000Y-13625000D01*
X16818000Y-7690000D02*
X16858000Y-7730000D01*
X16858000Y-7690000D02*
X16818000Y-7730000D01*
X16819000Y-12716000D02*
X16859000Y-12756000D01*
X16859000Y-12716000D02*
X16819000Y-12756000D01*
X17038000Y-7307000D02*
X17078000Y-7347000D01*
X17078000Y-7307000D02*
X17038000Y-7347000D01*
X17039000Y-12333000D02*
X17079000Y-12373000D01*
X17079000Y-12333000D02*
X17039000Y-12373000D01*
X17095000Y-9015000D02*
X17135000Y-9055000D01*
X17135000Y-9015000D02*
X17095000Y-9055000D01*
X17096000Y-14041000D02*
X17136000Y-14081000D01*
X17136000Y-14041000D02*
X17096000Y-14081000D01*
X17338000Y-5224000D02*
X17378000Y-5264000D01*
X17378000Y-5224000D02*
X17338000Y-5264000D01*
X17339000Y-10250000D02*
X17379000Y-10290000D01*
X17379000Y-10250000D02*
X17339000Y-10290000D01*
X17341000Y-6998000D02*
X17381000Y-7038000D01*
X17381000Y-6998000D02*
X17341000Y-7038000D01*
X17342000Y-12024000D02*
X17382000Y-12064000D01*
X17382000Y-12024000D02*
X17342000Y-12064000D01*
X17840000Y-7654000D02*
X17880000Y-7694000D01*
X17880000Y-7654000D02*
X17840000Y-7694000D01*
X17841000Y-12680000D02*
X17881000Y-12720000D01*
X17881000Y-12680000D02*
X17841000Y-12720000D01*
X18043000Y-7191000D02*
X18083000Y-7231000D01*
X18083000Y-7191000D02*
X18043000Y-7231000D01*
X18044000Y-12217000D02*
X18084000Y-12257000D01*
X18084000Y-12217000D02*
X18044000Y-12257000D01*
X18329000Y-5962000D02*
X18369000Y-6002000D01*
X18369000Y-5962000D02*
X18329000Y-6002000D01*
X18330000Y-10988000D02*
X18370000Y-11028000D01*
X18370000Y-10988000D02*
X18330000Y-11028000D01*
X18550000Y-6906000D02*
G75*
G03X18550000Y-6906000I-50000J0D01*
G01*
X18550000Y-7160000D02*
G75*
G03X18550000Y-7160000I-50000J0D01*
G01*
X18550000Y-7414000D02*
G75*
G03X18550000Y-7414000I-50000J0D01*
G01*
X9329000Y-6900000D02*
G75*
G03X9329000Y-6900000I-50000J0D01*
G01*
X9329000Y-7154000D02*
G75*
G03X9329000Y-7154000I-50000J0D01*
G01*
X9329000Y-7408000D02*
G75*
G03X9329000Y-7408000I-50000J0D01*
G01*
X18551000Y-11932000D02*
G75*
G03X18551000Y-11932000I-50000J0D01*
G01*
X18551000Y-12186000D02*
G75*
G03X18551000Y-12186000I-50000J0D01*
G01*
X18551000Y-12440000D02*
G75*
G03X18551000Y-12440000I-50000J0D01*
G01*
X9330000Y-11926000D02*
G75*
G03X9330000Y-11926000I-50000J0D01*
G01*
X9330000Y-12180000D02*
G75*
G03X9330000Y-12180000I-50000J0D01*
G01*
X9330000Y-12434000D02*
G75*
G03X9330000Y-12434000I-50000J0D01*
G01*
X13529000Y-11932000D02*
G75*
G03X13529000Y-11932000I-50000J0D01*
G01*
X13529000Y-12186000D02*
G75*
G03X13529000Y-12186000I-50000J0D01*
G01*
X13529000Y-12440000D02*
G75*
G03X13529000Y-12440000I-50000J0D01*
G01*
X13528000Y-6906000D02*
G75*
G03X13528000Y-6906000I-50000J0D01*
G01*
X13528000Y-7160000D02*
G75*
G03X13528000Y-7160000I-50000J0D01*
G01*
X13528000Y-7414000D02*
G75*
G03X13528000Y-7414000I-50000J0D01*
G01*
X14352000Y-11926000D02*
G75*
G03X14352000Y-11926000I-50000J0D01*
G01*
X14352000Y-12180000D02*
G75*
G03X14352000Y-12180000I-50000J0D01*
G01*
X14352000Y-12434000D02*
G75*
G03X14352000Y-12434000I-50000J0D01*
G01*
X14351000Y-6900000D02*
G75*
G03X14351000Y-6900000I-50000J0D01*
G01*
X14351000Y-7154000D02*
G75*
G03X14351000Y-7154000I-50000J0D01*
G01*
X14351000Y-7408000D02*
G75*
G03X14351000Y-7408000I-50000J0D01*
G01*
X9183000Y-4809000D02*
X9183000Y-5109000D01*
X9033000Y-4959000D02*
X9333000Y-4959000D01*
X9183000Y-9209000D02*
X9183000Y-9509000D01*
X9033000Y-9359000D02*
X9333000Y-9359000D01*
X9184000Y-9835000D02*
X9184000Y-10135000D01*
X9034000Y-9985000D02*
X9334000Y-9985000D01*
X9184000Y-14235000D02*
X9184000Y-14535000D01*
X9034000Y-14385000D02*
X9334000Y-14385000D01*
X13583000Y-4810000D02*
X13583000Y-5110000D01*
X13433000Y-4960000D02*
X13733000Y-4960000D01*
X13584000Y-9836000D02*
X13584000Y-10136000D01*
X13434000Y-9986000D02*
X13734000Y-9986000D01*
X13585000Y-9210000D02*
X13585000Y-9510000D01*
X13435000Y-9360000D02*
X13735000Y-9360000D01*
X13586000Y-14236000D02*
X13586000Y-14536000D01*
X13436000Y-14386000D02*
X13736000Y-14386000D01*
X14205000Y-4809000D02*
X14205000Y-5109000D01*
X14055000Y-4959000D02*
X14355000Y-4959000D01*
X14205000Y-9209000D02*
X14205000Y-9509000D01*
X14055000Y-9359000D02*
X14355000Y-9359000D01*
X14206000Y-9835000D02*
X14206000Y-10135000D01*
X14056000Y-9985000D02*
X14356000Y-9985000D01*
X14206000Y-14235000D02*
X14206000Y-14535000D01*
X14056000Y-14385000D02*
X14356000Y-14385000D01*
X18605000Y-4810000D02*
X18605000Y-5110000D01*
X18455000Y-4960000D02*
X18755000Y-4960000D01*
X18606000Y-9836000D02*
X18606000Y-10136000D01*
X18456000Y-9986000D02*
X18756000Y-9986000D01*
X18607000Y-9210000D02*
X18607000Y-9510000D01*
X18457000Y-9360000D02*
X18757000Y-9360000D01*
X18608000Y-14236000D02*
X18608000Y-14536000D01*
X18458000Y-14386000D02*
X18758000Y-14386000D01*
D12*
X9166428Y-15155714D02*
X9166428Y-14855714D01*
X9237857Y-14855714D01*
X9280714Y-14870000D01*
X9309286Y-14898571D01*
X9323571Y-14927143D01*
X9337857Y-14984286D01*
X9337857Y-15027143D01*
X9323571Y-15084286D01*
X9309286Y-15112857D01*
X9280714Y-15141429D01*
X9237857Y-15155714D01*
X9166428Y-15155714D01*
X9466428Y-15155714D02*
X9466428Y-14955714D01*
X9466428Y-15012857D02*
X9480714Y-14984286D01*
X9495000Y-14970000D01*
X9523571Y-14955714D01*
X9552143Y-14955714D01*
X9652143Y-15155714D02*
X9652143Y-14955714D01*
X9652143Y-14855714D02*
X9637857Y-14870000D01*
X9652143Y-14884286D01*
X9666428Y-14870000D01*
X9652143Y-14855714D01*
X9652143Y-14884286D01*
X9837857Y-15155714D02*
X9809286Y-15141429D01*
X9795000Y-15112857D01*
X9795000Y-14855714D01*
X9995000Y-15155714D02*
X9966428Y-15141429D01*
X9952143Y-15112857D01*
X9952143Y-14855714D01*
X10337857Y-15155714D02*
X10337857Y-14855714D01*
X10437857Y-15070000D01*
X10537857Y-14855714D01*
X10537857Y-15155714D01*
X10809286Y-15155714D02*
X10809286Y-14998571D01*
X10795000Y-14970000D01*
X10766428Y-14955714D01*
X10709286Y-14955714D01*
X10680714Y-14970000D01*
X10809286Y-15141429D02*
X10780714Y-15155714D01*
X10709286Y-15155714D01*
X10680714Y-15141429D01*
X10666428Y-15112857D01*
X10666428Y-15084286D01*
X10680714Y-15055714D01*
X10709286Y-15041429D01*
X10780714Y-15041429D01*
X10809286Y-15027143D01*
X10952143Y-14955714D02*
X10952143Y-15255714D01*
X10952143Y-14970000D02*
X10980714Y-14955714D01*
X11037857Y-14955714D01*
X11066428Y-14970000D01*
X11080714Y-14984286D01*
X11095000Y-15012857D01*
X11095000Y-15098571D01*
X11080714Y-15127143D01*
X11066428Y-15141429D01*
X11037857Y-15155714D01*
X10980714Y-15155714D01*
X10952143Y-15141429D01*
X11223571Y-15127143D02*
X11237857Y-15141429D01*
X11223571Y-15155714D01*
X11209286Y-15141429D01*
X11223571Y-15127143D01*
X11223571Y-15155714D01*
X11223571Y-14970000D02*
X11237857Y-14984286D01*
X11223571Y-14998571D01*
X11209286Y-14984286D01*
X11223571Y-14970000D01*
X11223571Y-14998571D01*
X8840000Y-15630000D02*
X8880000Y-15670000D01*
X8880000Y-15630000D02*
X8840000Y-15670000D01*
X9223571Y-15485714D02*
X9252143Y-15485714D01*
X9280714Y-15500000D01*
X9295000Y-15514286D01*
X9309286Y-15542857D01*
X9323571Y-15600000D01*
X9323571Y-15671429D01*
X9309286Y-15728571D01*
X9295000Y-15757143D01*
X9280714Y-15771429D01*
X9252143Y-15785714D01*
X9223571Y-15785714D01*
X9195000Y-15771429D01*
X9180714Y-15757143D01*
X9166428Y-15728571D01*
X9152143Y-15671429D01*
X9152143Y-15600000D01*
X9166428Y-15542857D01*
X9180714Y-15514286D01*
X9195000Y-15500000D01*
X9223571Y-15485714D01*
X9452143Y-15757143D02*
X9466428Y-15771429D01*
X9452143Y-15785714D01*
X9437857Y-15771429D01*
X9452143Y-15757143D01*
X9452143Y-15785714D01*
X9723571Y-15585714D02*
X9723571Y-15785714D01*
X9652143Y-15471429D02*
X9580714Y-15685714D01*
X9766428Y-15685714D01*
X9937857Y-15485714D02*
X9966428Y-15485714D01*
X9995000Y-15500000D01*
X10009286Y-15514286D01*
X10023571Y-15542857D01*
X10037857Y-15600000D01*
X10037857Y-15671429D01*
X10023571Y-15728571D01*
X10009286Y-15757143D01*
X9995000Y-15771429D01*
X9966428Y-15785714D01*
X9937857Y-15785714D01*
X9909286Y-15771429D01*
X9895000Y-15757143D01*
X9880714Y-15728571D01*
X9866428Y-15671429D01*
X9866428Y-15600000D01*
X9880714Y-15542857D01*
X9895000Y-15514286D01*
X9909286Y-15500000D01*
X9937857Y-15485714D01*
X10166428Y-15785714D02*
X10166428Y-15585714D01*
X10166428Y-15614286D02*
X10180714Y-15600000D01*
X10209286Y-15585714D01*
X10252143Y-15585714D01*
X10280714Y-15600000D01*
X10295000Y-15628571D01*
X10295000Y-15785714D01*
X10295000Y-15628571D02*
X10309286Y-15600000D01*
X10337857Y-15585714D01*
X10380714Y-15585714D01*
X10409286Y-15600000D01*
X10423571Y-15628571D01*
X10423571Y-15785714D01*
X10566428Y-15785714D02*
X10566428Y-15585714D01*
X10566428Y-15614286D02*
X10580714Y-15600000D01*
X10609286Y-15585714D01*
X10652143Y-15585714D01*
X10680714Y-15600000D01*
X10695000Y-15628571D01*
X10695000Y-15785714D01*
X10695000Y-15628571D02*
X10709286Y-15600000D01*
X10737857Y-15585714D01*
X10780714Y-15585714D01*
X10809286Y-15600000D01*
X10823571Y-15628571D01*
X10823571Y-15785714D01*
X11409286Y-15471429D02*
X11152143Y-15857143D01*
X11795000Y-15485714D02*
X11823571Y-15485714D01*
X11852143Y-15500000D01*
X11866428Y-15514286D01*
X11880714Y-15542857D01*
X11895000Y-15600000D01*
X11895000Y-15671429D01*
X11880714Y-15728571D01*
X11866428Y-15757143D01*
X11852143Y-15771429D01*
X11823571Y-15785714D01*
X11795000Y-15785714D01*
X11766428Y-15771429D01*
X11752143Y-15757143D01*
X11737857Y-15728571D01*
X11723571Y-15671429D01*
X11723571Y-15600000D01*
X11737857Y-15542857D01*
X11752143Y-15514286D01*
X11766428Y-15500000D01*
X11795000Y-15485714D01*
X12023571Y-15757143D02*
X12037857Y-15771429D01*
X12023571Y-15785714D01*
X12009286Y-15771429D01*
X12023571Y-15757143D01*
X12023571Y-15785714D01*
X12223571Y-15485714D02*
X12252143Y-15485714D01*
X12280714Y-15500000D01*
X12295000Y-15514286D01*
X12309286Y-15542857D01*
X12323571Y-15600000D01*
X12323571Y-15671429D01*
X12309286Y-15728571D01*
X12295000Y-15757143D01*
X12280714Y-15771429D01*
X12252143Y-15785714D01*
X12223571Y-15785714D01*
X12195000Y-15771429D01*
X12180714Y-15757143D01*
X12166428Y-15728571D01*
X12152143Y-15671429D01*
X12152143Y-15600000D01*
X12166428Y-15542857D01*
X12180714Y-15514286D01*
X12195000Y-15500000D01*
X12223571Y-15485714D01*
X12609286Y-15785714D02*
X12437857Y-15785714D01*
X12523571Y-15785714D02*
X12523571Y-15485714D01*
X12495000Y-15528571D01*
X12466428Y-15557143D01*
X12437857Y-15571429D01*
X12866428Y-15485714D02*
X12809286Y-15485714D01*
X12780714Y-15500000D01*
X12766428Y-15514286D01*
X12737857Y-15557143D01*
X12723571Y-15614286D01*
X12723571Y-15728571D01*
X12737857Y-15757143D01*
X12752143Y-15771429D01*
X12780714Y-15785714D01*
X12837857Y-15785714D01*
X12866428Y-15771429D01*
X12880714Y-15757143D01*
X12895000Y-15728571D01*
X12895000Y-15657143D01*
X12880714Y-15628571D01*
X12866428Y-15614286D01*
X12837857Y-15600000D01*
X12780714Y-15600000D01*
X12752143Y-15614286D01*
X12737857Y-15628571D01*
X12723571Y-15657143D01*
X13009286Y-15485714D02*
X13009286Y-15542857D01*
X13123571Y-15485714D02*
X13123571Y-15542857D01*
X13566428Y-15900000D02*
X13552143Y-15885714D01*
X13523571Y-15842857D01*
X13509286Y-15814286D01*
X13495000Y-15771429D01*
X13480714Y-15700000D01*
X13480714Y-15642857D01*
X13495000Y-15571429D01*
X13509286Y-15528571D01*
X13523571Y-15500000D01*
X13552143Y-15457143D01*
X13566428Y-15442857D01*
X13837857Y-15785714D02*
X13666428Y-15785714D01*
X13752143Y-15785714D02*
X13752143Y-15485714D01*
X13723571Y-15528571D01*
X13695000Y-15557143D01*
X13666428Y-15571429D01*
X14023571Y-15485714D02*
X14052143Y-15485714D01*
X14080714Y-15500000D01*
X14095000Y-15514286D01*
X14109286Y-15542857D01*
X14123571Y-15600000D01*
X14123571Y-15671429D01*
X14109286Y-15728571D01*
X14095000Y-15757143D01*
X14080714Y-15771429D01*
X14052143Y-15785714D01*
X14023571Y-15785714D01*
X13995000Y-15771429D01*
X13980714Y-15757143D01*
X13966428Y-15728571D01*
X13952143Y-15671429D01*
X13952143Y-15600000D01*
X13966428Y-15542857D01*
X13980714Y-15514286D01*
X13995000Y-15500000D01*
X14023571Y-15485714D01*
X14309286Y-15485714D02*
X14337857Y-15485714D01*
X14366428Y-15500000D01*
X14380714Y-15514286D01*
X14395000Y-15542857D01*
X14409286Y-15600000D01*
X14409286Y-15671429D01*
X14395000Y-15728571D01*
X14380714Y-15757143D01*
X14366428Y-15771429D01*
X14337857Y-15785714D01*
X14309286Y-15785714D01*
X14280714Y-15771429D01*
X14266428Y-15757143D01*
X14252143Y-15728571D01*
X14237857Y-15671429D01*
X14237857Y-15600000D01*
X14252143Y-15542857D01*
X14266428Y-15514286D01*
X14280714Y-15500000D01*
X14309286Y-15485714D01*
X14766428Y-15785714D02*
X14766428Y-15485714D01*
X14895000Y-15785714D02*
X14895000Y-15628571D01*
X14880714Y-15600000D01*
X14852143Y-15585714D01*
X14809286Y-15585714D01*
X14780714Y-15600000D01*
X14766428Y-15614286D01*
X15080714Y-15785714D02*
X15052143Y-15771429D01*
X15037857Y-15757143D01*
X15023571Y-15728571D01*
X15023571Y-15642857D01*
X15037857Y-15614286D01*
X15052143Y-15600000D01*
X15080714Y-15585714D01*
X15123571Y-15585714D01*
X15152143Y-15600000D01*
X15166428Y-15614286D01*
X15180714Y-15642857D01*
X15180714Y-15728571D01*
X15166428Y-15757143D01*
X15152143Y-15771429D01*
X15123571Y-15785714D01*
X15080714Y-15785714D01*
X15352143Y-15785714D02*
X15323571Y-15771429D01*
X15309286Y-15742857D01*
X15309286Y-15485714D01*
X15580714Y-15771429D02*
X15552143Y-15785714D01*
X15495000Y-15785714D01*
X15466428Y-15771429D01*
X15452143Y-15742857D01*
X15452143Y-15628571D01*
X15466428Y-15600000D01*
X15495000Y-15585714D01*
X15552143Y-15585714D01*
X15580714Y-15600000D01*
X15595000Y-15628571D01*
X15595000Y-15657143D01*
X15452143Y-15685714D01*
X15709286Y-15771429D02*
X15737857Y-15785714D01*
X15795000Y-15785714D01*
X15823571Y-15771429D01*
X15837857Y-15742857D01*
X15837857Y-15728571D01*
X15823571Y-15700000D01*
X15795000Y-15685714D01*
X15752143Y-15685714D01*
X15723571Y-15671429D01*
X15709286Y-15642857D01*
X15709286Y-15628571D01*
X15723571Y-15600000D01*
X15752143Y-15585714D01*
X15795000Y-15585714D01*
X15823571Y-15600000D01*
X15937857Y-15900000D02*
X15952143Y-15885714D01*
X15980714Y-15842857D01*
X15995000Y-15814286D01*
X16009286Y-15771429D01*
X16023571Y-15700000D01*
X16023571Y-15642857D01*
X16009286Y-15571429D01*
X15995000Y-15528571D01*
X15980714Y-15500000D01*
X15952143Y-15457143D01*
X15937857Y-15442857D01*
X8880000Y-16046000D02*
G75*
G03X8880000Y-16046000I-50000J0D01*
G01*
X9323571Y-16181714D02*
X9152143Y-16181714D01*
X9237857Y-16181714D02*
X9237857Y-15881714D01*
X9209286Y-15924571D01*
X9180714Y-15953143D01*
X9152143Y-15967429D01*
X9452143Y-16153143D02*
X9466428Y-16167429D01*
X9452143Y-16181714D01*
X9437857Y-16167429D01*
X9452143Y-16153143D01*
X9452143Y-16181714D01*
X9652143Y-15881714D02*
X9680714Y-15881714D01*
X9709286Y-15896000D01*
X9723571Y-15910286D01*
X9737857Y-15938857D01*
X9752143Y-15996000D01*
X9752143Y-16067429D01*
X9737857Y-16124571D01*
X9723571Y-16153143D01*
X9709286Y-16167429D01*
X9680714Y-16181714D01*
X9652143Y-16181714D01*
X9623571Y-16167429D01*
X9609286Y-16153143D01*
X9595000Y-16124571D01*
X9580714Y-16067429D01*
X9580714Y-15996000D01*
X9595000Y-15938857D01*
X9609286Y-15910286D01*
X9623571Y-15896000D01*
X9652143Y-15881714D01*
X9937857Y-15881714D02*
X9966428Y-15881714D01*
X9995000Y-15896000D01*
X10009286Y-15910286D01*
X10023571Y-15938857D01*
X10037857Y-15996000D01*
X10037857Y-16067429D01*
X10023571Y-16124571D01*
X10009286Y-16153143D01*
X9995000Y-16167429D01*
X9966428Y-16181714D01*
X9937857Y-16181714D01*
X9909286Y-16167429D01*
X9895000Y-16153143D01*
X9880714Y-16124571D01*
X9866428Y-16067429D01*
X9866428Y-15996000D01*
X9880714Y-15938857D01*
X9895000Y-15910286D01*
X9909286Y-15896000D01*
X9937857Y-15881714D01*
X10166428Y-16181714D02*
X10166428Y-15981714D01*
X10166428Y-16010286D02*
X10180714Y-15996000D01*
X10209286Y-15981714D01*
X10252143Y-15981714D01*
X10280714Y-15996000D01*
X10295000Y-16024571D01*
X10295000Y-16181714D01*
X10295000Y-16024571D02*
X10309286Y-15996000D01*
X10337857Y-15981714D01*
X10380714Y-15981714D01*
X10409286Y-15996000D01*
X10423571Y-16024571D01*
X10423571Y-16181714D01*
X10566428Y-16181714D02*
X10566428Y-15981714D01*
X10566428Y-16010286D02*
X10580714Y-15996000D01*
X10609286Y-15981714D01*
X10652143Y-15981714D01*
X10680714Y-15996000D01*
X10695000Y-16024571D01*
X10695000Y-16181714D01*
X10695000Y-16024571D02*
X10709286Y-15996000D01*
X10737857Y-15981714D01*
X10780714Y-15981714D01*
X10809286Y-15996000D01*
X10823571Y-16024571D01*
X10823571Y-16181714D01*
X11409286Y-15867429D02*
X11152143Y-16253143D01*
X11795000Y-15881714D02*
X11823571Y-15881714D01*
X11852143Y-15896000D01*
X11866428Y-15910286D01*
X11880714Y-15938857D01*
X11895000Y-15996000D01*
X11895000Y-16067429D01*
X11880714Y-16124571D01*
X11866428Y-16153143D01*
X11852143Y-16167429D01*
X11823571Y-16181714D01*
X11795000Y-16181714D01*
X11766428Y-16167429D01*
X11752143Y-16153143D01*
X11737857Y-16124571D01*
X11723571Y-16067429D01*
X11723571Y-15996000D01*
X11737857Y-15938857D01*
X11752143Y-15910286D01*
X11766428Y-15896000D01*
X11795000Y-15881714D01*
X12023571Y-16153143D02*
X12037857Y-16167429D01*
X12023571Y-16181714D01*
X12009286Y-16167429D01*
X12023571Y-16153143D01*
X12023571Y-16181714D01*
X12223571Y-15881714D02*
X12252143Y-15881714D01*
X12280714Y-15896000D01*
X12295000Y-15910286D01*
X12309286Y-15938857D01*
X12323571Y-15996000D01*
X12323571Y-16067429D01*
X12309286Y-16124571D01*
X12295000Y-16153143D01*
X12280714Y-16167429D01*
X12252143Y-16181714D01*
X12223571Y-16181714D01*
X12195000Y-16167429D01*
X12180714Y-16153143D01*
X12166428Y-16124571D01*
X12152143Y-16067429D01*
X12152143Y-15996000D01*
X12166428Y-15938857D01*
X12180714Y-15910286D01*
X12195000Y-15896000D01*
X12223571Y-15881714D01*
X12423571Y-15881714D02*
X12609286Y-15881714D01*
X12509286Y-15996000D01*
X12552143Y-15996000D01*
X12580714Y-16010286D01*
X12595000Y-16024571D01*
X12609286Y-16053143D01*
X12609286Y-16124571D01*
X12595000Y-16153143D01*
X12580714Y-16167429D01*
X12552143Y-16181714D01*
X12466428Y-16181714D01*
X12437857Y-16167429D01*
X12423571Y-16153143D01*
X12752143Y-16181714D02*
X12809286Y-16181714D01*
X12837857Y-16167429D01*
X12852143Y-16153143D01*
X12880714Y-16110286D01*
X12895000Y-16053143D01*
X12895000Y-15938857D01*
X12880714Y-15910286D01*
X12866428Y-15896000D01*
X12837857Y-15881714D01*
X12780714Y-15881714D01*
X12752143Y-15896000D01*
X12737857Y-15910286D01*
X12723571Y-15938857D01*
X12723571Y-16010286D01*
X12737857Y-16038857D01*
X12752143Y-16053143D01*
X12780714Y-16067429D01*
X12837857Y-16067429D01*
X12866428Y-16053143D01*
X12880714Y-16038857D01*
X12895000Y-16010286D01*
X13009286Y-15881714D02*
X13009286Y-15938857D01*
X13123571Y-15881714D02*
X13123571Y-15938857D01*
X13566428Y-16296000D02*
X13552143Y-16281714D01*
X13523571Y-16238857D01*
X13509286Y-16210286D01*
X13495000Y-16167429D01*
X13480714Y-16096000D01*
X13480714Y-16038857D01*
X13495000Y-15967429D01*
X13509286Y-15924571D01*
X13523571Y-15896000D01*
X13552143Y-15853143D01*
X13566428Y-15838857D01*
X13666428Y-15910286D02*
X13680714Y-15896000D01*
X13709286Y-15881714D01*
X13780714Y-15881714D01*
X13809286Y-15896000D01*
X13823571Y-15910286D01*
X13837857Y-15938857D01*
X13837857Y-15967429D01*
X13823571Y-16010286D01*
X13652143Y-16181714D01*
X13837857Y-16181714D01*
X14095000Y-15981714D02*
X14095000Y-16181714D01*
X14023571Y-15867429D02*
X13952143Y-16081714D01*
X14137857Y-16081714D01*
X14480714Y-16181714D02*
X14480714Y-15881714D01*
X14609286Y-16181714D02*
X14609286Y-16024571D01*
X14595000Y-15996000D01*
X14566428Y-15981714D01*
X14523571Y-15981714D01*
X14495000Y-15996000D01*
X14480714Y-16010286D01*
X14795000Y-16181714D02*
X14766428Y-16167429D01*
X14752143Y-16153143D01*
X14737857Y-16124571D01*
X14737857Y-16038857D01*
X14752143Y-16010286D01*
X14766428Y-15996000D01*
X14795000Y-15981714D01*
X14837857Y-15981714D01*
X14866428Y-15996000D01*
X14880714Y-16010286D01*
X14895000Y-16038857D01*
X14895000Y-16124571D01*
X14880714Y-16153143D01*
X14866428Y-16167429D01*
X14837857Y-16181714D01*
X14795000Y-16181714D01*
X15066428Y-16181714D02*
X15037857Y-16167429D01*
X15023571Y-16138857D01*
X15023571Y-15881714D01*
X15295000Y-16167429D02*
X15266428Y-16181714D01*
X15209286Y-16181714D01*
X15180714Y-16167429D01*
X15166428Y-16138857D01*
X15166428Y-16024571D01*
X15180714Y-15996000D01*
X15209286Y-15981714D01*
X15266428Y-15981714D01*
X15295000Y-15996000D01*
X15309286Y-16024571D01*
X15309286Y-16053143D01*
X15166428Y-16081714D01*
X15423571Y-16167429D02*
X15452143Y-16181714D01*
X15509286Y-16181714D01*
X15537857Y-16167429D01*
X15552143Y-16138857D01*
X15552143Y-16124571D01*
X15537857Y-16096000D01*
X15509286Y-16081714D01*
X15466428Y-16081714D01*
X15437857Y-16067429D01*
X15423571Y-16038857D01*
X15423571Y-16024571D01*
X15437857Y-15996000D01*
X15466428Y-15981714D01*
X15509286Y-15981714D01*
X15537857Y-15996000D01*
X15652143Y-16296000D02*
X15666428Y-16281714D01*
X15695000Y-16238857D01*
X15709286Y-16210286D01*
X15723571Y-16167429D01*
X15737857Y-16096000D01*
X15737857Y-16038857D01*
X15723571Y-15967429D01*
X15709286Y-15924571D01*
X15695000Y-15896000D01*
X15666428Y-15853143D01*
X15652143Y-15838857D01*
X8730000Y-16292000D02*
X8730000Y-16592000D01*
X8580000Y-16442000D02*
X8880000Y-16442000D01*
X9137857Y-16277714D02*
X9323571Y-16277714D01*
X9223571Y-16392000D01*
X9266428Y-16392000D01*
X9295000Y-16406286D01*
X9309286Y-16420571D01*
X9323571Y-16449143D01*
X9323571Y-16520571D01*
X9309286Y-16549143D01*
X9295000Y-16563429D01*
X9266428Y-16577714D01*
X9180714Y-16577714D01*
X9152143Y-16563429D01*
X9137857Y-16549143D01*
X9452143Y-16549143D02*
X9466428Y-16563429D01*
X9452143Y-16577714D01*
X9437857Y-16563429D01*
X9452143Y-16549143D01*
X9452143Y-16577714D01*
X9652143Y-16277714D02*
X9680714Y-16277714D01*
X9709286Y-16292000D01*
X9723571Y-16306286D01*
X9737857Y-16334857D01*
X9752143Y-16392000D01*
X9752143Y-16463429D01*
X9737857Y-16520571D01*
X9723571Y-16549143D01*
X9709286Y-16563429D01*
X9680714Y-16577714D01*
X9652143Y-16577714D01*
X9623571Y-16563429D01*
X9609286Y-16549143D01*
X9595000Y-16520571D01*
X9580714Y-16463429D01*
X9580714Y-16392000D01*
X9595000Y-16334857D01*
X9609286Y-16306286D01*
X9623571Y-16292000D01*
X9652143Y-16277714D01*
X9937857Y-16277714D02*
X9966428Y-16277714D01*
X9995000Y-16292000D01*
X10009286Y-16306286D01*
X10023571Y-16334857D01*
X10037857Y-16392000D01*
X10037857Y-16463429D01*
X10023571Y-16520571D01*
X10009286Y-16549143D01*
X9995000Y-16563429D01*
X9966428Y-16577714D01*
X9937857Y-16577714D01*
X9909286Y-16563429D01*
X9895000Y-16549143D01*
X9880714Y-16520571D01*
X9866428Y-16463429D01*
X9866428Y-16392000D01*
X9880714Y-16334857D01*
X9895000Y-16306286D01*
X9909286Y-16292000D01*
X9937857Y-16277714D01*
X10166428Y-16577714D02*
X10166428Y-16377714D01*
X10166428Y-16406286D02*
X10180714Y-16392000D01*
X10209286Y-16377714D01*
X10252143Y-16377714D01*
X10280714Y-16392000D01*
X10295000Y-16420571D01*
X10295000Y-16577714D01*
X10295000Y-16420571D02*
X10309286Y-16392000D01*
X10337857Y-16377714D01*
X10380714Y-16377714D01*
X10409286Y-16392000D01*
X10423571Y-16420571D01*
X10423571Y-16577714D01*
X10566428Y-16577714D02*
X10566428Y-16377714D01*
X10566428Y-16406286D02*
X10580714Y-16392000D01*
X10609286Y-16377714D01*
X10652143Y-16377714D01*
X10680714Y-16392000D01*
X10695000Y-16420571D01*
X10695000Y-16577714D01*
X10695000Y-16420571D02*
X10709286Y-16392000D01*
X10737857Y-16377714D01*
X10780714Y-16377714D01*
X10809286Y-16392000D01*
X10823571Y-16420571D01*
X10823571Y-16577714D01*
X11409286Y-16263429D02*
X11152143Y-16649143D01*
X11795000Y-16277714D02*
X11823571Y-16277714D01*
X11852143Y-16292000D01*
X11866428Y-16306286D01*
X11880714Y-16334857D01*
X11895000Y-16392000D01*
X11895000Y-16463429D01*
X11880714Y-16520571D01*
X11866428Y-16549143D01*
X11852143Y-16563429D01*
X11823571Y-16577714D01*
X11795000Y-16577714D01*
X11766428Y-16563429D01*
X11752143Y-16549143D01*
X11737857Y-16520571D01*
X11723571Y-16463429D01*
X11723571Y-16392000D01*
X11737857Y-16334857D01*
X11752143Y-16306286D01*
X11766428Y-16292000D01*
X11795000Y-16277714D01*
X12023571Y-16549143D02*
X12037857Y-16563429D01*
X12023571Y-16577714D01*
X12009286Y-16563429D01*
X12023571Y-16549143D01*
X12023571Y-16577714D01*
X12323571Y-16577714D02*
X12152143Y-16577714D01*
X12237857Y-16577714D02*
X12237857Y-16277714D01*
X12209286Y-16320571D01*
X12180714Y-16349143D01*
X12152143Y-16363429D01*
X12609286Y-16577714D02*
X12437857Y-16577714D01*
X12523571Y-16577714D02*
X12523571Y-16277714D01*
X12495000Y-16320571D01*
X12466428Y-16349143D01*
X12437857Y-16363429D01*
X12780714Y-16406286D02*
X12752143Y-16392000D01*
X12737857Y-16377714D01*
X12723571Y-16349143D01*
X12723571Y-16334857D01*
X12737857Y-16306286D01*
X12752143Y-16292000D01*
X12780714Y-16277714D01*
X12837857Y-16277714D01*
X12866428Y-16292000D01*
X12880714Y-16306286D01*
X12895000Y-16334857D01*
X12895000Y-16349143D01*
X12880714Y-16377714D01*
X12866428Y-16392000D01*
X12837857Y-16406286D01*
X12780714Y-16406286D01*
X12752143Y-16420571D01*
X12737857Y-16434857D01*
X12723571Y-16463429D01*
X12723571Y-16520571D01*
X12737857Y-16549143D01*
X12752143Y-16563429D01*
X12780714Y-16577714D01*
X12837857Y-16577714D01*
X12866428Y-16563429D01*
X12880714Y-16549143D01*
X12895000Y-16520571D01*
X12895000Y-16463429D01*
X12880714Y-16434857D01*
X12866428Y-16420571D01*
X12837857Y-16406286D01*
X13009286Y-16277714D02*
X13009286Y-16334857D01*
X13123571Y-16277714D02*
X13123571Y-16334857D01*
X13566428Y-16692000D02*
X13552143Y-16677714D01*
X13523571Y-16634857D01*
X13509286Y-16606286D01*
X13495000Y-16563429D01*
X13480714Y-16492000D01*
X13480714Y-16434857D01*
X13495000Y-16363429D01*
X13509286Y-16320571D01*
X13523571Y-16292000D01*
X13552143Y-16249143D01*
X13566428Y-16234857D01*
X13837857Y-16577714D02*
X13666428Y-16577714D01*
X13752143Y-16577714D02*
X13752143Y-16277714D01*
X13723571Y-16320571D01*
X13695000Y-16349143D01*
X13666428Y-16363429D01*
X14095000Y-16277714D02*
X14037857Y-16277714D01*
X14009286Y-16292000D01*
X13995000Y-16306286D01*
X13966428Y-16349143D01*
X13952143Y-16406286D01*
X13952143Y-16520571D01*
X13966428Y-16549143D01*
X13980714Y-16563429D01*
X14009286Y-16577714D01*
X14066428Y-16577714D01*
X14095000Y-16563429D01*
X14109286Y-16549143D01*
X14123571Y-16520571D01*
X14123571Y-16449143D01*
X14109286Y-16420571D01*
X14095000Y-16406286D01*
X14066428Y-16392000D01*
X14009286Y-16392000D01*
X13980714Y-16406286D01*
X13966428Y-16420571D01*
X13952143Y-16449143D01*
X14480714Y-16577714D02*
X14480714Y-16277714D01*
X14609286Y-16577714D02*
X14609286Y-16420571D01*
X14595000Y-16392000D01*
X14566428Y-16377714D01*
X14523571Y-16377714D01*
X14495000Y-16392000D01*
X14480714Y-16406286D01*
X14795000Y-16577714D02*
X14766428Y-16563429D01*
X14752143Y-16549143D01*
X14737857Y-16520571D01*
X14737857Y-16434857D01*
X14752143Y-16406286D01*
X14766428Y-16392000D01*
X14795000Y-16377714D01*
X14837857Y-16377714D01*
X14866428Y-16392000D01*
X14880714Y-16406286D01*
X14895000Y-16434857D01*
X14895000Y-16520571D01*
X14880714Y-16549143D01*
X14866428Y-16563429D01*
X14837857Y-16577714D01*
X14795000Y-16577714D01*
X15066428Y-16577714D02*
X15037857Y-16563429D01*
X15023571Y-16534857D01*
X15023571Y-16277714D01*
X15295000Y-16563429D02*
X15266428Y-16577714D01*
X15209286Y-16577714D01*
X15180714Y-16563429D01*
X15166428Y-16534857D01*
X15166428Y-16420571D01*
X15180714Y-16392000D01*
X15209286Y-16377714D01*
X15266428Y-16377714D01*
X15295000Y-16392000D01*
X15309286Y-16420571D01*
X15309286Y-16449143D01*
X15166428Y-16477714D01*
X15423571Y-16563429D02*
X15452143Y-16577714D01*
X15509286Y-16577714D01*
X15537857Y-16563429D01*
X15552143Y-16534857D01*
X15552143Y-16520571D01*
X15537857Y-16492000D01*
X15509286Y-16477714D01*
X15466428Y-16477714D01*
X15437857Y-16463429D01*
X15423571Y-16434857D01*
X15423571Y-16420571D01*
X15437857Y-16392000D01*
X15466428Y-16377714D01*
X15509286Y-16377714D01*
X15537857Y-16392000D01*
X15652143Y-16692000D02*
X15666428Y-16677714D01*
X15695000Y-16634857D01*
X15709286Y-16606286D01*
X15723571Y-16563429D01*
X15737857Y-16492000D01*
X15737857Y-16434857D01*
X15723571Y-16363429D01*
X15709286Y-16320571D01*
X15695000Y-16292000D01*
X15666428Y-16249143D01*
X15652143Y-16234857D01*
M02*
